<ttFont>
    <TTGlyph name="A" xMin="-97" yMin="0" xMax="839" yMax="699">
      <contour>
        <pt x="839" y="43" on="1"/>
        <pt x="839" y="0" on="1"/>
        <pt x="616" y="0" on="1"/>
        <pt x="546" y="159" on="1"/>
        <pt x="196" y="159" on="1"/>
        <pt x="126" y="0" on="1"/>
        <pt x="-97" y="0" on="1"/>
        <pt x="-97" y="43" on="1"/>
        <pt x="19" y="43" on="1"/>
        <pt x="308" y="699" on="1"/>
        <pt x="434" y="699" on="1"/>
        <pt x="723" y="43" on="1"/>
      </contour>
      <contour>
        <pt x="498" y="268" on="1"/>
        <pt x="371" y="556" on="1"/>
        <pt x="244" y="268" on="1"/>
      </contour>
    </TTGlyph>
    <TTGlyph name="AE" xMin="-97" yMin="0" xMax="1081" yMax="699">
      <contour>
        <pt x="1081" y="43" on="1"/>
        <pt x="1081" y="0" on="1"/>
        <pt x="472" y="0" on="1"/>
        <pt x="472" y="159" on="1"/>
        <pt x="219" y="159" on="1"/>
        <pt x="134" y="0" on="1"/>
        <pt x="-97" y="0" on="1"/>
        <pt x="-97" y="43" on="1"/>
        <pt x="11" y="43" on="1"/>
        <pt x="355" y="699" on="1"/>
        <pt x="974" y="699" on="1"/>
        <pt x="974" y="589" on="1"/>
        <pt x="601" y="589" on="1"/>
        <pt x="601" y="397" on="1"/>
        <pt x="936" y="397" on="1"/>
        <pt x="936" y="294" on="1"/>
        <pt x="601" y="294" on="1"/>
        <pt x="601" y="110" on="1"/>
        <pt x="986" y="110" on="1"/>
        <pt x="986" y="43" on="1"/>
      </contour>
      <contour>
        <pt x="472" y="272" on="1"/>
        <pt x="472" y="589" on="1"/>
        <pt x="443" y="589" on="1"/>
        <pt x="276" y="272" on="1"/>
      </contour>
    </TTGlyph>
    <TTGlyph name="Aacute" xMin="-97" yMin="0" xMax="839" yMax="903">
      <contour>
        <pt x="839" y="43" on="1"/>
        <pt x="839" y="0" on="1"/>
        <pt x="616" y="0" on="1"/>
        <pt x="546" y="159" on="1"/>
        <pt x="196" y="159" on="1"/>
        <pt x="126" y="0" on="1"/>
        <pt x="-97" y="0" on="1"/>
        <pt x="-97" y="43" on="1"/>
        <pt x="19" y="43" on="1"/>
        <pt x="308" y="699" on="1"/>
        <pt x="434" y="699" on="1"/>
        <pt x="723" y="43" on="1"/>
      </contour>
      <contour>
        <pt x="498" y="268" on="1"/>
        <pt x="371" y="556" on="1"/>
        <pt x="244" y="268" on="1"/>
      </contour>
      <contour>
        <pt x="425" y="758" on="1"/>
        <pt x="323" y="758" on="1"/>
        <pt x="429" y="903" on="1"/>
        <pt x="547" y="854" on="1"/>
      </contour>
    </TTGlyph>
    <TTGlyph name="Acircumflex" xMin="-97" yMin="0" xMax="839" yMax="891">
      <contour>
        <pt x="839" y="43" on="1"/>
        <pt x="839" y="0" on="1"/>
        <pt x="616" y="0" on="1"/>
        <pt x="546" y="159" on="1"/>
        <pt x="196" y="159" on="1"/>
        <pt x="126" y="0" on="1"/>
        <pt x="-97" y="0" on="1"/>
        <pt x="-97" y="43" on="1"/>
        <pt x="19" y="43" on="1"/>
        <pt x="308" y="699" on="1"/>
        <pt x="434" y="699" on="1"/>
        <pt x="723" y="43" on="1"/>
      </contour>
      <contour>
        <pt x="498" y="268" on="1"/>
        <pt x="371" y="556" on="1"/>
        <pt x="244" y="268" on="1"/>
      </contour>
      <contour>
        <pt x="319" y="891" on="1"/>
        <pt x="423" y="891" on="1"/>
        <pt x="545" y="757" on="1"/>
        <pt x="448" y="757" on="1"/>
        <pt x="371" y="813" on="1"/>
        <pt x="294" y="757" on="1"/>
        <pt x="197" y="757" on="1"/>
      </contour>
    </TTGlyph>
    <TTGlyph name="Adieresis" xMin="-97" yMin="0" xMax="839" yMax="876">
      <contour>
        <pt x="252" y="753" on="0"/>
        <pt x="217" y="789" on="0"/>
        <pt x="217" y="840" on="0"/>
        <pt x="252" y="876" on="0"/>
        <pt x="304" y="876" on="0"/>
        <pt x="340" y="841" on="0"/>
        <pt x="340" y="790" on="0"/>
        <pt x="304" y="753" on="0"/>
      </contour>
      <contour>
        <pt x="438" y="753" on="0"/>
        <pt x="402" y="789" on="0"/>
        <pt x="402" y="840" on="0"/>
        <pt x="438" y="876" on="0"/>
        <pt x="489" y="876" on="0"/>
        <pt x="525" y="841" on="0"/>
        <pt x="525" y="790" on="0"/>
        <pt x="488" y="753" on="0"/>
      </contour>
      <contour>
        <pt x="839" y="43" on="1"/>
        <pt x="839" y="0" on="1"/>
        <pt x="616" y="0" on="1"/>
        <pt x="546" y="159" on="1"/>
        <pt x="196" y="159" on="1"/>
        <pt x="126" y="0" on="1"/>
        <pt x="-97" y="0" on="1"/>
        <pt x="-97" y="43" on="1"/>
        <pt x="19" y="43" on="1"/>
        <pt x="308" y="699" on="1"/>
        <pt x="434" y="699" on="1"/>
        <pt x="723" y="43" on="1"/>
      </contour>
      <contour>
        <pt x="498" y="268" on="1"/>
        <pt x="371" y="556" on="1"/>
        <pt x="244" y="268" on="1"/>
      </contour>
    </TTGlyph>
    <TTGlyph name="Agrave" xMin="-97" yMin="0" xMax="839" yMax="902">
      <contour>
        <pt x="420" y="757" on="1"/>
        <pt x="318" y="757" on="1"/>
        <pt x="196" y="853" on="1"/>
        <pt x="314" y="902" on="1"/>
      </contour>
      <contour>
        <pt x="839" y="43" on="1"/>
        <pt x="839" y="0" on="1"/>
        <pt x="616" y="0" on="1"/>
        <pt x="546" y="159" on="1"/>
        <pt x="196" y="159" on="1"/>
        <pt x="126" y="0" on="1"/>
        <pt x="-97" y="0" on="1"/>
        <pt x="-97" y="43" on="1"/>
        <pt x="19" y="43" on="1"/>
        <pt x="308" y="699" on="1"/>
        <pt x="434" y="699" on="1"/>
        <pt x="723" y="43" on="1"/>
      </contour>
      <contour>
        <pt x="498" y="268" on="1"/>
        <pt x="371" y="556" on="1"/>
        <pt x="244" y="268" on="1"/>
      </contour>
    </TTGlyph>
    <TTGlyph name="Aring" xMin="-97" yMin="0" xMax="839" yMax="876">
      <contour>
        <pt x="839" y="43" on="1"/>
        <pt x="839" y="0" on="1"/>
        <pt x="616" y="0" on="1"/>
        <pt x="546" y="159" on="1"/>
        <pt x="196" y="159" on="1"/>
        <pt x="126" y="0" on="1"/>
        <pt x="-97" y="0" on="1"/>
        <pt x="-97" y="43" on="1"/>
        <pt x="19" y="43" on="1"/>
        <pt x="304" y="689" on="1"/>
        <pt x="262" y="721" on="0"/>
        <pt x="262" y="813" on="0"/>
        <pt x="327" y="876" on="0"/>
        <pt x="413" y="876" on="0"/>
        <pt x="479" y="813" on="0"/>
        <pt x="479" y="722" on="0"/>
        <pt x="437" y="690" on="1"/>
        <pt x="723" y="43" on="1"/>
      </contour>
      <contour>
        <pt x="498" y="268" on="1"/>
        <pt x="371" y="556" on="1"/>
        <pt x="244" y="268" on="1"/>
      </contour>
      <contour>
        <pt x="395" y="716" on="0"/>
        <pt x="425" y="747" on="0"/>
        <pt x="425" y="796" on="0"/>
        <pt x="395" y="827" on="0"/>
        <pt x="346" y="827" on="0"/>
        <pt x="315" y="796" on="0"/>
        <pt x="315" y="747" on="0"/>
        <pt x="346" y="716" on="0"/>
      </contour>
    </TTGlyph>
    <TTGlyph name="Atilde" xMin="-97" yMin="0" xMax="839" yMax="887">
      <contour>
        <pt x="839" y="43" on="1"/>
        <pt x="839" y="0" on="1"/>
        <pt x="616" y="0" on="1"/>
        <pt x="546" y="159" on="1"/>
        <pt x="196" y="159" on="1"/>
        <pt x="126" y="0" on="1"/>
        <pt x="-97" y="0" on="1"/>
        <pt x="-97" y="43" on="1"/>
        <pt x="19" y="43" on="1"/>
        <pt x="308" y="699" on="1"/>
        <pt x="434" y="699" on="1"/>
        <pt x="723" y="43" on="1"/>
      </contour>
      <contour>
        <pt x="498" y="268" on="1"/>
        <pt x="371" y="556" on="1"/>
        <pt x="244" y="268" on="1"/>
      </contour>
      <contour>
        <pt x="445" y="754" on="1"/>
        <pt x="419" y="754" on="0"/>
        <pt x="326" y="801" on="0"/>
        <pt x="313" y="801" on="1"/>
        <pt x="280" y="801" on="0"/>
        <pt x="279" y="757" on="1"/>
        <pt x="205" y="757" on="1"/>
        <pt x="205" y="815" on="0"/>
        <pt x="252" y="887" on="0"/>
        <pt x="294" y="887" on="1"/>
        <pt x="321" y="887" on="0"/>
        <pt x="417" y="840" on="0"/>
        <pt x="432" y="840" on="1"/>
        <pt x="462" y="840" on="0"/>
        <pt x="462" y="884" on="1"/>
        <pt x="537" y="884" on="1"/>
        <pt x="534" y="754" on="0"/>
      </contour>
    </TTGlyph>
    <TTGlyph name="B" xMin="0" yMin="0" xMax="706" yMax="699">
      <contour>
        <pt x="706" y="43" on="1"/>
        <pt x="706" y="0" on="1"/>
        <pt x="0" y="0" on="1"/>
        <pt x="0" y="43" on="1"/>
        <pt x="97" y="43" on="1"/>
        <pt x="97" y="699" on="1"/>
        <pt x="369" y="699" on="1"/>
        <pt x="440" y="699" on="0"/>
        <pt x="543" y="665" on="0"/>
        <pt x="568" y="636" on="1"/>
        <pt x="616" y="582" on="0"/>
        <pt x="616" y="514" on="1"/>
        <pt x="616" y="432" on="0"/>
        <pt x="564" y="392" on="1"/>
        <pt x="545" y="378" on="0"/>
        <pt x="531" y="371" on="0"/>
        <pt x="513" y="363" on="1"/>
        <pt x="578" y="349" on="0"/>
        <pt x="655" y="260" on="0"/>
        <pt x="655" y="194" on="1"/>
        <pt x="655" y="95" on="0"/>
        <pt x="577" y="43" on="1"/>
      </contour>
      <contour>
        <pt x="215" y="109" on="1"/>
        <pt x="400" y="109" on="1"/>
        <pt x="465" y="109" on="0"/>
        <pt x="534" y="150" on="0"/>
        <pt x="534" y="207" on="1"/>
        <pt x="534" y="300" on="0"/>
        <pt x="385" y="300" on="1"/>
        <pt x="215" y="300" on="1"/>
      </contour>
      <contour>
        <pt x="215" y="409" on="1"/>
        <pt x="365" y="409" on="1"/>
        <pt x="493" y="409" on="0"/>
        <pt x="493" y="496" on="1"/>
        <pt x="493" y="546" on="0"/>
        <pt x="431" y="590" on="0"/>
        <pt x="366" y="590" on="1"/>
        <pt x="215" y="590" on="1"/>
      </contour>
    </TTGlyph>
    <TTGlyph name="C" xMin="0" yMin="0" xMax="736" yMax="716">
      <contour>
        <pt x="736" y="43" on="1"/>
        <pt x="736" y="0" on="1"/>
        <pt x="0" y="0" on="1"/>
        <pt x="0" y="43" on="1"/>
        <pt x="222" y="43" on="1"/>
        <pt x="143" y="90" on="0"/>
        <pt x="52" y="252" on="0"/>
        <pt x="52" y="354" on="1"/>
        <pt x="52" y="508" on="0"/>
        <pt x="265" y="716" on="0"/>
        <pt x="590" y="716" on="0"/>
        <pt x="699" y="596" on="1"/>
        <pt x="624" y="514" on="1"/>
        <pt x="574" y="562" on="0"/>
        <pt x="485" y="600" on="0"/>
        <pt x="425" y="600" on="1"/>
        <pt x="319" y="600" on="0"/>
        <pt x="175" y="463" on="0"/>
        <pt x="175" y="250" on="0"/>
        <pt x="318" y="107" on="0"/>
        <pt x="416" y="107" on="1"/>
        <pt x="477" y="107" on="0"/>
        <pt x="565" y="148" on="0"/>
        <pt x="613" y="193" on="1"/>
        <pt x="689" y="115" on="1"/>
        <pt x="645" y="67" on="0"/>
        <pt x="605" y="43" on="1"/>
      </contour>
    </TTGlyph>
    <TTGlyph name="Ccedilla" xMin="0" yMin="-212" xMax="736" yMax="716">
      <contour>
        <pt x="736" y="43" on="1"/>
        <pt x="736" y="0" on="1"/>
        <pt x="439" y="0" on="1"/>
        <pt x="419" y="-38" on="1"/>
        <pt x="489" y="-47" on="0"/>
        <pt x="489" y="-117" on="1"/>
        <pt x="489" y="-155" on="0"/>
        <pt x="427" y="-212" on="0"/>
        <pt x="332" y="-212" on="0"/>
        <pt x="296" y="-190" on="1"/>
        <pt x="322" y="-133" on="1"/>
        <pt x="341" y="-143" on="0"/>
        <pt x="380" y="-143" on="0"/>
        <pt x="402" y="-120" on="0"/>
        <pt x="402" y="-88" on="0"/>
        <pt x="379" y="-63" on="0"/>
        <pt x="344" y="-63" on="0"/>
        <pt x="332" y="-68" on="1"/>
        <pt x="368" y="0" on="1"/>
        <pt x="0" y="0" on="1"/>
        <pt x="0" y="43" on="1"/>
        <pt x="222" y="43" on="1"/>
        <pt x="143" y="90" on="0"/>
        <pt x="52" y="252" on="0"/>
        <pt x="52" y="354" on="1"/>
        <pt x="52" y="508" on="0"/>
        <pt x="265" y="716" on="0"/>
        <pt x="590" y="716" on="0"/>
        <pt x="699" y="596" on="1"/>
        <pt x="624" y="514" on="1"/>
        <pt x="574" y="562" on="0"/>
        <pt x="485" y="600" on="0"/>
        <pt x="425" y="600" on="1"/>
        <pt x="319" y="600" on="0"/>
        <pt x="175" y="463" on="0"/>
        <pt x="175" y="250" on="0"/>
        <pt x="318" y="107" on="0"/>
        <pt x="416" y="107" on="1"/>
        <pt x="477" y="107" on="0"/>
        <pt x="565" y="148" on="0"/>
        <pt x="613" y="193" on="1"/>
        <pt x="689" y="115" on="1"/>
        <pt x="645" y="67" on="0"/>
        <pt x="605" y="43" on="1"/>
      </contour>
    </TTGlyph>
    <TTGlyph name="D" xMin="0" yMin="0" xMax="782" yMax="699">
      <contour>
        <pt x="782" y="43" on="1"/>
        <pt x="782" y="0" on="1"/>
        <pt x="0" y="0" on="1"/>
        <pt x="0" y="43" on="1"/>
        <pt x="97" y="43" on="1"/>
        <pt x="97" y="699" on="1"/>
        <pt x="337" y="699" on="1"/>
        <pt x="525" y="699" on="0"/>
        <pt x="727" y="516" on="0"/>
        <pt x="727" y="350" on="1"/>
        <pt x="727" y="127" on="0"/>
        <pt x="551" y="43" on="1"/>
      </contour>
      <contour>
        <pt x="608" y="350" on="1"/>
        <pt x="608" y="590" on="0"/>
        <pt x="333" y="590" on="1"/>
        <pt x="215" y="590" on="1"/>
        <pt x="215" y="111" on="1"/>
        <pt x="346" y="111" on="1"/>
        <pt x="473" y="111" on="0"/>
        <pt x="608" y="232" on="0"/>
      </contour>
    </TTGlyph>
    <TTGlyph name="E" xMin="0" yMin="0" xMax="697" yMax="699">
      <contour>
        <pt x="97" y="43" on="1"/>
        <pt x="97" y="699" on="1"/>
        <pt x="588" y="699" on="1"/>
        <pt x="588" y="588" on="1"/>
        <pt x="215" y="588" on="1"/>
        <pt x="215" y="403" on="1"/>
        <pt x="550" y="403" on="1"/>
        <pt x="550" y="298" on="1"/>
        <pt x="215" y="298" on="1"/>
        <pt x="215" y="111" on="1"/>
        <pt x="600" y="111" on="1"/>
        <pt x="600" y="43" on="1"/>
        <pt x="697" y="43" on="1"/>
        <pt x="697" y="0" on="1"/>
        <pt x="0" y="0" on="1"/>
        <pt x="0" y="43" on="1"/>
      </contour>
    </TTGlyph>
    <TTGlyph name="Eacute" xMin="0" yMin="0" xMax="697" yMax="902">
      <contour>
        <pt x="97" y="43" on="1"/>
        <pt x="97" y="699" on="1"/>
        <pt x="588" y="699" on="1"/>
        <pt x="588" y="588" on="1"/>
        <pt x="215" y="588" on="1"/>
        <pt x="215" y="403" on="1"/>
        <pt x="550" y="403" on="1"/>
        <pt x="550" y="298" on="1"/>
        <pt x="215" y="298" on="1"/>
        <pt x="215" y="111" on="1"/>
        <pt x="600" y="111" on="1"/>
        <pt x="600" y="43" on="1"/>
        <pt x="697" y="43" on="1"/>
        <pt x="697" y="0" on="1"/>
        <pt x="0" y="0" on="1"/>
        <pt x="0" y="43" on="1"/>
      </contour>
      <contour>
        <pt x="396" y="757" on="1"/>
        <pt x="294" y="757" on="1"/>
        <pt x="400" y="902" on="1"/>
        <pt x="518" y="853" on="1"/>
      </contour>
    </TTGlyph>
    <TTGlyph name="Ecircumflex" xMin="0" yMin="0" xMax="697" yMax="891">
      <contour>
        <pt x="97" y="43" on="1"/>
        <pt x="97" y="699" on="1"/>
        <pt x="588" y="699" on="1"/>
        <pt x="588" y="588" on="1"/>
        <pt x="215" y="588" on="1"/>
        <pt x="215" y="403" on="1"/>
        <pt x="550" y="403" on="1"/>
        <pt x="550" y="298" on="1"/>
        <pt x="215" y="298" on="1"/>
        <pt x="215" y="111" on="1"/>
        <pt x="600" y="111" on="1"/>
        <pt x="600" y="43" on="1"/>
        <pt x="697" y="43" on="1"/>
        <pt x="697" y="0" on="1"/>
        <pt x="0" y="0" on="1"/>
        <pt x="0" y="43" on="1"/>
      </contour>
      <contour>
        <pt x="291" y="891" on="1"/>
        <pt x="395" y="891" on="1"/>
        <pt x="517" y="757" on="1"/>
        <pt x="420" y="757" on="1"/>
        <pt x="343" y="813" on="1"/>
        <pt x="266" y="757" on="1"/>
        <pt x="169" y="757" on="1"/>
      </contour>
    </TTGlyph>
    <TTGlyph name="Edieresis" xMin="0" yMin="0" xMax="697" yMax="876">
      <contour>
        <pt x="97" y="43" on="1"/>
        <pt x="97" y="699" on="1"/>
        <pt x="588" y="699" on="1"/>
        <pt x="588" y="588" on="1"/>
        <pt x="215" y="588" on="1"/>
        <pt x="215" y="403" on="1"/>
        <pt x="550" y="403" on="1"/>
        <pt x="550" y="298" on="1"/>
        <pt x="215" y="298" on="1"/>
        <pt x="215" y="111" on="1"/>
        <pt x="600" y="111" on="1"/>
        <pt x="600" y="43" on="1"/>
        <pt x="697" y="43" on="1"/>
        <pt x="697" y="0" on="1"/>
        <pt x="0" y="0" on="1"/>
        <pt x="0" y="43" on="1"/>
      </contour>
      <contour>
        <pt x="225" y="753" on="0"/>
        <pt x="190" y="789" on="0"/>
        <pt x="190" y="840" on="0"/>
        <pt x="226" y="876" on="0"/>
        <pt x="277" y="876" on="0"/>
        <pt x="313" y="841" on="0"/>
        <pt x="313" y="790" on="0"/>
        <pt x="276" y="753" on="0"/>
      </contour>
      <contour>
        <pt x="411" y="753" on="0"/>
        <pt x="375" y="789" on="0"/>
        <pt x="375" y="840" on="0"/>
        <pt x="411" y="876" on="0"/>
        <pt x="462" y="876" on="0"/>
        <pt x="498" y="841" on="0"/>
        <pt x="498" y="790" on="0"/>
        <pt x="462" y="753" on="0"/>
      </contour>
    </TTGlyph>
    <TTGlyph name="Egrave" xMin="0" yMin="0" xMax="697" yMax="902">
      <contour>
        <pt x="97" y="43" on="1"/>
        <pt x="97" y="699" on="1"/>
        <pt x="588" y="699" on="1"/>
        <pt x="588" y="588" on="1"/>
        <pt x="215" y="588" on="1"/>
        <pt x="215" y="403" on="1"/>
        <pt x="550" y="403" on="1"/>
        <pt x="550" y="298" on="1"/>
        <pt x="215" y="298" on="1"/>
        <pt x="215" y="111" on="1"/>
        <pt x="600" y="111" on="1"/>
        <pt x="600" y="43" on="1"/>
        <pt x="697" y="43" on="1"/>
        <pt x="697" y="0" on="1"/>
        <pt x="0" y="0" on="1"/>
        <pt x="0" y="43" on="1"/>
      </contour>
      <contour>
        <pt x="421" y="757" on="1"/>
        <pt x="319" y="757" on="1"/>
        <pt x="197" y="853" on="1"/>
        <pt x="315" y="902" on="1"/>
      </contour>
    </TTGlyph>
    <TTGlyph name="Eth" xMin="26" yMin="0" xMax="735" yMax="699">
      <contour>
        <pt x="26" y="294" on="1"/>
        <pt x="26" y="399" on="1"/>
        <pt x="105" y="399" on="1"/>
        <pt x="105" y="699" on="1"/>
        <pt x="345" y="699" on="1"/>
        <pt x="533" y="699" on="0"/>
        <pt x="735" y="516" on="0"/>
        <pt x="735" y="190" on="0"/>
        <pt x="539" y="0" on="0"/>
        <pt x="337" y="0" on="1"/>
        <pt x="105" y="0" on="1"/>
        <pt x="105" y="294" on="1"/>
      </contour>
      <contour>
        <pt x="616" y="350" on="1"/>
        <pt x="616" y="590" on="0"/>
        <pt x="341" y="590" on="1"/>
        <pt x="223" y="590" on="1"/>
        <pt x="223" y="399" on="1"/>
        <pt x="473" y="399" on="1"/>
        <pt x="473" y="294" on="1"/>
        <pt x="223" y="294" on="1"/>
        <pt x="223" y="111" on="1"/>
        <pt x="354" y="111" on="1"/>
        <pt x="481" y="111" on="0"/>
        <pt x="616" y="232" on="0"/>
      </contour>
    </TTGlyph>
    <TTGlyph name="F" xMin="0" yMin="0" xMax="604" yMax="699">
      <contour>
        <pt x="604" y="43" on="1"/>
        <pt x="604" y="0" on="1"/>
        <pt x="0" y="0" on="1"/>
        <pt x="0" y="43" on="1"/>
        <pt x="97" y="43" on="1"/>
        <pt x="97" y="699" on="1"/>
        <pt x="563" y="699" on="1"/>
        <pt x="562" y="589" on="1"/>
        <pt x="215" y="589" on="1"/>
        <pt x="215" y="397" on="1"/>
        <pt x="525" y="397" on="1"/>
        <pt x="525" y="288" on="1"/>
        <pt x="215" y="288" on="1"/>
        <pt x="215" y="43" on="1"/>
      </contour>
    </TTGlyph>
    <TTGlyph name="G" xMin="0" yMin="0" xMax="757" yMax="716">
      <contour>
        <pt x="757" y="43" on="1"/>
        <pt x="757" y="0" on="1"/>
        <pt x="0" y="0" on="1"/>
        <pt x="0" y="43" on="1"/>
        <pt x="242" y="43" on="1"/>
        <pt x="155" y="87" on="0"/>
        <pt x="52" y="257" on="0"/>
        <pt x="52" y="364" on="1"/>
        <pt x="52" y="517" on="0"/>
        <pt x="264" y="716" on="0"/>
        <pt x="567" y="716" on="0"/>
        <pt x="667" y="628" on="1"/>
        <pt x="604" y="538" on="1"/>
        <pt x="563" y="573" on="0"/>
        <pt x="480" y="600" on="0"/>
        <pt x="425" y="600" on="1"/>
        <pt x="318" y="600" on="0"/>
        <pt x="175" y="472" on="0"/>
        <pt x="175" y="250" on="0"/>
        <pt x="315" y="115" on="0"/>
        <pt x="514" y="115" on="0"/>
        <pt x="581" y="158" on="1"/>
        <pt x="581" y="350" on="1"/>
        <pt x="699" y="350" on="1"/>
        <pt x="699" y="111" on="1"/>
        <pt x="662" y="70" on="0"/>
        <pt x="609" y="43" on="1"/>
      </contour>
    </TTGlyph>
    <TTGlyph name="H" xMin="0" yMin="0" xMax="777" yMax="699">
      <contour>
        <pt x="777" y="43" on="1"/>
        <pt x="680" y="43" on="1"/>
        <pt x="680" y="699" on="1"/>
        <pt x="562" y="699" on="1"/>
        <pt x="562" y="396" on="1"/>
        <pt x="215" y="396" on="1"/>
        <pt x="215" y="699" on="1"/>
        <pt x="97" y="699" on="1"/>
        <pt x="97" y="0" on="1"/>
        <pt x="215" y="0" on="1"/>
        <pt x="215" y="286" on="1"/>
        <pt x="562" y="286" on="1"/>
        <pt x="562" y="0" on="1"/>
        <pt x="777" y="0" on="1"/>
      </contour>
      <contour>
        <pt x="97" y="43" on="1"/>
        <pt x="97" y="0" on="1"/>
        <pt x="0" y="0" on="1"/>
        <pt x="0" y="43" on="1"/>
      </contour>
    </TTGlyph>
    <TTGlyph name="I" xMin="0" yMin="0" xMax="312" yMax="699">
      <contour>
        <pt x="97" y="43" on="1"/>
        <pt x="97" y="699" on="1"/>
        <pt x="215" y="699" on="1"/>
        <pt x="215" y="43" on="1"/>
        <pt x="312" y="43" on="1"/>
        <pt x="312" y="0" on="1"/>
        <pt x="0" y="0" on="1"/>
        <pt x="0" y="43" on="1"/>
      </contour>
    </TTGlyph>
    <TTGlyph name="Iacute" xMin="0" yMin="0" xMax="327" yMax="902">
      <contour>
        <pt x="97" y="43" on="1"/>
        <pt x="97" y="699" on="1"/>
        <pt x="215" y="699" on="1"/>
        <pt x="215" y="43" on="1"/>
        <pt x="312" y="43" on="1"/>
        <pt x="312" y="0" on="1"/>
        <pt x="0" y="0" on="1"/>
        <pt x="0" y="43" on="1"/>
      </contour>
      <contour>
        <pt x="205" y="757" on="1"/>
        <pt x="103" y="757" on="1"/>
        <pt x="209" y="902" on="1"/>
        <pt x="327" y="853" on="1"/>
      </contour>
    </TTGlyph>
    <TTGlyph name="Icircumflex" xMin="-7" yMin="0" xMax="341" yMax="891">
      <contour>
        <pt x="97" y="43" on="1"/>
        <pt x="97" y="699" on="1"/>
        <pt x="215" y="699" on="1"/>
        <pt x="215" y="43" on="1"/>
        <pt x="312" y="43" on="1"/>
        <pt x="312" y="0" on="1"/>
        <pt x="0" y="0" on="1"/>
        <pt x="0" y="43" on="1"/>
      </contour>
      <contour>
        <pt x="115" y="891" on="1"/>
        <pt x="219" y="891" on="1"/>
        <pt x="341" y="757" on="1"/>
        <pt x="244" y="757" on="1"/>
        <pt x="167" y="813" on="1"/>
        <pt x="90" y="757" on="1"/>
        <pt x="-7" y="757" on="1"/>
      </contour>
    </TTGlyph>
    <TTGlyph name="Idieresis" xMin="0" yMin="0" xMax="312" yMax="876">
      <contour>
        <pt x="97" y="43" on="1"/>
        <pt x="97" y="699" on="1"/>
        <pt x="215" y="699" on="1"/>
        <pt x="215" y="43" on="1"/>
        <pt x="312" y="43" on="1"/>
        <pt x="312" y="0" on="1"/>
        <pt x="0" y="0" on="1"/>
        <pt x="0" y="43" on="1"/>
      </contour>
      <contour>
        <pt x="38" y="753" on="0"/>
        <pt x="3" y="789" on="0"/>
        <pt x="3" y="840" on="0"/>
        <pt x="38" y="876" on="0"/>
        <pt x="90" y="876" on="0"/>
        <pt x="126" y="841" on="0"/>
        <pt x="126" y="790" on="0"/>
        <pt x="90" y="753" on="0"/>
      </contour>
      <contour>
        <pt x="224" y="753" on="0"/>
        <pt x="188" y="789" on="0"/>
        <pt x="188" y="840" on="0"/>
        <pt x="224" y="876" on="0"/>
        <pt x="275" y="876" on="0"/>
        <pt x="311" y="841" on="0"/>
        <pt x="311" y="790" on="0"/>
        <pt x="274" y="753" on="0"/>
      </contour>
    </TTGlyph>
    <TTGlyph name="Igrave" xMin="-15" yMin="0" xMax="312" yMax="902">
      <contour>
        <pt x="97" y="43" on="1"/>
        <pt x="97" y="699" on="1"/>
        <pt x="215" y="699" on="1"/>
        <pt x="215" y="43" on="1"/>
        <pt x="312" y="43" on="1"/>
        <pt x="312" y="0" on="1"/>
        <pt x="0" y="0" on="1"/>
        <pt x="0" y="43" on="1"/>
      </contour>
      <contour>
        <pt x="209" y="757" on="1"/>
        <pt x="107" y="757" on="1"/>
        <pt x="-15" y="853" on="1"/>
        <pt x="103" y="902" on="1"/>
      </contour>
    </TTGlyph>
    <TTGlyph name="Itilde" xMin="-12" yMin="0" xMax="320" yMax="887">
      <contour>
        <pt x="97" y="43" on="1"/>
        <pt x="97" y="699" on="1"/>
        <pt x="215" y="699" on="1"/>
        <pt x="215" y="43" on="1"/>
        <pt x="312" y="43" on="1"/>
        <pt x="312" y="0" on="1"/>
        <pt x="0" y="0" on="1"/>
        <pt x="0" y="43" on="1"/>
      </contour>
      <contour>
        <pt x="228" y="754" on="1"/>
        <pt x="202" y="754" on="0"/>
        <pt x="109" y="801" on="0"/>
        <pt x="96" y="801" on="1"/>
        <pt x="63" y="801" on="0"/>
        <pt x="62" y="757" on="1"/>
        <pt x="-12" y="757" on="1"/>
        <pt x="-12" y="815" on="0"/>
        <pt x="35" y="887" on="0"/>
        <pt x="77" y="887" on="1"/>
        <pt x="104" y="887" on="0"/>
        <pt x="200" y="840" on="0"/>
        <pt x="215" y="840" on="1"/>
        <pt x="245" y="840" on="0"/>
        <pt x="245" y="884" on="1"/>
        <pt x="320" y="884" on="1"/>
        <pt x="317" y="754" on="0"/>
      </contour>
    </TTGlyph>
    <TTGlyph name="J" xMin="0" yMin="0" xMax="551" yMax="699">
      <contour>
        <pt x="551" y="43" on="1"/>
        <pt x="551" y="0" on="1"/>
        <pt x="0" y="0" on="1"/>
        <pt x="0" y="43" on="1"/>
        <pt x="110" y="43" on="1"/>
        <pt x="66" y="63" on="0"/>
        <pt x="31" y="100" on="1"/>
        <pt x="98" y="193" on="1"/>
        <pt x="166" y="128" on="0"/>
        <pt x="231" y="128" on="1"/>
        <pt x="277" y="128" on="0"/>
        <pt x="342" y="190" on="0"/>
        <pt x="342" y="252" on="1"/>
        <pt x="342" y="593" on="1"/>
        <pt x="120" y="593" on="1"/>
        <pt x="120" y="699" on="1"/>
        <pt x="460" y="699" on="1"/>
        <pt x="460" y="258" on="1"/>
        <pt x="460" y="102" on="0"/>
        <pt x="357" y="43" on="1"/>
      </contour>
    </TTGlyph>
    <TTGlyph name="Jcircumflex" xMin="0" yMin="0" xMax="551" yMax="891">
      <contour>
        <pt x="551" y="43" on="1"/>
        <pt x="551" y="0" on="1"/>
        <pt x="0" y="0" on="1"/>
        <pt x="0" y="43" on="1"/>
        <pt x="110" y="43" on="1"/>
        <pt x="66" y="63" on="0"/>
        <pt x="31" y="100" on="1"/>
        <pt x="98" y="193" on="1"/>
        <pt x="166" y="128" on="0"/>
        <pt x="231" y="128" on="1"/>
        <pt x="277" y="128" on="0"/>
        <pt x="342" y="190" on="0"/>
        <pt x="342" y="252" on="1"/>
        <pt x="342" y="593" on="1"/>
        <pt x="120" y="593" on="1"/>
        <pt x="120" y="699" on="1"/>
        <pt x="460" y="699" on="1"/>
        <pt x="460" y="258" on="1"/>
        <pt x="460" y="102" on="0"/>
        <pt x="357" y="43" on="1"/>
      </contour>
      <contour>
        <pt x="240" y="891" on="1"/>
        <pt x="344" y="891" on="1"/>
        <pt x="466" y="757" on="1"/>
        <pt x="369" y="757" on="1"/>
        <pt x="292" y="813" on="1"/>
        <pt x="215" y="757" on="1"/>
        <pt x="118" y="757" on="1"/>
      </contour>
    </TTGlyph>
    <TTGlyph name="K" xMin="0" yMin="0" xMax="755" yMax="699">
      <contour>
        <pt x="97" y="43" on="1"/>
        <pt x="97" y="699" on="1"/>
        <pt x="215" y="699" on="1"/>
        <pt x="215" y="358" on="1"/>
        <pt x="535" y="699" on="1"/>
        <pt x="685" y="699" on="1"/>
        <pt x="404" y="393" on="1"/>
        <pt x="658" y="42" on="1"/>
        <pt x="658" y="43" on="1"/>
        <pt x="755" y="43" on="1"/>
        <pt x="755" y="0" on="1"/>
        <pt x="549" y="0" on="1"/>
        <pt x="317" y="306" on="1"/>
        <pt x="215" y="196" on="1"/>
        <pt x="215" y="0" on="1"/>
        <pt x="0" y="0" on="1"/>
        <pt x="0" y="43" on="1"/>
      </contour>
    </TTGlyph>
    <TTGlyph name="L" xMin="0" yMin="0" xMax="631" yMax="699">
      <contour>
        <pt x="631" y="43" on="1"/>
        <pt x="631" y="0" on="1"/>
        <pt x="0" y="0" on="1"/>
        <pt x="0" y="43" on="1"/>
        <pt x="97" y="43" on="1"/>
        <pt x="97" y="699" on="1"/>
        <pt x="215" y="699" on="1"/>
        <pt x="215" y="112" on="1"/>
        <pt x="534" y="112" on="1"/>
        <pt x="534" y="43" on="1"/>
      </contour>
    </TTGlyph>
    <TTGlyph name="Lslash" xMin="12" yMin="0" xMax="643" yMax="699">
      <contour>
        <pt x="109" y="699" on="1"/>
        <pt x="227" y="699" on="1"/>
        <pt x="227" y="362" on="1"/>
        <pt x="446" y="430" on="1"/>
        <pt x="446" y="325" on="1"/>
        <pt x="227" y="257" on="1"/>
        <pt x="227" y="112" on="1"/>
        <pt x="546" y="112" on="1"/>
        <pt x="546" y="43" on="1"/>
        <pt x="643" y="43" on="1"/>
        <pt x="643" y="0" on="1"/>
        <pt x="12" y="0" on="1"/>
        <pt x="12" y="43" on="1"/>
        <pt x="109" y="43" on="1"/>
        <pt x="109" y="220" on="1"/>
        <pt x="30" y="196" on="1"/>
        <pt x="30" y="301" on="1"/>
        <pt x="109" y="325" on="1"/>
      </contour>
    </TTGlyph>
    <TTGlyph name="M" xMin="0" yMin="0" xMax="983" yMax="699">
      <contour>
        <pt x="983" y="43" on="1"/>
        <pt x="983" y="0" on="1"/>
        <pt x="768" y="0" on="1"/>
        <pt x="768" y="546" on="1"/>
        <pt x="524" y="61" on="1"/>
        <pt x="458" y="61" on="1"/>
        <pt x="215" y="546" on="1"/>
        <pt x="215" y="0" on="1"/>
        <pt x="0" y="0" on="1"/>
        <pt x="0" y="43" on="1"/>
        <pt x="97" y="43" on="1"/>
        <pt x="97" y="699" on="1"/>
        <pt x="281" y="699" on="1"/>
        <pt x="492" y="260" on="1"/>
        <pt x="703" y="699" on="1"/>
        <pt x="886" y="699" on="1"/>
        <pt x="886" y="43" on="1"/>
      </contour>
    </TTGlyph>
    <TTGlyph name="N" xMin="0" yMin="0" xMax="836" yMax="699">
      <contour>
        <pt x="97" y="43" on="1"/>
        <pt x="97" y="699" on="1"/>
        <pt x="215" y="699" on="1"/>
        <pt x="621" y="177" on="1"/>
        <pt x="621" y="699" on="1"/>
        <pt x="739" y="699" on="1"/>
        <pt x="739" y="43" on="1"/>
        <pt x="836" y="43" on="1"/>
        <pt x="836" y="0" on="1"/>
        <pt x="611" y="0" on="1"/>
        <pt x="215" y="510" on="1"/>
        <pt x="215" y="0" on="1"/>
        <pt x="0" y="0" on="1"/>
        <pt x="0" y="43" on="1"/>
      </contour>
    </TTGlyph>
    <TTGlyph name="Nacute" xMin="0" yMin="0" xMax="836" yMax="932">
      <contour>
        <pt x="97" y="43" on="1"/>
        <pt x="97" y="699" on="1"/>
        <pt x="215" y="699" on="1"/>
        <pt x="621" y="177" on="1"/>
        <pt x="621" y="699" on="1"/>
        <pt x="739" y="699" on="1"/>
        <pt x="739" y="43" on="1"/>
        <pt x="836" y="43" on="1"/>
        <pt x="836" y="0" on="1"/>
        <pt x="611" y="0" on="1"/>
        <pt x="215" y="510" on="1"/>
        <pt x="215" y="0" on="1"/>
        <pt x="0" y="0" on="1"/>
        <pt x="0" y="43" on="1"/>
      </contour>
      <contour>
        <pt x="471" y="787" on="1"/>
        <pt x="369" y="787" on="1"/>
        <pt x="475" y="932" on="1"/>
        <pt x="593" y="883" on="1"/>
      </contour>
    </TTGlyph>
    <TTGlyph name="Ntilde" xMin="0" yMin="0" xMax="836" yMax="887">
      <contour>
        <pt x="97" y="43" on="1"/>
        <pt x="97" y="699" on="1"/>
        <pt x="215" y="699" on="1"/>
        <pt x="621" y="177" on="1"/>
        <pt x="621" y="699" on="1"/>
        <pt x="739" y="699" on="1"/>
        <pt x="739" y="43" on="1"/>
        <pt x="836" y="43" on="1"/>
        <pt x="836" y="0" on="1"/>
        <pt x="611" y="0" on="1"/>
        <pt x="215" y="510" on="1"/>
        <pt x="215" y="0" on="1"/>
        <pt x="0" y="0" on="1"/>
        <pt x="0" y="43" on="1"/>
      </contour>
      <contour>
        <pt x="489" y="754" on="1"/>
        <pt x="463" y="754" on="0"/>
        <pt x="370" y="801" on="0"/>
        <pt x="357" y="801" on="1"/>
        <pt x="324" y="801" on="0"/>
        <pt x="323" y="757" on="1"/>
        <pt x="249" y="757" on="1"/>
        <pt x="249" y="815" on="0"/>
        <pt x="296" y="887" on="0"/>
        <pt x="338" y="887" on="1"/>
        <pt x="365" y="887" on="0"/>
        <pt x="461" y="840" on="0"/>
        <pt x="476" y="840" on="1"/>
        <pt x="506" y="840" on="0"/>
        <pt x="506" y="884" on="1"/>
        <pt x="581" y="884" on="1"/>
        <pt x="578" y="754" on="0"/>
      </contour>
    </TTGlyph>
    <TTGlyph name="O" xMin="0" yMin="0" xMax="840" yMax="716">
      <contour>
        <pt x="840" y="43" on="1"/>
        <pt x="840" y="0" on="1"/>
        <pt x="0" y="0" on="1"/>
        <pt x="0" y="43" on="1"/>
        <pt x="229" y="43" on="1"/>
        <pt x="147" y="90" on="0"/>
        <pt x="52" y="254" on="0"/>
        <pt x="52" y="355" on="1"/>
        <pt x="52" y="509" on="0"/>
        <pt x="264" y="716" on="0"/>
        <pt x="576" y="716" on="0"/>
        <pt x="788" y="509" on="0"/>
        <pt x="788" y="355" on="1"/>
        <pt x="788" y="255" on="0"/>
        <pt x="693" y="89" on="0"/>
        <pt x="611" y="43" on="1"/>
      </contour>
      <contour>
        <pt x="524" y="608" on="0"/>
        <pt x="316" y="608" on="0"/>
        <pt x="173" y="460" on="0"/>
        <pt x="173" y="249" on="0"/>
        <pt x="316" y="101" on="0"/>
        <pt x="524" y="101" on="0"/>
        <pt x="667" y="249" on="0"/>
        <pt x="667" y="460" on="0"/>
      </contour>
    </TTGlyph>
    <TTGlyph name="OE" xMin="0" yMin="0" xMax="1109" yMax="699">
      <contour>
        <pt x="1109" y="43" on="1"/>
        <pt x="1109" y="0" on="1"/>
        <pt x="0" y="0" on="1"/>
        <pt x="0" y="43" on="1"/>
        <pt x="233" y="43" on="1"/>
        <pt x="150" y="87" on="0"/>
        <pt x="53" y="249" on="0"/>
        <pt x="53" y="350" on="1"/>
        <pt x="53" y="499" on="0"/>
        <pt x="258" y="699" on="0"/>
        <pt x="409" y="699" on="1"/>
        <pt x="1000" y="699" on="1"/>
        <pt x="1000" y="588" on="1"/>
        <pt x="627" y="588" on="1"/>
        <pt x="627" y="403" on="1"/>
        <pt x="962" y="403" on="1"/>
        <pt x="962" y="298" on="1"/>
        <pt x="627" y="298" on="1"/>
        <pt x="627" y="111" on="1"/>
        <pt x="1012" y="111" on="1"/>
        <pt x="1012" y="43" on="1"/>
      </contour>
      <contour>
        <pt x="181" y="452" on="0"/>
        <pt x="181" y="248" on="0"/>
        <pt x="320" y="103" on="0"/>
        <pt x="420" y="103" on="1"/>
        <pt x="509" y="103" on="1"/>
        <pt x="509" y="596" on="1"/>
        <pt x="420" y="596" on="1"/>
        <pt x="319" y="596" on="0"/>
      </contour>
    </TTGlyph>
    <TTGlyph name="Oacute" xMin="0" yMin="0" xMax="840" yMax="902">
      <contour>
        <pt x="840" y="43" on="1"/>
        <pt x="840" y="0" on="1"/>
        <pt x="0" y="0" on="1"/>
        <pt x="0" y="43" on="1"/>
        <pt x="229" y="43" on="1"/>
        <pt x="147" y="90" on="0"/>
        <pt x="52" y="254" on="0"/>
        <pt x="52" y="355" on="1"/>
        <pt x="52" y="509" on="0"/>
        <pt x="264" y="716" on="0"/>
        <pt x="576" y="716" on="0"/>
        <pt x="788" y="509" on="0"/>
        <pt x="788" y="355" on="1"/>
        <pt x="788" y="255" on="0"/>
        <pt x="693" y="89" on="0"/>
        <pt x="611" y="43" on="1"/>
      </contour>
      <contour>
        <pt x="524" y="608" on="0"/>
        <pt x="316" y="608" on="0"/>
        <pt x="173" y="460" on="0"/>
        <pt x="173" y="249" on="0"/>
        <pt x="316" y="101" on="0"/>
        <pt x="524" y="101" on="0"/>
        <pt x="667" y="249" on="0"/>
        <pt x="667" y="460" on="0"/>
      </contour>
      <contour>
        <pt x="438" y="757" on="1"/>
        <pt x="336" y="757" on="1"/>
        <pt x="442" y="902" on="1"/>
        <pt x="560" y="853" on="1"/>
      </contour>
    </TTGlyph>
    <TTGlyph name="Ocircumflex" xMin="0" yMin="0" xMax="840" yMax="891">
      <contour>
        <pt x="840" y="43" on="1"/>
        <pt x="840" y="0" on="1"/>
        <pt x="0" y="0" on="1"/>
        <pt x="0" y="43" on="1"/>
        <pt x="229" y="43" on="1"/>
        <pt x="147" y="90" on="0"/>
        <pt x="52" y="254" on="0"/>
        <pt x="52" y="355" on="1"/>
        <pt x="52" y="509" on="0"/>
        <pt x="264" y="716" on="0"/>
        <pt x="576" y="716" on="0"/>
        <pt x="788" y="509" on="0"/>
        <pt x="788" y="355" on="1"/>
        <pt x="788" y="255" on="0"/>
        <pt x="693" y="89" on="0"/>
        <pt x="611" y="43" on="1"/>
      </contour>
      <contour>
        <pt x="524" y="608" on="0"/>
        <pt x="316" y="608" on="0"/>
        <pt x="173" y="460" on="0"/>
        <pt x="173" y="249" on="0"/>
        <pt x="316" y="101" on="0"/>
        <pt x="524" y="101" on="0"/>
        <pt x="667" y="249" on="0"/>
        <pt x="667" y="460" on="0"/>
      </contour>
      <contour>
        <pt x="366" y="891" on="1"/>
        <pt x="470" y="891" on="1"/>
        <pt x="592" y="757" on="1"/>
        <pt x="495" y="757" on="1"/>
        <pt x="418" y="813" on="1"/>
        <pt x="341" y="757" on="1"/>
        <pt x="244" y="757" on="1"/>
      </contour>
    </TTGlyph>
    <TTGlyph name="Odieresis" xMin="0" yMin="0" xMax="840" yMax="876">
      <contour>
        <pt x="840" y="43" on="1"/>
        <pt x="840" y="0" on="1"/>
        <pt x="0" y="0" on="1"/>
        <pt x="0" y="43" on="1"/>
        <pt x="229" y="43" on="1"/>
        <pt x="147" y="90" on="0"/>
        <pt x="52" y="254" on="0"/>
        <pt x="52" y="355" on="1"/>
        <pt x="52" y="509" on="0"/>
        <pt x="264" y="716" on="0"/>
        <pt x="576" y="716" on="0"/>
        <pt x="788" y="509" on="0"/>
        <pt x="788" y="355" on="1"/>
        <pt x="788" y="255" on="0"/>
        <pt x="693" y="89" on="0"/>
        <pt x="611" y="43" on="1"/>
      </contour>
      <contour>
        <pt x="524" y="608" on="0"/>
        <pt x="316" y="608" on="0"/>
        <pt x="173" y="460" on="0"/>
        <pt x="173" y="249" on="0"/>
        <pt x="316" y="101" on="0"/>
        <pt x="524" y="101" on="0"/>
        <pt x="667" y="249" on="0"/>
        <pt x="667" y="460" on="0"/>
      </contour>
      <contour>
        <pt x="296" y="753" on="0"/>
        <pt x="261" y="789" on="0"/>
        <pt x="261" y="840" on="0"/>
        <pt x="296" y="876" on="0"/>
        <pt x="348" y="876" on="0"/>
        <pt x="384" y="841" on="0"/>
        <pt x="384" y="790" on="0"/>
        <pt x="348" y="753" on="0"/>
      </contour>
      <contour>
        <pt x="482" y="753" on="0"/>
        <pt x="446" y="789" on="0"/>
        <pt x="446" y="840" on="0"/>
        <pt x="482" y="876" on="0"/>
        <pt x="533" y="876" on="0"/>
        <pt x="569" y="841" on="0"/>
        <pt x="569" y="790" on="0"/>
        <pt x="532" y="753" on="0"/>
      </contour>
    </TTGlyph>
    <TTGlyph name="Ograve" xMin="0" yMin="0" xMax="840" yMax="902">
      <contour>
        <pt x="496" y="757" on="1"/>
        <pt x="394" y="757" on="1"/>
        <pt x="272" y="853" on="1"/>
        <pt x="390" y="902" on="1"/>
      </contour>
      <contour>
        <pt x="840" y="43" on="1"/>
        <pt x="840" y="0" on="1"/>
        <pt x="0" y="0" on="1"/>
        <pt x="0" y="43" on="1"/>
        <pt x="229" y="43" on="1"/>
        <pt x="147" y="90" on="0"/>
        <pt x="52" y="254" on="0"/>
        <pt x="52" y="355" on="1"/>
        <pt x="52" y="509" on="0"/>
        <pt x="264" y="716" on="0"/>
        <pt x="576" y="716" on="0"/>
        <pt x="788" y="509" on="0"/>
        <pt x="788" y="355" on="1"/>
        <pt x="788" y="255" on="0"/>
        <pt x="693" y="89" on="0"/>
        <pt x="611" y="43" on="1"/>
      </contour>
      <contour>
        <pt x="524" y="608" on="0"/>
        <pt x="316" y="608" on="0"/>
        <pt x="173" y="460" on="0"/>
        <pt x="173" y="249" on="0"/>
        <pt x="316" y="101" on="0"/>
        <pt x="524" y="101" on="0"/>
        <pt x="667" y="249" on="0"/>
        <pt x="667" y="460" on="0"/>
      </contour>
    </TTGlyph>
    <TTGlyph name="Oslash" xMin="0" yMin="0" xMax="840" yMax="716">
      <contour>
        <pt x="840" y="43" on="1"/>
        <pt x="840" y="0" on="1"/>
        <pt x="0" y="0" on="1"/>
        <pt x="0" y="43" on="1"/>
        <pt x="229" y="43" on="1"/>
        <pt x="147" y="90" on="0"/>
        <pt x="52" y="254" on="0"/>
        <pt x="52" y="355" on="1"/>
        <pt x="52" y="509" on="0"/>
        <pt x="264" y="716" on="0"/>
        <pt x="576" y="716" on="0"/>
        <pt x="788" y="509" on="0"/>
        <pt x="788" y="355" on="1"/>
        <pt x="788" y="255" on="0"/>
        <pt x="693" y="89" on="0"/>
        <pt x="611" y="43" on="1"/>
      </contour>
      <contour>
        <pt x="524" y="608" on="0"/>
        <pt x="316" y="608" on="0"/>
        <pt x="173" y="460" on="0"/>
        <pt x="173" y="249" on="0"/>
        <pt x="316" y="101" on="0"/>
        <pt x="524" y="101" on="0"/>
        <pt x="667" y="249" on="0"/>
        <pt x="667" y="460" on="0"/>
      </contour>
    </TTGlyph>
    <TTGlyph name="Otilde" xMin="0" yMin="0" xMax="840" yMax="887">
      <contour>
        <pt x="840" y="43" on="1"/>
        <pt x="840" y="0" on="1"/>
        <pt x="0" y="0" on="1"/>
        <pt x="0" y="43" on="1"/>
        <pt x="229" y="43" on="1"/>
        <pt x="147" y="90" on="0"/>
        <pt x="52" y="254" on="0"/>
        <pt x="52" y="355" on="1"/>
        <pt x="52" y="509" on="0"/>
        <pt x="264" y="716" on="0"/>
        <pt x="576" y="716" on="0"/>
        <pt x="788" y="509" on="0"/>
        <pt x="788" y="355" on="1"/>
        <pt x="788" y="255" on="0"/>
        <pt x="693" y="89" on="0"/>
        <pt x="611" y="43" on="1"/>
      </contour>
      <contour>
        <pt x="524" y="608" on="0"/>
        <pt x="316" y="608" on="0"/>
        <pt x="173" y="460" on="0"/>
        <pt x="173" y="249" on="0"/>
        <pt x="316" y="101" on="0"/>
        <pt x="524" y="101" on="0"/>
        <pt x="667" y="249" on="0"/>
        <pt x="667" y="460" on="0"/>
      </contour>
      <contour>
        <pt x="492" y="754" on="1"/>
        <pt x="466" y="754" on="0"/>
        <pt x="373" y="801" on="0"/>
        <pt x="360" y="801" on="1"/>
        <pt x="327" y="801" on="0"/>
        <pt x="326" y="757" on="1"/>
        <pt x="252" y="757" on="1"/>
        <pt x="252" y="815" on="0"/>
        <pt x="299" y="887" on="0"/>
        <pt x="341" y="887" on="1"/>
        <pt x="368" y="887" on="0"/>
        <pt x="464" y="840" on="0"/>
        <pt x="479" y="840" on="1"/>
        <pt x="509" y="840" on="0"/>
        <pt x="509" y="884" on="1"/>
        <pt x="584" y="884" on="1"/>
        <pt x="581" y="754" on="0"/>
      </contour>
    </TTGlyph>
    <TTGlyph name="P" xMin="0" yMin="0" xMax="684" yMax="699">
      <contour>
        <pt x="684" y="43" on="1"/>
        <pt x="684" y="0" on="1"/>
        <pt x="0" y="0" on="1"/>
        <pt x="0" y="43" on="1"/>
        <pt x="97" y="43" on="1"/>
        <pt x="97" y="699" on="1"/>
        <pt x="337" y="699" on="1"/>
        <pt x="496" y="699" on="0"/>
        <pt x="642" y="577" on="0"/>
        <pt x="642" y="323" on="0"/>
        <pt x="493" y="205" on="0"/>
        <pt x="339" y="205" on="1"/>
        <pt x="215" y="205" on="1"/>
        <pt x="215" y="43" on="1"/>
      </contour>
      <contour>
        <pt x="450" y="312" on="0"/>
        <pt x="521" y="387" on="0"/>
        <pt x="521" y="532" on="0"/>
        <pt x="431" y="592" on="0"/>
        <pt x="335" y="592" on="1"/>
        <pt x="215" y="592" on="1"/>
        <pt x="215" y="312" on="1"/>
        <pt x="352" y="312" on="1"/>
      </contour>
    </TTGlyph>
    <TTGlyph name="Q" xMin="0" yMin="-122" xMax="840" yMax="716">
      <contour>
        <pt x="840" y="43" on="1"/>
        <pt x="840" y="0" on="1"/>
        <pt x="479" y="0" on="1"/>
        <pt x="479" y="-122" on="1"/>
        <pt x="361" y="-122" on="1"/>
        <pt x="361" y="0" on="1"/>
        <pt x="0" y="0" on="1"/>
        <pt x="0" y="43" on="1"/>
        <pt x="228" y="43" on="1"/>
        <pt x="147" y="91" on="0"/>
        <pt x="52" y="254" on="0"/>
        <pt x="52" y="355" on="1"/>
        <pt x="52" y="509" on="0"/>
        <pt x="264" y="716" on="0"/>
        <pt x="576" y="716" on="0"/>
        <pt x="788" y="509" on="0"/>
        <pt x="788" y="355" on="1"/>
        <pt x="788" y="255" on="0"/>
        <pt x="693" y="90" on="0"/>
        <pt x="611" y="43" on="1"/>
      </contour>
      <contour>
        <pt x="361" y="220" on="1"/>
        <pt x="479" y="220" on="1"/>
        <pt x="479" y="108" on="1"/>
        <pt x="562" y="128" on="0"/>
        <pt x="667" y="265" on="0"/>
        <pt x="667" y="460" on="0"/>
        <pt x="524" y="608" on="0"/>
        <pt x="316" y="608" on="0"/>
        <pt x="173" y="460" on="0"/>
        <pt x="173" y="265" on="0"/>
        <pt x="278" y="128" on="0"/>
        <pt x="361" y="108" on="1"/>
      </contour>
    </TTGlyph>
    <TTGlyph name="R" xMin="0" yMin="0" xMax="753" yMax="699">
      <contour>
        <pt x="753" y="43" on="1"/>
        <pt x="753" y="0" on="1"/>
        <pt x="537" y="0" on="1"/>
        <pt x="370" y="235" on="1"/>
        <pt x="215" y="235" on="1"/>
        <pt x="215" y="0" on="1"/>
        <pt x="0" y="0" on="1"/>
        <pt x="0" y="43" on="1"/>
        <pt x="97" y="43" on="1"/>
        <pt x="97" y="699" on="1"/>
        <pt x="357" y="699" on="1"/>
        <pt x="517" y="699" on="0"/>
        <pt x="655" y="591" on="0"/>
        <pt x="655" y="472" on="1"/>
        <pt x="655" y="299" on="0"/>
        <pt x="504" y="254" on="1"/>
        <pt x="656" y="43" on="1"/>
      </contour>
      <contour>
        <pt x="462" y="342" on="0"/>
        <pt x="534" y="404" on="0"/>
        <pt x="534" y="541" on="0"/>
        <pt x="460" y="592" on="0"/>
        <pt x="365" y="592" on="1"/>
        <pt x="215" y="592" on="1"/>
        <pt x="215" y="342" on="1"/>
        <pt x="362" y="342" on="1"/>
      </contour>
    </TTGlyph>
    <TTGlyph name="Racute" xMin="0" yMin="0" xMax="753" yMax="932">
      <contour>
        <pt x="753" y="43" on="1"/>
        <pt x="753" y="0" on="1"/>
        <pt x="537" y="0" on="1"/>
        <pt x="370" y="235" on="1"/>
        <pt x="215" y="235" on="1"/>
        <pt x="215" y="0" on="1"/>
        <pt x="0" y="0" on="1"/>
        <pt x="0" y="43" on="1"/>
        <pt x="97" y="43" on="1"/>
        <pt x="97" y="699" on="1"/>
        <pt x="357" y="699" on="1"/>
        <pt x="517" y="699" on="0"/>
        <pt x="655" y="591" on="0"/>
        <pt x="655" y="472" on="1"/>
        <pt x="655" y="299" on="0"/>
        <pt x="504" y="254" on="1"/>
        <pt x="656" y="43" on="1"/>
      </contour>
      <contour>
        <pt x="462" y="342" on="0"/>
        <pt x="534" y="404" on="0"/>
        <pt x="534" y="541" on="0"/>
        <pt x="460" y="592" on="0"/>
        <pt x="365" y="592" on="1"/>
        <pt x="215" y="592" on="1"/>
        <pt x="215" y="342" on="1"/>
        <pt x="362" y="342" on="1"/>
      </contour>
      <contour>
        <pt x="372" y="787" on="1"/>
        <pt x="270" y="787" on="1"/>
        <pt x="376" y="932" on="1"/>
        <pt x="494" y="883" on="1"/>
      </contour>
    </TTGlyph>
    <TTGlyph name="Rcaron" xMin="0" yMin="0" xMax="753" yMax="894">
      <contour>
        <pt x="370" y="235" on="1"/>
        <pt x="215" y="235" on="1"/>
        <pt x="215" y="0" on="1"/>
        <pt x="0" y="0" on="1"/>
        <pt x="0" y="43" on="1"/>
        <pt x="97" y="43" on="1"/>
        <pt x="97" y="699" on="1"/>
        <pt x="357" y="699" on="1"/>
        <pt x="517" y="699" on="0"/>
        <pt x="655" y="591" on="0"/>
        <pt x="655" y="472" on="1"/>
        <pt x="655" y="299" on="0"/>
        <pt x="504" y="254" on="1"/>
        <pt x="656" y="43" on="1"/>
        <pt x="753" y="43" on="1"/>
        <pt x="753" y="0" on="1"/>
        <pt x="537" y="0" on="1"/>
      </contour>
      <contour>
        <pt x="462" y="342" on="0"/>
        <pt x="534" y="404" on="0"/>
        <pt x="534" y="541" on="0"/>
        <pt x="460" y="592" on="0"/>
        <pt x="365" y="592" on="1"/>
        <pt x="215" y="592" on="1"/>
        <pt x="215" y="342" on="1"/>
        <pt x="362" y="342" on="1"/>
      </contour>
      <contour>
        <pt x="396" y="760" on="1"/>
        <pt x="292" y="760" on="1"/>
        <pt x="170" y="894" on="1"/>
        <pt x="267" y="894" on="1"/>
        <pt x="344" y="838" on="1"/>
        <pt x="421" y="894" on="1"/>
        <pt x="518" y="894" on="1"/>
      </contour>
    </TTGlyph>
    <TTGlyph name="Rcommaaccent" xMin="0" yMin="-250" xMax="753" yMax="699">
      <contour>
        <pt x="358" y="235" on="1"/>
        <pt x="358" y="-55" on="1"/>
        <pt x="437" y="-55" on="1"/>
        <pt x="357" y="-250" on="1"/>
        <pt x="261" y="-250" on="1"/>
        <pt x="311" y="-100" on="1"/>
        <pt x="311" y="235" on="1"/>
        <pt x="215" y="235" on="1"/>
        <pt x="215" y="0" on="1"/>
        <pt x="0" y="0" on="1"/>
        <pt x="0" y="43" on="1"/>
        <pt x="97" y="43" on="1"/>
        <pt x="97" y="699" on="1"/>
        <pt x="357" y="699" on="1"/>
        <pt x="517" y="699" on="0"/>
        <pt x="655" y="591" on="0"/>
        <pt x="655" y="472" on="1"/>
        <pt x="655" y="299" on="0"/>
        <pt x="504" y="254" on="1"/>
        <pt x="656" y="43" on="1"/>
        <pt x="753" y="43" on="1"/>
        <pt x="753" y="0" on="1"/>
        <pt x="537" y="0" on="1"/>
        <pt x="370" y="235" on="1"/>
      </contour>
      <contour>
        <pt x="462" y="342" on="0"/>
        <pt x="534" y="404" on="0"/>
        <pt x="534" y="541" on="0"/>
        <pt x="460" y="592" on="0"/>
        <pt x="365" y="592" on="1"/>
        <pt x="215" y="592" on="1"/>
        <pt x="215" y="342" on="1"/>
        <pt x="362" y="342" on="1"/>
      </contour>
    </TTGlyph>
    <TTGlyph name="S" xMin="0" yMin="0" xMax="630" yMax="716">
      <contour>
        <pt x="630" y="43" on="1"/>
        <pt x="630" y="0" on="1"/>
        <pt x="0" y="0" on="1"/>
        <pt x="0" y="43" on="1"/>
        <pt x="128" y="43" on="1"/>
        <pt x="80" y="68" on="0"/>
        <pt x="40" y="105" on="1"/>
        <pt x="114" y="194" on="1"/>
        <pt x="220" y="102" on="0"/>
        <pt x="334" y="102" on="1"/>
        <pt x="391" y="102" on="0"/>
        <pt x="458" y="151" on="0"/>
        <pt x="458" y="232" on="0"/>
        <pt x="395" y="277" on="0"/>
        <pt x="241" y="314" on="0"/>
        <pt x="161" y="345" on="0"/>
        <pt x="130" y="370" on="1"/>
        <pt x="68" y="417" on="0"/>
        <pt x="68" y="611" on="0"/>
        <pt x="209" y="716" on="0"/>
        <pt x="313" y="716" on="1"/>
        <pt x="380" y="716" on="0"/>
        <pt x="512" y="672" on="0"/>
        <pt x="560" y="632" on="1"/>
        <pt x="497" y="543" on="1"/>
        <pt x="466" y="571" on="0"/>
        <pt x="360" y="607" on="0"/>
        <pt x="257" y="607" on="0"/>
        <pt x="191" y="565" on="0"/>
        <pt x="191" y="480" on="0"/>
        <pt x="257" y="435" on="0"/>
        <pt x="472" y="383" on="0"/>
        <pt x="581" y="289" on="0"/>
        <pt x="581" y="204" on="1"/>
        <pt x="581" y="101" on="0"/>
        <pt x="505" y="43" on="1"/>
      </contour>
    </TTGlyph>
    <TTGlyph name="Scaron" xMin="0" yMin="0" xMax="633" yMax="894">
      <contour>
        <pt x="633" y="43" on="1"/>
        <pt x="633" y="0" on="1"/>
        <pt x="0" y="0" on="1"/>
        <pt x="0" y="43" on="1"/>
        <pt x="129" y="43" on="1"/>
        <pt x="78" y="69" on="0"/>
        <pt x="40" y="106" on="1"/>
        <pt x="115" y="195" on="1"/>
        <pt x="221" y="103" on="0"/>
        <pt x="336" y="103" on="1"/>
        <pt x="393" y="103" on="0"/>
        <pt x="461" y="152" on="0"/>
        <pt x="461" y="233" on="0"/>
        <pt x="397" y="279" on="0"/>
        <pt x="181" y="331" on="0"/>
        <pt x="68" y="421" on="0"/>
        <pt x="68" y="615" on="0"/>
        <pt x="210" y="720" on="0"/>
        <pt x="315" y="720" on="1"/>
        <pt x="382" y="720" on="0"/>
        <pt x="515" y="676" on="0"/>
        <pt x="563" y="636" on="1"/>
        <pt x="500" y="546" on="1"/>
        <pt x="469" y="574" on="0"/>
        <pt x="362" y="610" on="0"/>
        <pt x="258" y="610" on="0"/>
        <pt x="192" y="568" on="0"/>
        <pt x="192" y="483" on="0"/>
        <pt x="259" y="437" on="0"/>
        <pt x="475" y="385" on="0"/>
        <pt x="584" y="290" on="0"/>
        <pt x="584" y="205" on="1"/>
        <pt x="584" y="103" on="0"/>
        <pt x="508" y="43" on="1"/>
      </contour>
      <contour>
        <pt x="368" y="760" on="1"/>
        <pt x="264" y="760" on="1"/>
        <pt x="142" y="894" on="1"/>
        <pt x="239" y="894" on="1"/>
        <pt x="316" y="838" on="1"/>
        <pt x="393" y="894" on="1"/>
        <pt x="490" y="894" on="1"/>
      </contour>
    </TTGlyph>
    <TTGlyph name="T" xMin="0" yMin="0" xMax="604" yMax="699">
      <contour>
        <pt x="604" y="43" on="1"/>
        <pt x="604" y="0" on="1"/>
        <pt x="0" y="0" on="1"/>
        <pt x="0" y="43" on="1"/>
        <pt x="243" y="43" on="1"/>
        <pt x="243" y="591" on="1"/>
        <pt x="31" y="591" on="1"/>
        <pt x="31" y="699" on="1"/>
        <pt x="573" y="699" on="1"/>
        <pt x="573" y="591" on="1"/>
        <pt x="361" y="591" on="1"/>
        <pt x="361" y="43" on="1"/>
      </contour>
    </TTGlyph>
    <TTGlyph name="Thorn" xMin="-100" yMin="0" xMax="787" yMax="699">
      <contour>
        <pt x="787" y="43" on="1"/>
        <pt x="787" y="0" on="1"/>
        <pt x="-100" y="0" on="1"/>
        <pt x="-100" y="43" on="1"/>
        <pt x="97" y="43" on="1"/>
        <pt x="97" y="699" on="1"/>
        <pt x="215" y="699" on="1"/>
        <pt x="215" y="611" on="1"/>
        <pt x="327" y="611" on="1"/>
        <pt x="642" y="611" on="0"/>
        <pt x="642" y="369" on="1"/>
        <pt x="642" y="236" on="0"/>
        <pt x="484" y="117" on="0"/>
        <pt x="329" y="117" on="1"/>
        <pt x="215" y="117" on="1"/>
        <pt x="215" y="43" on="1"/>
      </contour>
      <contour>
        <pt x="441" y="224" on="0"/>
        <pt x="521" y="301" on="0"/>
        <pt x="521" y="443" on="0"/>
        <pt x="423" y="504" on="0"/>
        <pt x="325" y="504" on="1"/>
        <pt x="215" y="504" on="1"/>
        <pt x="215" y="224" on="1"/>
        <pt x="342" y="224" on="1"/>
      </contour>
    </TTGlyph>
    <TTGlyph name="U" xMin="0" yMin="0" xMax="768" yMax="699">
      <contour>
        <pt x="768" y="43" on="1"/>
        <pt x="768" y="0" on="1"/>
        <pt x="0" y="0" on="1"/>
        <pt x="0" y="43" on="1"/>
        <pt x="207" y="43" on="1"/>
        <pt x="88" y="126" on="0"/>
        <pt x="88" y="306" on="1"/>
        <pt x="88" y="699" on="1"/>
        <pt x="206" y="699" on="1"/>
        <pt x="206" y="311" on="1"/>
        <pt x="206" y="215" on="0"/>
        <pt x="302" y="103" on="0"/>
        <pt x="466" y="103" on="0"/>
        <pt x="562" y="215" on="0"/>
        <pt x="562" y="311" on="1"/>
        <pt x="562" y="699" on="1"/>
        <pt x="680" y="699" on="1"/>
        <pt x="680" y="306" on="1"/>
        <pt x="680" y="125" on="0"/>
        <pt x="560" y="43" on="1"/>
      </contour>
    </TTGlyph>
    <TTGlyph name="Uacute" xMin="0" yMin="0" xMax="768" yMax="903">
      <contour>
        <pt x="768" y="43" on="1"/>
        <pt x="768" y="0" on="1"/>
        <pt x="0" y="0" on="1"/>
        <pt x="0" y="43" on="1"/>
        <pt x="207" y="43" on="1"/>
        <pt x="88" y="126" on="0"/>
        <pt x="88" y="306" on="1"/>
        <pt x="88" y="699" on="1"/>
        <pt x="206" y="699" on="1"/>
        <pt x="206" y="311" on="1"/>
        <pt x="206" y="215" on="0"/>
        <pt x="302" y="103" on="0"/>
        <pt x="466" y="103" on="0"/>
        <pt x="562" y="215" on="0"/>
        <pt x="562" y="311" on="1"/>
        <pt x="562" y="699" on="1"/>
        <pt x="680" y="699" on="1"/>
        <pt x="680" y="306" on="1"/>
        <pt x="680" y="125" on="0"/>
        <pt x="560" y="43" on="1"/>
      </contour>
      <contour>
        <pt x="416" y="758" on="1"/>
        <pt x="314" y="758" on="1"/>
        <pt x="420" y="903" on="1"/>
        <pt x="538" y="854" on="1"/>
      </contour>
    </TTGlyph>
    <TTGlyph name="Ucircumflex" xMin="0" yMin="0" xMax="768" yMax="891">
      <contour>
        <pt x="768" y="43" on="1"/>
        <pt x="768" y="0" on="1"/>
        <pt x="0" y="0" on="1"/>
        <pt x="0" y="43" on="1"/>
        <pt x="207" y="43" on="1"/>
        <pt x="88" y="126" on="0"/>
        <pt x="88" y="306" on="1"/>
        <pt x="88" y="699" on="1"/>
        <pt x="206" y="699" on="1"/>
        <pt x="206" y="311" on="1"/>
        <pt x="206" y="215" on="0"/>
        <pt x="302" y="103" on="0"/>
        <pt x="466" y="103" on="0"/>
        <pt x="562" y="215" on="0"/>
        <pt x="562" y="311" on="1"/>
        <pt x="562" y="699" on="1"/>
        <pt x="680" y="699" on="1"/>
        <pt x="680" y="306" on="1"/>
        <pt x="680" y="125" on="0"/>
        <pt x="560" y="43" on="1"/>
      </contour>
      <contour>
        <pt x="336" y="891" on="1"/>
        <pt x="440" y="891" on="1"/>
        <pt x="562" y="757" on="1"/>
        <pt x="465" y="757" on="1"/>
        <pt x="388" y="813" on="1"/>
        <pt x="311" y="757" on="1"/>
        <pt x="214" y="757" on="1"/>
      </contour>
    </TTGlyph>
    <TTGlyph name="Udieresis" xMin="0" yMin="0" xMax="768" yMax="876">
      <contour>
        <pt x="768" y="43" on="1"/>
        <pt x="768" y="0" on="1"/>
        <pt x="0" y="0" on="1"/>
        <pt x="0" y="43" on="1"/>
        <pt x="207" y="43" on="1"/>
        <pt x="88" y="126" on="0"/>
        <pt x="88" y="306" on="1"/>
        <pt x="88" y="699" on="1"/>
        <pt x="206" y="699" on="1"/>
        <pt x="206" y="311" on="1"/>
        <pt x="206" y="215" on="0"/>
        <pt x="302" y="103" on="0"/>
        <pt x="466" y="103" on="0"/>
        <pt x="562" y="215" on="0"/>
        <pt x="562" y="311" on="1"/>
        <pt x="562" y="699" on="1"/>
        <pt x="680" y="699" on="1"/>
        <pt x="680" y="306" on="1"/>
        <pt x="680" y="125" on="0"/>
        <pt x="560" y="43" on="1"/>
      </contour>
      <contour>
        <pt x="267" y="753" on="0"/>
        <pt x="232" y="789" on="0"/>
        <pt x="232" y="840" on="0"/>
        <pt x="268" y="876" on="0"/>
        <pt x="319" y="876" on="0"/>
        <pt x="355" y="841" on="0"/>
        <pt x="355" y="790" on="0"/>
        <pt x="318" y="753" on="0"/>
      </contour>
      <contour>
        <pt x="453" y="753" on="0"/>
        <pt x="417" y="789" on="0"/>
        <pt x="417" y="840" on="0"/>
        <pt x="453" y="876" on="0"/>
        <pt x="504" y="876" on="0"/>
        <pt x="540" y="841" on="0"/>
        <pt x="540" y="790" on="0"/>
        <pt x="504" y="753" on="0"/>
      </contour>
    </TTGlyph>
    <TTGlyph name="Ugrave" xMin="0" yMin="0" xMax="768" yMax="902">
      <contour>
        <pt x="768" y="43" on="1"/>
        <pt x="768" y="0" on="1"/>
        <pt x="0" y="0" on="1"/>
        <pt x="0" y="43" on="1"/>
        <pt x="207" y="43" on="1"/>
        <pt x="88" y="126" on="0"/>
        <pt x="88" y="306" on="1"/>
        <pt x="88" y="699" on="1"/>
        <pt x="206" y="699" on="1"/>
        <pt x="206" y="311" on="1"/>
        <pt x="206" y="215" on="0"/>
        <pt x="302" y="103" on="0"/>
        <pt x="466" y="103" on="0"/>
        <pt x="562" y="215" on="0"/>
        <pt x="562" y="311" on="1"/>
        <pt x="562" y="699" on="1"/>
        <pt x="680" y="699" on="1"/>
        <pt x="680" y="306" on="1"/>
        <pt x="680" y="125" on="0"/>
        <pt x="560" y="43" on="1"/>
      </contour>
      <contour>
        <pt x="473" y="757" on="1"/>
        <pt x="371" y="757" on="1"/>
        <pt x="249" y="853" on="1"/>
        <pt x="367" y="902" on="1"/>
      </contour>
    </TTGlyph>
    <TTGlyph name="V" xMin="0" yMin="0" xMax="700" yMax="699">
      <contour>
        <pt x="700" y="43" on="1"/>
        <pt x="700" y="0" on="1"/>
        <pt x="0" y="0" on="1"/>
        <pt x="0" y="43" on="1"/>
        <pt x="266" y="43" on="1"/>
        <pt x="3" y="699" on="1"/>
        <pt x="135" y="699" on="1"/>
        <pt x="350" y="177" on="1"/>
        <pt x="565" y="699" on="1"/>
        <pt x="697" y="699" on="1"/>
        <pt x="433" y="43" on="1"/>
      </contour>
    </TTGlyph>
    <TTGlyph name="W" xMin="0" yMin="0" xMax="1048" yMax="699">
      <contour>
        <pt x="1048" y="43" on="1"/>
        <pt x="1048" y="0" on="1"/>
        <pt x="675" y="0" on="1"/>
        <pt x="528" y="479" on="1"/>
        <pt x="520" y="479" on="1"/>
        <pt x="373" y="0" on="1"/>
        <pt x="0" y="0" on="1"/>
        <pt x="0" y="43" on="1"/>
        <pt x="241" y="43" on="1"/>
        <pt x="12" y="699" on="1"/>
        <pt x="139" y="699" on="1"/>
        <pt x="315" y="196" on="1"/>
        <pt x="471" y="699" on="1"/>
        <pt x="577" y="699" on="1"/>
        <pt x="733" y="196" on="1"/>
        <pt x="909" y="699" on="1"/>
        <pt x="1036" y="699" on="1"/>
        <pt x="807" y="43" on="1"/>
      </contour>
    </TTGlyph>
    <TTGlyph name="X" xMin="-53" yMin="0" xMax="726" yMax="699">
      <contour>
        <pt x="-53" y="0" on="1"/>
        <pt x="-53" y="43" on="1"/>
        <pt x="43" y="43" on="1"/>
        <pt x="255" y="359" on="1"/>
        <pt x="32" y="699" on="1"/>
        <pt x="178" y="699" on="1"/>
        <pt x="334" y="463" on="1"/>
        <pt x="339" y="463" on="1"/>
        <pt x="495" y="699" on="1"/>
        <pt x="641" y="699" on="1"/>
        <pt x="418" y="359" on="1"/>
        <pt x="629" y="43" on="1"/>
        <pt x="726" y="43" on="1"/>
        <pt x="726" y="0" on="1"/>
        <pt x="511" y="0" on="1"/>
        <pt x="339" y="263" on="1"/>
        <pt x="334" y="263" on="1"/>
        <pt x="162" y="0" on="1"/>
      </contour>
    </TTGlyph>
    <TTGlyph name="Y" xMin="-8" yMin="0" xMax="632" yMax="699">
      <contour>
        <pt x="252" y="43" on="1"/>
        <pt x="252" y="276" on="1"/>
        <pt x="-8" y="699" on="1"/>
        <pt x="121" y="699" on="1"/>
        <pt x="312" y="381" on="1"/>
        <pt x="503" y="699" on="1"/>
        <pt x="632" y="699" on="1"/>
        <pt x="372" y="276" on="1"/>
        <pt x="372" y="43" on="1"/>
        <pt x="624" y="43" on="1"/>
        <pt x="624" y="0" on="1"/>
        <pt x="0" y="0" on="1"/>
        <pt x="0" y="43" on="1"/>
      </contour>
    </TTGlyph>
    <TTGlyph name="Yacute" xMin="-8" yMin="0" xMax="632" yMax="887">
      <contour>
        <pt x="252" y="43" on="1"/>
        <pt x="252" y="276" on="1"/>
        <pt x="-8" y="699" on="1"/>
        <pt x="121" y="699" on="1"/>
        <pt x="312" y="381" on="1"/>
        <pt x="503" y="699" on="1"/>
        <pt x="632" y="699" on="1"/>
        <pt x="372" y="276" on="1"/>
        <pt x="372" y="43" on="1"/>
        <pt x="624" y="43" on="1"/>
        <pt x="624" y="0" on="1"/>
        <pt x="0" y="0" on="1"/>
        <pt x="0" y="43" on="1"/>
      </contour>
      <contour>
        <pt x="389" y="742" on="1"/>
        <pt x="287" y="742" on="1"/>
        <pt x="393" y="887" on="1"/>
        <pt x="511" y="838" on="1"/>
      </contour>
    </TTGlyph>
    <TTGlyph name="Ydieresis" xMin="-8" yMin="0" xMax="632" yMax="866">
      <contour>
        <pt x="252" y="43" on="1"/>
        <pt x="252" y="276" on="1"/>
        <pt x="-8" y="699" on="1"/>
        <pt x="121" y="699" on="1"/>
        <pt x="312" y="381" on="1"/>
        <pt x="503" y="699" on="1"/>
        <pt x="632" y="699" on="1"/>
        <pt x="372" y="276" on="1"/>
        <pt x="372" y="43" on="1"/>
        <pt x="624" y="43" on="1"/>
        <pt x="624" y="0" on="1"/>
        <pt x="0" y="0" on="1"/>
        <pt x="0" y="43" on="1"/>
      </contour>
      <contour>
        <pt x="193" y="743" on="0"/>
        <pt x="158" y="779" on="0"/>
        <pt x="158" y="830" on="0"/>
        <pt x="194" y="866" on="0"/>
        <pt x="245" y="866" on="0"/>
        <pt x="281" y="831" on="0"/>
        <pt x="281" y="780" on="0"/>
        <pt x="244" y="743" on="0"/>
      </contour>
      <contour>
        <pt x="379" y="743" on="0"/>
        <pt x="343" y="779" on="0"/>
        <pt x="343" y="830" on="0"/>
        <pt x="379" y="866" on="0"/>
        <pt x="430" y="866" on="0"/>
        <pt x="466" y="831" on="0"/>
        <pt x="466" y="780" on="0"/>
        <pt x="430" y="743" on="0"/>
      </contour>
    </TTGlyph>
    <TTGlyph name="Z" xMin="-50" yMin="0" xMax="721" yMax="699">
      <contour>
        <pt x="47" y="43" on="1"/>
        <pt x="47" y="91" on="1"/>
        <pt x="454" y="588" on="1"/>
        <pt x="454" y="591" on="1"/>
        <pt x="60" y="591" on="1"/>
        <pt x="60" y="699" on="1"/>
        <pt x="618" y="699" on="1"/>
        <pt x="618" y="607" on="1"/>
        <pt x="212" y="112" on="1"/>
        <pt x="212" y="109" on="1"/>
        <pt x="624" y="109" on="1"/>
        <pt x="624" y="43" on="1"/>
        <pt x="721" y="43" on="1"/>
        <pt x="721" y="0" on="1"/>
        <pt x="-50" y="0" on="1"/>
        <pt x="-50" y="43" on="1"/>
      </contour>
    </TTGlyph>
    <TTGlyph name="Zcaron" xMin="-50" yMin="0" xMax="721" yMax="894">
      <contour>
        <pt x="47" y="43" on="1"/>
        <pt x="47" y="91" on="1"/>
        <pt x="454" y="588" on="1"/>
        <pt x="454" y="591" on="1"/>
        <pt x="60" y="591" on="1"/>
        <pt x="60" y="699" on="1"/>
        <pt x="618" y="699" on="1"/>
        <pt x="618" y="607" on="1"/>
        <pt x="212" y="112" on="1"/>
        <pt x="212" y="109" on="1"/>
        <pt x="624" y="109" on="1"/>
        <pt x="624" y="43" on="1"/>
        <pt x="721" y="43" on="1"/>
        <pt x="721" y="0" on="1"/>
        <pt x="-50" y="0" on="1"/>
        <pt x="-50" y="43" on="1"/>
      </contour>
      <contour>
        <pt x="399" y="760" on="1"/>
        <pt x="295" y="760" on="1"/>
        <pt x="173" y="894" on="1"/>
        <pt x="270" y="894" on="1"/>
        <pt x="347" y="838" on="1"/>
        <pt x="424" y="894" on="1"/>
        <pt x="521" y="894" on="1"/>
      </contour>
    </TTGlyph>
    <TTGlyph name="a" xMin="-97" yMin="0" xMax="839" yMax="699">
      <contour>
        <pt x="839" y="43" on="1"/>
        <pt x="839" y="0" on="1"/>
        <pt x="616" y="0" on="1"/>
        <pt x="546" y="159" on="1"/>
        <pt x="196" y="159" on="1"/>
        <pt x="126" y="0" on="1"/>
        <pt x="-97" y="0" on="1"/>
        <pt x="-97" y="43" on="1"/>
        <pt x="19" y="43" on="1"/>
        <pt x="308" y="699" on="1"/>
        <pt x="434" y="699" on="1"/>
        <pt x="723" y="43" on="1"/>
      </contour>
      <contour>
        <pt x="498" y="268" on="1"/>
        <pt x="371" y="556" on="1"/>
        <pt x="244" y="268" on="1"/>
      </contour>
    </TTGlyph>
    <TTGlyph name="aacute" xMin="-97" yMin="0" xMax="839" yMax="903">
      <contour>
        <pt x="839" y="43" on="1"/>
        <pt x="839" y="0" on="1"/>
        <pt x="616" y="0" on="1"/>
        <pt x="546" y="159" on="1"/>
        <pt x="196" y="159" on="1"/>
        <pt x="126" y="0" on="1"/>
        <pt x="-97" y="0" on="1"/>
        <pt x="-97" y="43" on="1"/>
        <pt x="19" y="43" on="1"/>
        <pt x="308" y="699" on="1"/>
        <pt x="434" y="699" on="1"/>
        <pt x="723" y="43" on="1"/>
      </contour>
      <contour>
        <pt x="498" y="268" on="1"/>
        <pt x="371" y="556" on="1"/>
        <pt x="244" y="268" on="1"/>
      </contour>
      <contour>
        <pt x="425" y="758" on="1"/>
        <pt x="323" y="758" on="1"/>
        <pt x="429" y="903" on="1"/>
        <pt x="547" y="854" on="1"/>
      </contour>
    </TTGlyph>
    <TTGlyph name="acircumflex" xMin="-97" yMin="0" xMax="839" yMax="891">
      <contour>
        <pt x="839" y="43" on="1"/>
        <pt x="839" y="0" on="1"/>
        <pt x="616" y="0" on="1"/>
        <pt x="546" y="159" on="1"/>
        <pt x="196" y="159" on="1"/>
        <pt x="126" y="0" on="1"/>
        <pt x="-97" y="0" on="1"/>
        <pt x="-97" y="43" on="1"/>
        <pt x="19" y="43" on="1"/>
        <pt x="308" y="699" on="1"/>
        <pt x="434" y="699" on="1"/>
        <pt x="723" y="43" on="1"/>
      </contour>
      <contour>
        <pt x="498" y="268" on="1"/>
        <pt x="371" y="556" on="1"/>
        <pt x="244" y="268" on="1"/>
      </contour>
      <contour>
        <pt x="319" y="891" on="1"/>
        <pt x="423" y="891" on="1"/>
        <pt x="545" y="757" on="1"/>
        <pt x="448" y="757" on="1"/>
        <pt x="371" y="813" on="1"/>
        <pt x="294" y="757" on="1"/>
        <pt x="197" y="757" on="1"/>
      </contour>
    </TTGlyph>
    <TTGlyph name="acute" xMin="338" yMin="628" xMax="562" yMax="773">
      <contour>
        <pt x="440" y="628" on="1"/>
        <pt x="338" y="628" on="1"/>
        <pt x="444" y="773" on="1"/>
        <pt x="562" y="724" on="1"/>
      </contour>
    </TTGlyph>
    <TTGlyph name="adieresis" xMin="-97" yMin="0" xMax="839" yMax="876">
      <contour>
        <pt x="839" y="43" on="1"/>
        <pt x="839" y="0" on="1"/>
        <pt x="616" y="0" on="1"/>
        <pt x="546" y="159" on="1"/>
        <pt x="196" y="159" on="1"/>
        <pt x="126" y="0" on="1"/>
        <pt x="-97" y="0" on="1"/>
        <pt x="-97" y="43" on="1"/>
        <pt x="19" y="43" on="1"/>
        <pt x="308" y="699" on="1"/>
        <pt x="434" y="699" on="1"/>
        <pt x="723" y="43" on="1"/>
      </contour>
      <contour>
        <pt x="498" y="268" on="1"/>
        <pt x="371" y="556" on="1"/>
        <pt x="244" y="268" on="1"/>
      </contour>
      <contour>
        <pt x="252" y="753" on="0"/>
        <pt x="217" y="789" on="0"/>
        <pt x="217" y="840" on="0"/>
        <pt x="252" y="876" on="0"/>
        <pt x="304" y="876" on="0"/>
        <pt x="340" y="841" on="0"/>
        <pt x="340" y="790" on="0"/>
        <pt x="304" y="753" on="0"/>
      </contour>
      <contour>
        <pt x="438" y="753" on="0"/>
        <pt x="402" y="789" on="0"/>
        <pt x="402" y="840" on="0"/>
        <pt x="438" y="876" on="0"/>
        <pt x="489" y="876" on="0"/>
        <pt x="525" y="841" on="0"/>
        <pt x="525" y="790" on="0"/>
        <pt x="488" y="753" on="0"/>
      </contour>
    </TTGlyph>
    <TTGlyph name="ae" xMin="-97" yMin="0" xMax="1081" yMax="699">
      <contour>
        <pt x="1081" y="43" on="1"/>
        <pt x="1081" y="0" on="1"/>
        <pt x="472" y="0" on="1"/>
        <pt x="472" y="159" on="1"/>
        <pt x="219" y="159" on="1"/>
        <pt x="134" y="0" on="1"/>
        <pt x="-97" y="0" on="1"/>
        <pt x="-97" y="43" on="1"/>
        <pt x="11" y="43" on="1"/>
        <pt x="355" y="699" on="1"/>
        <pt x="974" y="699" on="1"/>
        <pt x="974" y="589" on="1"/>
        <pt x="601" y="589" on="1"/>
        <pt x="601" y="397" on="1"/>
        <pt x="936" y="397" on="1"/>
        <pt x="936" y="294" on="1"/>
        <pt x="601" y="294" on="1"/>
        <pt x="601" y="110" on="1"/>
        <pt x="986" y="110" on="1"/>
        <pt x="986" y="43" on="1"/>
      </contour>
      <contour>
        <pt x="472" y="272" on="1"/>
        <pt x="472" y="589" on="1"/>
        <pt x="443" y="589" on="1"/>
        <pt x="276" y="272" on="1"/>
      </contour>
    </TTGlyph>
    <TTGlyph name="agrave" xMin="-97" yMin="0" xMax="839" yMax="902">
      <contour>
        <pt x="839" y="43" on="1"/>
        <pt x="839" y="0" on="1"/>
        <pt x="616" y="0" on="1"/>
        <pt x="546" y="159" on="1"/>
        <pt x="196" y="159" on="1"/>
        <pt x="126" y="0" on="1"/>
        <pt x="-97" y="0" on="1"/>
        <pt x="-97" y="43" on="1"/>
        <pt x="19" y="43" on="1"/>
        <pt x="308" y="699" on="1"/>
        <pt x="434" y="699" on="1"/>
        <pt x="723" y="43" on="1"/>
      </contour>
      <contour>
        <pt x="498" y="268" on="1"/>
        <pt x="371" y="556" on="1"/>
        <pt x="244" y="268" on="1"/>
      </contour>
      <contour>
        <pt x="420" y="757" on="1"/>
        <pt x="318" y="757" on="1"/>
        <pt x="196" y="853" on="1"/>
        <pt x="314" y="902" on="1"/>
      </contour>
    </TTGlyph>
    <TTGlyph name="ampersand" xMin="0" yMin="0" xMax="746" yMax="716">
      <contour>
        <pt x="746" y="43" on="1"/>
        <pt x="746" y="0" on="1"/>
        <pt x="0" y="0" on="1"/>
        <pt x="0" y="43" on="1"/>
        <pt x="154" y="43" on="1"/>
        <pt x="49" y="99" on="0"/>
        <pt x="49" y="216" on="1"/>
        <pt x="49" y="323" on="0"/>
        <pt x="204" y="407" on="1"/>
        <pt x="168" y="449" on="0"/>
        <pt x="139" y="507" on="0"/>
        <pt x="139" y="550" on="1"/>
        <pt x="139" y="630" on="0"/>
        <pt x="257" y="716" on="0"/>
        <pt x="417" y="716" on="0"/>
        <pt x="529" y="634" on="0"/>
        <pt x="529" y="560" on="1"/>
        <pt x="529" y="506" on="0"/>
        <pt x="446" y="425" on="0"/>
        <pt x="361" y="383" on="1"/>
        <pt x="454" y="270" on="0"/>
        <pt x="491" y="231" on="1"/>
        <pt x="530" y="286" on="0"/>
        <pt x="547" y="350" on="1"/>
        <pt x="629" y="292" on="1"/>
        <pt x="599" y="214" on="0"/>
        <pt x="562" y="159" on="1"/>
        <pt x="609" y="112" on="0"/>
        <pt x="681" y="43" on="1"/>
      </contour>
      <contour>
        <pt x="160" y="166" on="0"/>
        <pt x="236" y="109" on="0"/>
        <pt x="357" y="109" on="0"/>
        <pt x="423" y="159" on="1"/>
        <pt x="302" y="288" on="0"/>
        <pt x="265" y="336" on="1"/>
        <pt x="160" y="277" on="0"/>
        <pt x="160" y="211" on="1"/>
      </contour>
      <contour>
        <pt x="303" y="627" on="0"/>
        <pt x="250" y="585" on="0"/>
        <pt x="250" y="516" on="0"/>
        <pt x="302" y="454" on="1"/>
        <pt x="370" y="484" on="0"/>
        <pt x="423" y="524" on="0"/>
        <pt x="423" y="548" on="1"/>
        <pt x="423" y="588" on="0"/>
        <pt x="370" y="627" on="0"/>
      </contour>
      <contour>
        <pt x="495" y="84" on="1"/>
        <pt x="461" y="57" on="0"/>
        <pt x="431" y="43" on="1"/>
        <pt x="536" y="43" on="1"/>
      </contour>
    </TTGlyph>
    <TTGlyph name="aring" xMin="-97" yMin="0" xMax="839" yMax="876">
      <contour>
        <pt x="304" y="689" on="1"/>
        <pt x="262" y="721" on="0"/>
        <pt x="262" y="813" on="0"/>
        <pt x="327" y="876" on="0"/>
        <pt x="413" y="876" on="0"/>
        <pt x="479" y="813" on="0"/>
        <pt x="479" y="722" on="0"/>
        <pt x="437" y="690" on="1"/>
        <pt x="723" y="43" on="1"/>
        <pt x="839" y="43" on="1"/>
        <pt x="839" y="0" on="1"/>
        <pt x="616" y="0" on="1"/>
        <pt x="546" y="159" on="1"/>
        <pt x="196" y="159" on="1"/>
        <pt x="126" y="0" on="1"/>
        <pt x="-97" y="0" on="1"/>
        <pt x="-97" y="43" on="1"/>
        <pt x="19" y="43" on="1"/>
      </contour>
      <contour>
        <pt x="498" y="268" on="1"/>
        <pt x="371" y="556" on="1"/>
        <pt x="244" y="268" on="1"/>
      </contour>
      <contour>
        <pt x="395" y="716" on="0"/>
        <pt x="425" y="747" on="0"/>
        <pt x="425" y="796" on="0"/>
        <pt x="395" y="827" on="0"/>
        <pt x="346" y="827" on="0"/>
        <pt x="315" y="796" on="0"/>
        <pt x="315" y="747" on="0"/>
        <pt x="346" y="716" on="0"/>
      </contour>
    </TTGlyph>
    <TTGlyph name="asciicircum" xMin="22" yMin="742" xMax="367" yMax="898">
      <contour>
        <pt x="273" y="742" on="1"/>
        <pt x="196" y="825" on="1"/>
        <pt x="119" y="742" on="1"/>
        <pt x="22" y="742" on="1"/>
        <pt x="144" y="898" on="1"/>
        <pt x="246" y="898" on="1"/>
        <pt x="367" y="742" on="1"/>
      </contour>
    </TTGlyph>
    <TTGlyph name="asciitilde" xMin="0" yMin="0" xMax="553" yMax="471">
      <contour>
        <pt x="553" y="43" on="1"/>
        <pt x="553" y="0" on="1"/>
        <pt x="0" y="0" on="1"/>
        <pt x="0" y="43" on="1"/>
        <pt x="256" y="43" on="1"/>
        <pt x="256" y="339" on="1"/>
        <pt x="194" y="370" on="0"/>
        <pt x="175" y="370" on="1"/>
        <pt x="135" y="370" on="0"/>
        <pt x="128" y="305" on="1"/>
        <pt x="41" y="330" on="1"/>
        <pt x="47" y="400" on="0"/>
        <pt x="119" y="471" on="0"/>
        <pt x="176" y="471" on="1"/>
        <pt x="221" y="471" on="0"/>
        <pt x="298" y="430" on="1"/>
        <pt x="347" y="404" on="0"/>
        <pt x="371" y="404" on="1"/>
        <pt x="411" y="404" on="0"/>
        <pt x="418" y="469" on="1"/>
        <pt x="506" y="444" on="1"/>
        <pt x="500" y="374" on="0"/>
        <pt x="427" y="302" on="0"/>
        <pt x="370" y="302" on="1"/>
        <pt x="338" y="302" on="0"/>
        <pt x="303" y="317" on="1"/>
        <pt x="303" y="43" on="1"/>
      </contour>
    </TTGlyph>
    <TTGlyph name="asterisk" xMin="0" yMin="0" xMax="432" yMax="699">
      <contour>
        <pt x="432" y="43" on="1"/>
        <pt x="432" y="0" on="1"/>
        <pt x="0" y="0" on="1"/>
        <pt x="0" y="43" on="1"/>
        <pt x="192" y="43" on="1"/>
        <pt x="192" y="380" on="1"/>
        <pt x="182" y="380" on="1"/>
        <pt x="190" y="495" on="1"/>
        <pt x="95" y="431" on="1"/>
        <pt x="61" y="489" on="1"/>
        <pt x="163" y="540" on="1"/>
        <pt x="61" y="590" on="1"/>
        <pt x="95" y="649" on="1"/>
        <pt x="189" y="586" on="1"/>
        <pt x="182" y="699" on="1"/>
        <pt x="250" y="699" on="1"/>
        <pt x="243" y="586" on="1"/>
        <pt x="337" y="648" on="1"/>
        <pt x="371" y="590" on="1"/>
        <pt x="268" y="540" on="1"/>
        <pt x="371" y="489" on="1"/>
        <pt x="337" y="430" on="1"/>
        <pt x="242" y="494" on="1"/>
        <pt x="250" y="380" on="1"/>
        <pt x="239" y="380" on="1"/>
        <pt x="239" y="43" on="1"/>
      </contour>
    </TTGlyph>
    <TTGlyph name="at" xMin="0" yMin="0" xMax="904" yMax="716">
      <contour>
        <pt x="904" y="43" on="1"/>
        <pt x="904" y="0" on="1"/>
        <pt x="0" y="0" on="1"/>
        <pt x="0" y="43" on="1"/>
        <pt x="154" y="43" on="1"/>
        <pt x="52" y="151" on="0"/>
        <pt x="52" y="479" on="0"/>
        <pt x="289" y="716" on="0"/>
        <pt x="623" y="716" on="0"/>
        <pt x="847" y="488" on="0"/>
        <pt x="847" y="318" on="1"/>
        <pt x="847" y="208" on="0"/>
        <pt x="756" y="75" on="0"/>
        <pt x="682" y="75" on="1"/>
        <pt x="644" y="75" on="0"/>
        <pt x="581" y="121" on="0"/>
        <pt x="569" y="156" on="1"/>
        <pt x="514" y="85" on="0"/>
        <pt x="345" y="85" on="0"/>
        <pt x="220" y="213" on="0"/>
        <pt x="220" y="409" on="0"/>
        <pt x="333" y="540" on="0"/>
        <pt x="425" y="540" on="1"/>
        <pt x="456" y="540" on="0"/>
        <pt x="512" y="514" on="0"/>
        <pt x="524" y="500" on="1"/>
        <pt x="537" y="487" on="1"/>
        <pt x="537" y="532" on="1"/>
        <pt x="662" y="532" on="1"/>
        <pt x="662" y="214" on="1"/>
        <pt x="662" y="164" on="0"/>
        <pt x="692" y="164" on="1"/>
        <pt x="719" y="164" on="0"/>
        <pt x="760" y="250" on="0"/>
        <pt x="760" y="315" on="1"/>
        <pt x="760" y="456" on="0"/>
        <pt x="598" y="641" on="0"/>
        <pt x="326" y="641" on="0"/>
        <pt x="140" y="447" on="0"/>
        <pt x="140" y="310" on="1"/>
        <pt x="140" y="224" on="0"/>
        <pt x="215" y="84" on="0"/>
        <pt x="280" y="43" on="1"/>
      </contour>
      <contour>
        <pt x="538" y="365" on="0"/>
        <pt x="485" y="431" on="0"/>
        <pt x="399" y="431" on="0"/>
        <pt x="348" y="365" on="0"/>
        <pt x="348" y="268" on="0"/>
        <pt x="399" y="196" on="0"/>
        <pt x="487" y="196" on="0"/>
        <pt x="538" y="265" on="0"/>
      </contour>
    </TTGlyph>
    <TTGlyph name="atilde" xMin="-97" yMin="0" xMax="839" yMax="887">
      <contour>
        <pt x="839" y="43" on="1"/>
        <pt x="839" y="0" on="1"/>
        <pt x="616" y="0" on="1"/>
        <pt x="546" y="159" on="1"/>
        <pt x="196" y="159" on="1"/>
        <pt x="126" y="0" on="1"/>
        <pt x="-97" y="0" on="1"/>
        <pt x="-97" y="43" on="1"/>
        <pt x="19" y="43" on="1"/>
        <pt x="308" y="699" on="1"/>
        <pt x="434" y="699" on="1"/>
        <pt x="723" y="43" on="1"/>
      </contour>
      <contour>
        <pt x="498" y="268" on="1"/>
        <pt x="371" y="556" on="1"/>
        <pt x="244" y="268" on="1"/>
      </contour>
      <contour>
        <pt x="445" y="754" on="1"/>
        <pt x="419" y="754" on="0"/>
        <pt x="326" y="801" on="0"/>
        <pt x="313" y="801" on="1"/>
        <pt x="280" y="801" on="0"/>
        <pt x="279" y="757" on="1"/>
        <pt x="205" y="757" on="1"/>
        <pt x="205" y="815" on="0"/>
        <pt x="252" y="887" on="0"/>
        <pt x="294" y="887" on="1"/>
        <pt x="321" y="887" on="0"/>
        <pt x="417" y="840" on="0"/>
        <pt x="432" y="840" on="1"/>
        <pt x="462" y="840" on="0"/>
        <pt x="462" y="884" on="1"/>
        <pt x="537" y="884" on="1"/>
        <pt x="534" y="754" on="0"/>
      </contour>
    </TTGlyph>
    <TTGlyph name="b" xMin="0" yMin="0" xMax="706" yMax="699">
      <contour>
        <pt x="706" y="43" on="1"/>
        <pt x="706" y="0" on="1"/>
        <pt x="0" y="0" on="1"/>
        <pt x="0" y="43" on="1"/>
        <pt x="97" y="43" on="1"/>
        <pt x="97" y="699" on="1"/>
        <pt x="369" y="699" on="1"/>
        <pt x="440" y="699" on="0"/>
        <pt x="543" y="665" on="0"/>
        <pt x="568" y="636" on="1"/>
        <pt x="616" y="582" on="0"/>
        <pt x="616" y="514" on="1"/>
        <pt x="616" y="432" on="0"/>
        <pt x="564" y="392" on="1"/>
        <pt x="545" y="378" on="0"/>
        <pt x="531" y="371" on="0"/>
        <pt x="513" y="363" on="1"/>
        <pt x="578" y="349" on="0"/>
        <pt x="655" y="260" on="0"/>
        <pt x="655" y="194" on="1"/>
        <pt x="655" y="95" on="0"/>
        <pt x="577" y="43" on="1"/>
      </contour>
      <contour>
        <pt x="215" y="109" on="1"/>
        <pt x="400" y="109" on="1"/>
        <pt x="465" y="109" on="0"/>
        <pt x="534" y="150" on="0"/>
        <pt x="534" y="207" on="1"/>
        <pt x="534" y="300" on="0"/>
        <pt x="385" y="300" on="1"/>
        <pt x="215" y="300" on="1"/>
      </contour>
      <contour>
        <pt x="215" y="409" on="1"/>
        <pt x="365" y="409" on="1"/>
        <pt x="493" y="409" on="0"/>
        <pt x="493" y="496" on="1"/>
        <pt x="493" y="546" on="0"/>
        <pt x="431" y="590" on="0"/>
        <pt x="366" y="590" on="1"/>
        <pt x="215" y="590" on="1"/>
      </contour>
    </TTGlyph>
    <TTGlyph name="backslash" xMin="0" yMin="0" xMax="564" yMax="757">
      <contour>
        <pt x="564" y="43" on="1"/>
        <pt x="564" y="0" on="1"/>
        <pt x="0" y="0" on="1"/>
        <pt x="0" y="43" on="1"/>
        <pt x="371" y="43" on="1"/>
        <pt x="28" y="757" on="1"/>
        <pt x="128" y="757" on="1"/>
        <pt x="471" y="43" on="1"/>
      </contour>
    </TTGlyph>
    <TTGlyph name="bar" xMin="-10" yMin="0" xMax="267" yMax="782">
      <contour>
        <pt x="-10" y="0" on="1"/>
        <pt x="-10" y="43" on="1"/>
        <pt x="87" y="43" on="1"/>
        <pt x="87" y="782" on="1"/>
        <pt x="170" y="782" on="1"/>
        <pt x="170" y="43" on="1"/>
        <pt x="267" y="43" on="1"/>
        <pt x="267" y="0" on="1"/>
      </contour>
    </TTGlyph>
    <TTGlyph name="braceleft" xMin="0" yMin="0" xMax="381" yMax="757">
      <contour>
        <pt x="0" y="0" on="1"/>
        <pt x="0" y="43" on="1"/>
        <pt x="139" y="43" on="1"/>
        <pt x="114" y="76" on="0"/>
        <pt x="114" y="132" on="1"/>
        <pt x="114" y="272" on="1"/>
        <pt x="114" y="305" on="0"/>
        <pt x="90" y="332" on="0"/>
        <pt x="64" y="332" on="1"/>
        <pt x="40" y="332" on="1"/>
        <pt x="40" y="425" on="1"/>
        <pt x="64" y="425" on="1"/>
        <pt x="90" y="425" on="0"/>
        <pt x="114" y="452" on="0"/>
        <pt x="114" y="485" on="1"/>
        <pt x="114" y="625" on="1"/>
        <pt x="114" y="757" on="0"/>
        <pt x="250" y="757" on="1"/>
        <pt x="284" y="757" on="1"/>
        <pt x="284" y="664" on="1"/>
        <pt x="243" y="664" on="0"/>
        <pt x="214" y="644" on="0"/>
        <pt x="214" y="618" on="1"/>
        <pt x="214" y="459" on="1"/>
        <pt x="214" y="390" on="0"/>
        <pt x="148" y="379" on="1"/>
        <pt x="214" y="368" on="0"/>
        <pt x="214" y="298" on="1"/>
        <pt x="214" y="139" on="1"/>
        <pt x="214" y="113" on="0"/>
        <pt x="243" y="93" on="0"/>
        <pt x="284" y="93" on="1"/>
        <pt x="284" y="43" on="1"/>
        <pt x="381" y="43" on="1"/>
        <pt x="381" y="0" on="1"/>
      </contour>
    </TTGlyph>
    <TTGlyph name="braceright" xMin="-45" yMin="0" xMax="336" yMax="757">
      <contour>
        <pt x="-45" y="0" on="1"/>
        <pt x="-45" y="43" on="1"/>
        <pt x="52" y="43" on="1"/>
        <pt x="52" y="93" on="1"/>
        <pt x="93" y="93" on="0"/>
        <pt x="122" y="113" on="0"/>
        <pt x="122" y="139" on="1"/>
        <pt x="122" y="298" on="1"/>
        <pt x="122" y="368" on="0"/>
        <pt x="188" y="379" on="1"/>
        <pt x="122" y="390" on="0"/>
        <pt x="122" y="459" on="1"/>
        <pt x="122" y="618" on="1"/>
        <pt x="122" y="644" on="0"/>
        <pt x="93" y="664" on="0"/>
        <pt x="52" y="664" on="1"/>
        <pt x="52" y="757" on="1"/>
        <pt x="86" y="757" on="1"/>
        <pt x="222" y="757" on="0"/>
        <pt x="222" y="625" on="1"/>
        <pt x="222" y="485" on="1"/>
        <pt x="222" y="452" on="0"/>
        <pt x="246" y="425" on="0"/>
        <pt x="272" y="425" on="1"/>
        <pt x="296" y="425" on="1"/>
        <pt x="296" y="332" on="1"/>
        <pt x="272" y="332" on="1"/>
        <pt x="246" y="332" on="0"/>
        <pt x="222" y="305" on="0"/>
        <pt x="222" y="272" on="1"/>
        <pt x="222" y="132" on="1"/>
        <pt x="222" y="76" on="0"/>
        <pt x="197" y="43" on="1"/>
        <pt x="336" y="43" on="1"/>
        <pt x="336" y="0" on="1"/>
      </contour>
    </TTGlyph>
    <TTGlyph name="bracketleft" xMin="-9" yMin="0" xMax="411" yMax="757">
      <contour>
        <pt x="-9" y="0" on="1"/>
        <pt x="-9" y="43" on="1"/>
        <pt x="88" y="43" on="1"/>
        <pt x="88" y="757" on="1"/>
        <pt x="314" y="757" on="1"/>
        <pt x="314" y="673" on="1"/>
        <pt x="176" y="673" on="1"/>
        <pt x="176" y="104" on="1"/>
        <pt x="314" y="104" on="1"/>
        <pt x="314" y="43" on="1"/>
        <pt x="411" y="43" on="1"/>
        <pt x="411" y="0" on="1"/>
      </contour>
    </TTGlyph>
    <TTGlyph name="bracketright" xMin="-56" yMin="0" xMax="364" yMax="757">
      <contour>
        <pt x="-56" y="0" on="1"/>
        <pt x="-56" y="43" on="1"/>
        <pt x="41" y="43" on="1"/>
        <pt x="41" y="104" on="1"/>
        <pt x="179" y="104" on="1"/>
        <pt x="179" y="673" on="1"/>
        <pt x="41" y="673" on="1"/>
        <pt x="41" y="757" on="1"/>
        <pt x="267" y="757" on="1"/>
        <pt x="267" y="43" on="1"/>
        <pt x="364" y="43" on="1"/>
        <pt x="364" y="0" on="1"/>
      </contour>
    </TTGlyph>
    <TTGlyph name="breve" xMin="100" yMin="578" xMax="442" yMax="726">
      <contour>
        <pt x="344" y="578" on="0"/>
        <pt x="198" y="578" on="0"/>
        <pt x="105" y="656" on="0"/>
        <pt x="100" y="726" on="1"/>
        <pt x="183" y="726" on="1"/>
        <pt x="203" y="663" on="0"/>
        <pt x="339" y="663" on="0"/>
        <pt x="359" y="726" on="1"/>
        <pt x="442" y="726" on="1"/>
        <pt x="437" y="656" on="0"/>
      </contour>
    </TTGlyph>
    <TTGlyph name="brokenbar" xMin="0" yMin="0" xMax="276" yMax="757">
      <contour>
        <pt x="276" y="43" on="1"/>
        <pt x="276" y="0" on="1"/>
        <pt x="0" y="0" on="1"/>
        <pt x="0" y="43" on="1"/>
        <pt x="91" y="43" on="1"/>
        <pt x="91" y="327" on="1"/>
        <pt x="185" y="327" on="1"/>
        <pt x="185" y="43" on="1"/>
      </contour>
      <contour>
        <pt x="91" y="430" on="1"/>
        <pt x="91" y="757" on="1"/>
        <pt x="185" y="757" on="1"/>
        <pt x="185" y="430" on="1"/>
      </contour>
    </TTGlyph>
    <TTGlyph name="bullet" xMin="0" yMin="0" xMax="428" yMax="445">
      <contour>
        <pt x="0" y="0" on="1"/>
        <pt x="0" y="43" on="1"/>
        <pt x="191" y="43" on="1"/>
        <pt x="191" y="189" on="1"/>
        <pt x="146" y="197" on="0"/>
        <pt x="85" y="269" on="0"/>
        <pt x="85" y="369" on="0"/>
        <pt x="161" y="445" on="0"/>
        <pt x="267" y="445" on="0"/>
        <pt x="343" y="369" on="0"/>
        <pt x="343" y="269" on="0"/>
        <pt x="283" y="197" on="0"/>
        <pt x="238" y="189" on="1"/>
        <pt x="238" y="43" on="1"/>
        <pt x="428" y="43" on="1"/>
        <pt x="428" y="0" on="1"/>
      </contour>
    </TTGlyph>
    <TTGlyph name="c" xMin="0" yMin="0" xMax="736" yMax="716">
      <contour>
        <pt x="736" y="43" on="1"/>
        <pt x="736" y="0" on="1"/>
        <pt x="0" y="0" on="1"/>
        <pt x="0" y="43" on="1"/>
        <pt x="222" y="43" on="1"/>
        <pt x="143" y="90" on="0"/>
        <pt x="52" y="252" on="0"/>
        <pt x="52" y="354" on="1"/>
        <pt x="52" y="508" on="0"/>
        <pt x="265" y="716" on="0"/>
        <pt x="590" y="716" on="0"/>
        <pt x="699" y="596" on="1"/>
        <pt x="624" y="514" on="1"/>
        <pt x="574" y="562" on="0"/>
        <pt x="485" y="600" on="0"/>
        <pt x="425" y="600" on="1"/>
        <pt x="319" y="600" on="0"/>
        <pt x="175" y="463" on="0"/>
        <pt x="175" y="250" on="0"/>
        <pt x="318" y="107" on="0"/>
        <pt x="416" y="107" on="1"/>
        <pt x="477" y="107" on="0"/>
        <pt x="565" y="148" on="0"/>
        <pt x="613" y="193" on="1"/>
        <pt x="689" y="115" on="1"/>
        <pt x="645" y="67" on="0"/>
        <pt x="605" y="43" on="1"/>
      </contour>
    </TTGlyph>
    <TTGlyph name="caron" xMin="100" yMin="760" xMax="448" yMax="894">
      <contour>
        <pt x="326" y="760" on="1"/>
        <pt x="222" y="760" on="1"/>
        <pt x="100" y="894" on="1"/>
        <pt x="197" y="894" on="1"/>
        <pt x="274" y="838" on="1"/>
        <pt x="351" y="894" on="1"/>
        <pt x="448" y="894" on="1"/>
      </contour>
    </TTGlyph>
    <TTGlyph name="ccedilla" xMin="0" yMin="-212" xMax="736" yMax="716">
      <contour>
        <pt x="736" y="43" on="1"/>
        <pt x="736" y="0" on="1"/>
        <pt x="439" y="0" on="1"/>
        <pt x="419" y="-38" on="1"/>
        <pt x="489" y="-47" on="0"/>
        <pt x="489" y="-117" on="1"/>
        <pt x="489" y="-155" on="0"/>
        <pt x="427" y="-212" on="0"/>
        <pt x="332" y="-212" on="0"/>
        <pt x="296" y="-190" on="1"/>
        <pt x="322" y="-133" on="1"/>
        <pt x="341" y="-143" on="0"/>
        <pt x="380" y="-143" on="0"/>
        <pt x="402" y="-120" on="0"/>
        <pt x="402" y="-88" on="0"/>
        <pt x="379" y="-63" on="0"/>
        <pt x="344" y="-63" on="0"/>
        <pt x="332" y="-68" on="1"/>
        <pt x="368" y="0" on="1"/>
        <pt x="0" y="0" on="1"/>
        <pt x="0" y="43" on="1"/>
        <pt x="222" y="43" on="1"/>
        <pt x="143" y="90" on="0"/>
        <pt x="52" y="252" on="0"/>
        <pt x="52" y="354" on="1"/>
        <pt x="52" y="508" on="0"/>
        <pt x="265" y="716" on="0"/>
        <pt x="590" y="716" on="0"/>
        <pt x="699" y="596" on="1"/>
        <pt x="624" y="514" on="1"/>
        <pt x="574" y="562" on="0"/>
        <pt x="485" y="600" on="0"/>
        <pt x="425" y="600" on="1"/>
        <pt x="319" y="600" on="0"/>
        <pt x="175" y="463" on="0"/>
        <pt x="175" y="250" on="0"/>
        <pt x="318" y="107" on="0"/>
        <pt x="416" y="107" on="1"/>
        <pt x="477" y="107" on="0"/>
        <pt x="565" y="148" on="0"/>
        <pt x="613" y="193" on="1"/>
        <pt x="689" y="115" on="1"/>
        <pt x="645" y="67" on="0"/>
        <pt x="605" y="43" on="1"/>
      </contour>
    </TTGlyph>
    <TTGlyph name="cedilla" xMin="42" yMin="-212" xMax="235" yMax="0">
      <contour>
        <pt x="235" y="-117" on="1"/>
        <pt x="235" y="-155" on="0"/>
        <pt x="173" y="-212" on="0"/>
        <pt x="78" y="-212" on="0"/>
        <pt x="42" y="-190" on="1"/>
        <pt x="68" y="-133" on="1"/>
        <pt x="87" y="-143" on="0"/>
        <pt x="126" y="-143" on="0"/>
        <pt x="148" y="-120" on="0"/>
        <pt x="148" y="-88" on="0"/>
        <pt x="125" y="-63" on="0"/>
        <pt x="90" y="-63" on="0"/>
        <pt x="78" y="-68" on="1"/>
        <pt x="114" y="0" on="1"/>
        <pt x="185" y="0" on="1"/>
        <pt x="165" y="-38" on="1"/>
        <pt x="235" y="-47" on="0"/>
      </contour>
    </TTGlyph>
    <TTGlyph name="cent" xMin="0" yMin="-122" xMax="586" yMax="656">
      <contour>
        <pt x="289" y="-122" on="1"/>
        <pt x="289" y="0" on="1"/>
        <pt x="0" y="0" on="1"/>
        <pt x="0" y="43" on="1"/>
        <pt x="158" y="43" on="1"/>
        <pt x="108" y="79" on="0"/>
        <pt x="49" y="194" on="0"/>
        <pt x="49" y="265" on="1"/>
        <pt x="49" y="376" on="0"/>
        <pt x="187" y="523" on="0"/>
        <pt x="289" y="537" on="1"/>
        <pt x="289" y="656" on="1"/>
        <pt x="353" y="656" on="1"/>
        <pt x="353" y="539" on="1"/>
        <pt x="466" y="530" on="0"/>
        <pt x="539" y="457" on="1"/>
        <pt x="473" y="376" on="1"/>
        <pt x="412" y="428" on="0"/>
        <pt x="353" y="434" on="1"/>
        <pt x="353" y="95" on="1"/>
        <pt x="419" y="102" on="0"/>
        <pt x="478" y="162" on="1"/>
        <pt x="544" y="90" on="1"/>
        <pt x="517" y="63" on="0"/>
        <pt x="486" y="43" on="1"/>
        <pt x="586" y="43" on="1"/>
        <pt x="586" y="0" on="1"/>
        <pt x="353" y="0" on="1"/>
        <pt x="353" y="-122" on="1"/>
      </contour>
      <contour>
        <pt x="234" y="417" on="0"/>
        <pt x="161" y="330" on="0"/>
        <pt x="161" y="207" on="0"/>
        <pt x="232" y="115" on="0"/>
        <pt x="289" y="100" on="1"/>
        <pt x="289" y="430" on="1"/>
      </contour>
    </TTGlyph>
    <TTGlyph name="circumflex" xMin="166" yMin="600" xMax="514" yMax="734">
      <contour>
        <pt x="288" y="734" on="1"/>
        <pt x="392" y="734" on="1"/>
        <pt x="514" y="600" on="1"/>
        <pt x="417" y="600" on="1"/>
        <pt x="340" y="656" on="1"/>
        <pt x="263" y="600" on="1"/>
        <pt x="166" y="600" on="1"/>
      </contour>
    </TTGlyph>
    <TTGlyph name="colon" xMin="0" yMin="0" xMax="285" yMax="386">
      <contour>
        <pt x="285" y="43" on="1"/>
        <pt x="285" y="0" on="1"/>
        <pt x="0" y="0" on="1"/>
        <pt x="0" y="43" on="1"/>
        <pt x="92" y="43" on="1"/>
        <pt x="70" y="63" on="0"/>
        <pt x="70" y="128" on="0"/>
        <pt x="113" y="171" on="0"/>
        <pt x="175" y="171" on="0"/>
        <pt x="219" y="128" on="0"/>
        <pt x="219" y="64" on="0"/>
        <pt x="196" y="43" on="1"/>
      </contour>
      <contour>
        <pt x="70" y="281" on="0"/>
        <pt x="70" y="343" on="0"/>
        <pt x="113" y="386" on="0"/>
        <pt x="175" y="386" on="0"/>
        <pt x="219" y="343" on="0"/>
        <pt x="219" y="281" on="0"/>
        <pt x="175" y="237" on="0"/>
        <pt x="113" y="237" on="0"/>
      </contour>
    </TTGlyph>
    <TTGlyph name="comma" xMin="0" yMin="-75" xMax="279" yMax="170">
      <contour>
        <pt x="279" y="43" on="1"/>
        <pt x="279" y="0" on="1"/>
        <pt x="172" y="0" on="1"/>
        <pt x="127" y="-75" on="1"/>
        <pt x="69" y="-75" on="1"/>
        <pt x="95" y="0" on="1"/>
        <pt x="0" y="0" on="1"/>
        <pt x="0" y="43" on="1"/>
        <pt x="86" y="43" on="1"/>
        <pt x="65" y="64" on="0"/>
        <pt x="65" y="127" on="0"/>
        <pt x="109" y="170" on="0"/>
        <pt x="169" y="170" on="0"/>
        <pt x="214" y="127" on="0"/>
        <pt x="214" y="71" on="0"/>
        <pt x="198" y="43" on="1"/>
      </contour>
    </TTGlyph>
    <TTGlyph name="copyright" xMin="0" yMin="0" xMax="832" yMax="712">
      <contour>
        <pt x="832" y="43" on="1"/>
        <pt x="832" y="0" on="1"/>
        <pt x="0" y="0" on="1"/>
        <pt x="0" y="43" on="1"/>
        <pt x="223" y="43" on="1"/>
        <pt x="145" y="92" on="0"/>
        <pt x="54" y="254" on="0"/>
        <pt x="54" y="349" on="1"/>
        <pt x="54" y="498" on="0"/>
        <pt x="266" y="712" on="0"/>
        <pt x="566" y="712" on="0"/>
        <pt x="778" y="500" on="0"/>
        <pt x="778" y="351" on="1"/>
        <pt x="778" y="256" on="0"/>
        <pt x="685" y="92" on="0"/>
        <pt x="607" y="43" on="1"/>
      </contour>
      <contour>
        <pt x="533" y="70" on="0"/>
        <pt x="695" y="234" on="0"/>
        <pt x="695" y="465" on="0"/>
        <pt x="534" y="628" on="0"/>
        <pt x="301" y="628" on="0"/>
        <pt x="139" y="464" on="0"/>
        <pt x="139" y="233" on="0"/>
        <pt x="300" y="70" on="0"/>
      </contour>
      <contour>
        <pt x="583" y="224" on="1"/>
        <pt x="515" y="153" on="0"/>
        <pt x="341" y="153" on="0"/>
        <pt x="225" y="262" on="0"/>
        <pt x="225" y="440" on="0"/>
        <pt x="345" y="550" on="0"/>
        <pt x="523" y="550" on="0"/>
        <pt x="580" y="490" on="1"/>
        <pt x="532" y="431" on="1"/>
        <pt x="480" y="475" on="0"/>
        <pt x="380" y="475" on="0"/>
        <pt x="305" y="408" on="0"/>
        <pt x="305" y="301" on="0"/>
        <pt x="380" y="227" on="0"/>
        <pt x="489" y="227" on="0"/>
        <pt x="535" y="276" on="1"/>
      </contour>
    </TTGlyph>
    <TTGlyph name="currency" xMin="0" yMin="0" xMax="755" yMax="666">
      <contour>
        <pt x="150" y="182" on="1"/>
        <pt x="97" y="254" on="0"/>
        <pt x="97" y="438" on="0"/>
        <pt x="148" y="508" on="1"/>
        <pt x="60" y="596" on="1"/>
        <pt x="131" y="666" on="1"/>
        <pt x="221" y="577" on="1"/>
        <pt x="289" y="621" on="0"/>
        <pt x="463" y="621" on="0"/>
        <pt x="534" y="576" on="1"/>
        <pt x="624" y="666" on="1"/>
        <pt x="695" y="596" on="1"/>
        <pt x="606" y="507" on="1"/>
        <pt x="657" y="435" on="0"/>
        <pt x="657" y="256" on="0"/>
        <pt x="603" y="183" on="1"/>
        <pt x="695" y="92" on="1"/>
        <pt x="646" y="43" on="1"/>
        <pt x="755" y="43" on="1"/>
        <pt x="755" y="0" on="1"/>
        <pt x="0" y="0" on="1"/>
        <pt x="0" y="43" on="1"/>
        <pt x="109" y="43" on="1"/>
        <pt x="60" y="92" on="1"/>
      </contour>
      <contour>
        <pt x="307" y="179" on="0"/>
        <pt x="447" y="179" on="0"/>
        <pt x="539" y="273" on="0"/>
        <pt x="539" y="421" on="0"/>
        <pt x="447" y="514" on="0"/>
        <pt x="307" y="514" on="0"/>
        <pt x="215" y="421" on="0"/>
        <pt x="215" y="273" on="0"/>
      </contour>
      <contour>
        <pt x="463" y="73" on="0"/>
        <pt x="291" y="73" on="0"/>
        <pt x="224" y="115" on="1"/>
        <pt x="151" y="43" on="1"/>
        <pt x="604" y="43" on="1"/>
        <pt x="530" y="115" on="1"/>
      </contour>
    </TTGlyph>
    <TTGlyph name="d" xMin="0" yMin="0" xMax="782" yMax="699">
      <contour>
        <pt x="782" y="43" on="1"/>
        <pt x="782" y="0" on="1"/>
        <pt x="0" y="0" on="1"/>
        <pt x="0" y="43" on="1"/>
        <pt x="97" y="43" on="1"/>
        <pt x="97" y="699" on="1"/>
        <pt x="337" y="699" on="1"/>
        <pt x="525" y="699" on="0"/>
        <pt x="727" y="516" on="0"/>
        <pt x="727" y="350" on="1"/>
        <pt x="727" y="127" on="0"/>
        <pt x="551" y="43" on="1"/>
      </contour>
      <contour>
        <pt x="608" y="350" on="1"/>
        <pt x="608" y="590" on="0"/>
        <pt x="333" y="590" on="1"/>
        <pt x="215" y="590" on="1"/>
        <pt x="215" y="111" on="1"/>
        <pt x="346" y="111" on="1"/>
        <pt x="473" y="111" on="0"/>
        <pt x="608" y="232" on="0"/>
      </contour>
    </TTGlyph>
    <TTGlyph name="dagger" xMin="0" yMin="0" xMax="523" yMax="701">
      <contour>
        <pt x="523" y="43" on="1"/>
        <pt x="523" y="0" on="1"/>
        <pt x="0" y="0" on="1"/>
        <pt x="0" y="43" on="1"/>
        <pt x="206" y="43" on="1"/>
        <pt x="206" y="392" on="1"/>
        <pt x="36" y="392" on="1"/>
        <pt x="36" y="494" on="1"/>
        <pt x="206" y="494" on="1"/>
        <pt x="206" y="701" on="1"/>
        <pt x="312" y="701" on="1"/>
        <pt x="312" y="494" on="1"/>
        <pt x="488" y="494" on="1"/>
        <pt x="488" y="392" on="1"/>
        <pt x="312" y="392" on="1"/>
        <pt x="312" y="43" on="1"/>
      </contour>
    </TTGlyph>
    <TTGlyph name="daggerdbl" xMin="0" yMin="0" xMax="523" yMax="701">
      <contour>
        <pt x="310" y="392" on="1"/>
        <pt x="310" y="247" on="1"/>
        <pt x="417" y="247" on="1"/>
        <pt x="417" y="165" on="1"/>
        <pt x="310" y="165" on="1"/>
        <pt x="310" y="43" on="1"/>
        <pt x="523" y="43" on="1"/>
        <pt x="523" y="0" on="1"/>
        <pt x="0" y="0" on="1"/>
        <pt x="0" y="43" on="1"/>
        <pt x="204" y="43" on="1"/>
        <pt x="204" y="165" on="1"/>
        <pt x="94" y="165" on="1"/>
        <pt x="94" y="247" on="1"/>
        <pt x="204" y="247" on="1"/>
        <pt x="204" y="392" on="1"/>
        <pt x="38" y="392" on="1"/>
        <pt x="38" y="494" on="1"/>
        <pt x="204" y="494" on="1"/>
        <pt x="204" y="701" on="1"/>
        <pt x="310" y="701" on="1"/>
        <pt x="310" y="494" on="1"/>
        <pt x="480" y="494" on="1"/>
        <pt x="480" y="392" on="1"/>
      </contour>
    </TTGlyph>
    <TTGlyph name="degree" xMin="0" yMin="0" xMax="420" yMax="715">
      <contour>
        <pt x="144" y="715" on="0"/>
        <pt x="272" y="715" on="0"/>
        <pt x="362" y="625" on="0"/>
        <pt x="362" y="497" on="0"/>
        <pt x="272" y="408" on="0"/>
        <pt x="144" y="408" on="0"/>
        <pt x="54" y="497" on="0"/>
        <pt x="54" y="625" on="0"/>
      </contour>
      <contour>
        <pt x="106" y="519" on="0"/>
        <pt x="165" y="459" on="0"/>
        <pt x="250" y="459" on="0"/>
        <pt x="309" y="519" on="0"/>
        <pt x="309" y="603" on="0"/>
        <pt x="250" y="662" on="0"/>
        <pt x="165" y="662" on="0"/>
        <pt x="106" y="603" on="0"/>
      </contour>
      <contour>
        <pt x="420" y="43" on="1"/>
        <pt x="420" y="0" on="1"/>
        <pt x="0" y="0" on="1"/>
        <pt x="0" y="43" on="1"/>
      </contour>
    </TTGlyph>
    <TTGlyph name="dieresis" xMin="166" yMin="601" xMax="474" yMax="724">
      <contour>
        <pt x="201" y="601" on="0"/>
        <pt x="166" y="637" on="0"/>
        <pt x="166" y="688" on="0"/>
        <pt x="202" y="724" on="0"/>
        <pt x="253" y="724" on="0"/>
        <pt x="289" y="689" on="0"/>
        <pt x="289" y="638" on="0"/>
        <pt x="252" y="601" on="0"/>
      </contour>
      <contour>
        <pt x="387" y="601" on="0"/>
        <pt x="351" y="637" on="0"/>
        <pt x="351" y="688" on="0"/>
        <pt x="387" y="724" on="0"/>
        <pt x="438" y="724" on="0"/>
        <pt x="474" y="689" on="0"/>
        <pt x="474" y="638" on="0"/>
        <pt x="438" y="601" on="0"/>
      </contour>
    </TTGlyph>
    <TTGlyph name="divide" xMin="0" yMin="0" xMax="568" yMax="636">
      <contour>
        <pt x="568" y="43" on="1"/>
        <pt x="568" y="0" on="1"/>
        <pt x="0" y="0" on="1"/>
        <pt x="0" y="43" on="1"/>
        <pt x="261" y="43" on="1"/>
        <pt x="261" y="135" on="1"/>
        <pt x="238" y="143" on="0"/>
        <pt x="210" y="182" on="0"/>
        <pt x="210" y="232" on="0"/>
        <pt x="238" y="270" on="0"/>
        <pt x="261" y="277" on="1"/>
        <pt x="261" y="336" on="1"/>
        <pt x="48" y="336" on="1"/>
        <pt x="48" y="430" on="1"/>
        <pt x="261" y="430" on="1"/>
        <pt x="261" y="490" on="1"/>
        <pt x="238" y="498" on="0"/>
        <pt x="210" y="537" on="0"/>
        <pt x="210" y="593" on="0"/>
        <pt x="253" y="636" on="0"/>
        <pt x="315" y="636" on="0"/>
        <pt x="359" y="593" on="0"/>
        <pt x="359" y="538" on="0"/>
        <pt x="330" y="499" on="0"/>
        <pt x="308" y="491" on="1"/>
        <pt x="308" y="430" on="1"/>
        <pt x="520" y="430" on="1"/>
        <pt x="520" y="336" on="1"/>
        <pt x="308" y="336" on="1"/>
        <pt x="308" y="277" on="1"/>
        <pt x="330" y="269" on="0"/>
        <pt x="359" y="231" on="0"/>
        <pt x="359" y="183" on="0"/>
        <pt x="330" y="144" on="0"/>
        <pt x="308" y="136" on="1"/>
        <pt x="308" y="43" on="1"/>
      </contour>
    </TTGlyph>
    <TTGlyph name="dollar" xMin="0" yMin="-72" xMax="619" yMax="757">
      <contour>
        <pt x="283" y="-72" on="1"/>
        <pt x="283" y="0" on="1"/>
        <pt x="0" y="0" on="1"/>
        <pt x="0" y="43" on="1"/>
        <pt x="137" y="43" on="1"/>
        <pt x="83" y="69" on="0"/>
        <pt x="37" y="110" on="1"/>
        <pt x="110" y="197" on="1"/>
        <pt x="194" y="124" on="0"/>
        <pt x="283" y="110" on="1"/>
        <pt x="283" y="304" on="1"/>
        <pt x="170" y="331" on="0"/>
        <pt x="65" y="419" on="0"/>
        <pt x="65" y="592" on="0"/>
        <pt x="186" y="702" on="0"/>
        <pt x="283" y="707" on="1"/>
        <pt x="283" y="757" on="1"/>
        <pt x="347" y="757" on="1"/>
        <pt x="347" y="706" on="1"/>
        <pt x="457" y="698" on="0"/>
        <pt x="555" y="631" on="1"/>
        <pt x="490" y="539" on="1"/>
        <pt x="424" y="586" on="0"/>
        <pt x="347" y="597" on="1"/>
        <pt x="347" y="409" on="1"/>
        <pt x="350" y="409" on="1"/>
        <pt x="465" y="382" on="0"/>
        <pt x="573" y="290" on="0"/>
        <pt x="573" y="207" on="1"/>
        <pt x="573" y="100" on="0"/>
        <pt x="489" y="43" on="1"/>
        <pt x="619" y="43" on="1"/>
        <pt x="619" y="0" on="1"/>
        <pt x="347" y="0" on="1"/>
        <pt x="347" y="-72" on="1"/>
      </contour>
      <contour>
        <pt x="395" y="112" on="0"/>
        <pt x="451" y="158" on="0"/>
        <pt x="451" y="228" on="0"/>
        <pt x="407" y="269" on="0"/>
        <pt x="347" y="287" on="1"/>
        <pt x="347" y="107" on="1"/>
      </contour>
      <contour>
        <pt x="238" y="596" on="0"/>
        <pt x="187" y="551" on="0"/>
        <pt x="187" y="484" on="0"/>
        <pt x="227" y="445" on="0"/>
        <pt x="283" y="427" on="1"/>
        <pt x="283" y="600" on="1"/>
      </contour>
    </TTGlyph>
    <TTGlyph name="dotaccent" xMin="90" yMin="608" xMax="239" yMax="757">
      <contour>
        <pt x="90" y="652" on="0"/>
        <pt x="90" y="714" on="0"/>
        <pt x="133" y="757" on="0"/>
        <pt x="195" y="757" on="0"/>
        <pt x="239" y="714" on="0"/>
        <pt x="239" y="652" on="0"/>
        <pt x="195" y="608" on="0"/>
        <pt x="133" y="608" on="0"/>
      </contour>
    </TTGlyph>
    <TTGlyph name="e" xMin="0" yMin="0" xMax="697" yMax="699">
      <contour>
        <pt x="97" y="43" on="1"/>
        <pt x="97" y="699" on="1"/>
        <pt x="588" y="699" on="1"/>
        <pt x="588" y="588" on="1"/>
        <pt x="215" y="588" on="1"/>
        <pt x="215" y="403" on="1"/>
        <pt x="550" y="403" on="1"/>
        <pt x="550" y="298" on="1"/>
        <pt x="215" y="298" on="1"/>
        <pt x="215" y="111" on="1"/>
        <pt x="600" y="111" on="1"/>
        <pt x="600" y="43" on="1"/>
        <pt x="697" y="43" on="1"/>
        <pt x="697" y="0" on="1"/>
        <pt x="0" y="0" on="1"/>
        <pt x="0" y="43" on="1"/>
      </contour>
    </TTGlyph>
    <TTGlyph name="eacute" xMin="0" yMin="0" xMax="697" yMax="902">
      <contour>
        <pt x="97" y="43" on="1"/>
        <pt x="97" y="699" on="1"/>
        <pt x="588" y="699" on="1"/>
        <pt x="588" y="588" on="1"/>
        <pt x="215" y="588" on="1"/>
        <pt x="215" y="403" on="1"/>
        <pt x="550" y="403" on="1"/>
        <pt x="550" y="298" on="1"/>
        <pt x="215" y="298" on="1"/>
        <pt x="215" y="111" on="1"/>
        <pt x="600" y="111" on="1"/>
        <pt x="600" y="43" on="1"/>
        <pt x="697" y="43" on="1"/>
        <pt x="697" y="0" on="1"/>
        <pt x="0" y="0" on="1"/>
        <pt x="0" y="43" on="1"/>
      </contour>
      <contour>
        <pt x="396" y="757" on="1"/>
        <pt x="294" y="757" on="1"/>
        <pt x="400" y="902" on="1"/>
        <pt x="518" y="853" on="1"/>
      </contour>
    </TTGlyph>
    <TTGlyph name="ecircumflex" xMin="0" yMin="0" xMax="697" yMax="891">
      <contour>
        <pt x="97" y="43" on="1"/>
        <pt x="97" y="699" on="1"/>
        <pt x="588" y="699" on="1"/>
        <pt x="588" y="588" on="1"/>
        <pt x="215" y="588" on="1"/>
        <pt x="215" y="403" on="1"/>
        <pt x="550" y="403" on="1"/>
        <pt x="550" y="298" on="1"/>
        <pt x="215" y="298" on="1"/>
        <pt x="215" y="111" on="1"/>
        <pt x="600" y="111" on="1"/>
        <pt x="600" y="43" on="1"/>
        <pt x="697" y="43" on="1"/>
        <pt x="697" y="0" on="1"/>
        <pt x="0" y="0" on="1"/>
        <pt x="0" y="43" on="1"/>
      </contour>
      <contour>
        <pt x="291" y="891" on="1"/>
        <pt x="395" y="891" on="1"/>
        <pt x="517" y="757" on="1"/>
        <pt x="420" y="757" on="1"/>
        <pt x="343" y="813" on="1"/>
        <pt x="266" y="757" on="1"/>
        <pt x="169" y="757" on="1"/>
      </contour>
    </TTGlyph>
    <TTGlyph name="edieresis" xMin="0" yMin="0" xMax="697" yMax="876">
      <contour>
        <pt x="225" y="753" on="0"/>
        <pt x="190" y="789" on="0"/>
        <pt x="190" y="840" on="0"/>
        <pt x="226" y="876" on="0"/>
        <pt x="277" y="876" on="0"/>
        <pt x="313" y="841" on="0"/>
        <pt x="313" y="790" on="0"/>
        <pt x="276" y="753" on="0"/>
      </contour>
      <contour>
        <pt x="411" y="753" on="0"/>
        <pt x="375" y="789" on="0"/>
        <pt x="375" y="840" on="0"/>
        <pt x="411" y="876" on="0"/>
        <pt x="462" y="876" on="0"/>
        <pt x="498" y="841" on="0"/>
        <pt x="498" y="790" on="0"/>
        <pt x="462" y="753" on="0"/>
      </contour>
      <contour>
        <pt x="97" y="43" on="1"/>
        <pt x="97" y="699" on="1"/>
        <pt x="588" y="699" on="1"/>
        <pt x="588" y="588" on="1"/>
        <pt x="215" y="588" on="1"/>
        <pt x="215" y="403" on="1"/>
        <pt x="550" y="403" on="1"/>
        <pt x="550" y="298" on="1"/>
        <pt x="215" y="298" on="1"/>
        <pt x="215" y="111" on="1"/>
        <pt x="600" y="111" on="1"/>
        <pt x="600" y="43" on="1"/>
        <pt x="697" y="43" on="1"/>
        <pt x="697" y="0" on="1"/>
        <pt x="0" y="0" on="1"/>
        <pt x="0" y="43" on="1"/>
      </contour>
    </TTGlyph>
    <TTGlyph name="egrave" xMin="0" yMin="0" xMax="697" yMax="902">
      <contour>
        <pt x="421" y="757" on="1"/>
        <pt x="319" y="757" on="1"/>
        <pt x="197" y="853" on="1"/>
        <pt x="315" y="902" on="1"/>
      </contour>
      <contour>
        <pt x="97" y="43" on="1"/>
        <pt x="97" y="699" on="1"/>
        <pt x="588" y="699" on="1"/>
        <pt x="588" y="588" on="1"/>
        <pt x="215" y="588" on="1"/>
        <pt x="215" y="403" on="1"/>
        <pt x="550" y="403" on="1"/>
        <pt x="550" y="298" on="1"/>
        <pt x="215" y="298" on="1"/>
        <pt x="215" y="111" on="1"/>
        <pt x="600" y="111" on="1"/>
        <pt x="600" y="43" on="1"/>
        <pt x="697" y="43" on="1"/>
        <pt x="697" y="0" on="1"/>
        <pt x="0" y="0" on="1"/>
        <pt x="0" y="43" on="1"/>
      </contour>
    </TTGlyph>
    <TTGlyph name="eight" xMin="0" yMin="0" xMax="637" yMax="713">
      <contour>
        <pt x="637" y="43" on="1"/>
        <pt x="637" y="0" on="1"/>
        <pt x="0" y="0" on="1"/>
        <pt x="0" y="43" on="1"/>
        <pt x="142" y="43" on="1"/>
        <pt x="57" y="103" on="0"/>
        <pt x="57" y="204" on="1"/>
        <pt x="57" y="320" on="0"/>
        <pt x="158" y="384" on="1"/>
        <pt x="83" y="446" on="0"/>
        <pt x="83" y="607" on="0"/>
        <pt x="217" y="713" on="0"/>
        <pt x="419" y="713" on="0"/>
        <pt x="553" y="607" on="0"/>
        <pt x="553" y="446" on="0"/>
        <pt x="478" y="384" on="1"/>
        <pt x="579" y="320" on="0"/>
        <pt x="579" y="204" on="1"/>
        <pt x="579" y="104" on="0"/>
        <pt x="494" y="43" on="1"/>
      </contour>
      <contour>
        <pt x="266" y="94" on="0"/>
        <pt x="370" y="94" on="0"/>
        <pt x="462" y="153" on="0"/>
        <pt x="462" y="263" on="0"/>
        <pt x="374" y="323" on="0"/>
        <pt x="262" y="323" on="0"/>
        <pt x="174" y="263" on="0"/>
        <pt x="174" y="153" on="0"/>
      </contour>
      <contour>
        <pt x="267" y="411" on="0"/>
        <pt x="369" y="411" on="0"/>
        <pt x="444" y="472" on="0"/>
        <pt x="444" y="561" on="0"/>
        <pt x="369" y="621" on="0"/>
        <pt x="267" y="621" on="0"/>
        <pt x="192" y="561" on="0"/>
        <pt x="192" y="472" on="0"/>
      </contour>
    </TTGlyph>
    <TTGlyph name="ellipsis" xMin="0" yMin="0" xMax="698" yMax="171">
      <contour>
        <pt x="87" y="43" on="1"/>
        <pt x="65" y="63" on="0"/>
        <pt x="65" y="128" on="0"/>
        <pt x="108" y="171" on="0"/>
        <pt x="170" y="171" on="0"/>
        <pt x="214" y="128" on="0"/>
        <pt x="214" y="64" on="0"/>
        <pt x="191" y="43" on="1"/>
        <pt x="297" y="43" on="1"/>
        <pt x="275" y="63" on="0"/>
        <pt x="275" y="128" on="0"/>
        <pt x="318" y="171" on="0"/>
        <pt x="380" y="171" on="0"/>
        <pt x="424" y="128" on="0"/>
        <pt x="424" y="64" on="0"/>
        <pt x="401" y="43" on="1"/>
        <pt x="506" y="43" on="1"/>
        <pt x="484" y="63" on="0"/>
        <pt x="484" y="128" on="0"/>
        <pt x="527" y="171" on="0"/>
        <pt x="589" y="171" on="0"/>
        <pt x="633" y="128" on="0"/>
        <pt x="633" y="64" on="0"/>
        <pt x="610" y="43" on="1"/>
        <pt x="698" y="43" on="1"/>
        <pt x="698" y="0" on="1"/>
        <pt x="0" y="0" on="1"/>
        <pt x="0" y="43" on="1"/>
      </contour>
    </TTGlyph>
    <TTGlyph name="emdash" xMin="0" yMin="0" xMax="725" yMax="293">
      <contour>
        <pt x="82" y="227" on="1"/>
        <pt x="82" y="293" on="1"/>
        <pt x="643" y="293" on="1"/>
        <pt x="643" y="227" on="1"/>
        <pt x="386" y="227" on="1"/>
        <pt x="386" y="43" on="1"/>
        <pt x="725" y="43" on="1"/>
        <pt x="725" y="0" on="1"/>
        <pt x="0" y="0" on="1"/>
        <pt x="0" y="43" on="1"/>
        <pt x="339" y="43" on="1"/>
        <pt x="339" y="227" on="1"/>
      </contour>
    </TTGlyph>
    <TTGlyph name="endash" xMin="0" yMin="0" xMax="538" yMax="293">
      <contour>
        <pt x="82" y="226" on="1"/>
        <pt x="82" y="293" on="1"/>
        <pt x="456" y="293" on="1"/>
        <pt x="456" y="226" on="1"/>
        <pt x="292" y="226" on="1"/>
        <pt x="292" y="43" on="1"/>
        <pt x="538" y="43" on="1"/>
        <pt x="538" y="0" on="1"/>
        <pt x="0" y="0" on="1"/>
        <pt x="0" y="43" on="1"/>
        <pt x="245" y="43" on="1"/>
        <pt x="245" y="226" on="1"/>
      </contour>
    </TTGlyph>
    <TTGlyph name="equal" xMin="0" yMin="0" xMax="658" yMax="524">
      <contour>
        <pt x="77" y="524" on="1"/>
        <pt x="581" y="524" on="1"/>
        <pt x="581" y="430" on="1"/>
        <pt x="356" y="430" on="1"/>
        <pt x="356" y="336" on="1"/>
        <pt x="581" y="336" on="1"/>
        <pt x="581" y="242" on="1"/>
        <pt x="356" y="242" on="1"/>
        <pt x="356" y="43" on="1"/>
        <pt x="658" y="43" on="1"/>
        <pt x="658" y="0" on="1"/>
        <pt x="0" y="0" on="1"/>
        <pt x="0" y="43" on="1"/>
        <pt x="309" y="43" on="1"/>
        <pt x="309" y="242" on="1"/>
        <pt x="77" y="242" on="1"/>
        <pt x="77" y="336" on="1"/>
        <pt x="309" y="336" on="1"/>
        <pt x="309" y="430" on="1"/>
        <pt x="77" y="430" on="1"/>
      </contour>
    </TTGlyph>
    <TTGlyph name="eth" xMin="26" yMin="0" xMax="735" yMax="699">
      <contour>
        <pt x="26" y="294" on="1"/>
        <pt x="26" y="399" on="1"/>
        <pt x="105" y="399" on="1"/>
        <pt x="105" y="699" on="1"/>
        <pt x="345" y="699" on="1"/>
        <pt x="533" y="699" on="0"/>
        <pt x="735" y="516" on="0"/>
        <pt x="735" y="190" on="0"/>
        <pt x="539" y="0" on="0"/>
        <pt x="337" y="0" on="1"/>
        <pt x="105" y="0" on="1"/>
        <pt x="105" y="294" on="1"/>
      </contour>
      <contour>
        <pt x="616" y="350" on="1"/>
        <pt x="616" y="590" on="0"/>
        <pt x="341" y="590" on="1"/>
        <pt x="223" y="590" on="1"/>
        <pt x="223" y="399" on="1"/>
        <pt x="473" y="399" on="1"/>
        <pt x="473" y="294" on="1"/>
        <pt x="223" y="294" on="1"/>
        <pt x="223" y="111" on="1"/>
        <pt x="354" y="111" on="1"/>
        <pt x="481" y="111" on="0"/>
        <pt x="616" y="232" on="0"/>
      </contour>
    </TTGlyph>
    <TTGlyph name="exclam" xMin="0" yMin="0" xMax="295" yMax="699">
      <contour>
        <pt x="78" y="699" on="1"/>
        <pt x="218" y="699" on="1"/>
        <pt x="218" y="570" on="1"/>
        <pt x="188" y="219" on="1"/>
        <pt x="108" y="219" on="1"/>
        <pt x="78" y="570" on="1"/>
      </contour>
      <contour>
        <pt x="295" y="43" on="1"/>
        <pt x="295" y="0" on="1"/>
        <pt x="0" y="0" on="1"/>
        <pt x="0" y="43" on="1"/>
        <pt x="97" y="43" on="1"/>
        <pt x="74" y="64" on="0"/>
        <pt x="74" y="127" on="0"/>
        <pt x="118" y="171" on="0"/>
        <pt x="179" y="171" on="0"/>
        <pt x="223" y="127" on="0"/>
        <pt x="223" y="64" on="0"/>
        <pt x="200" y="43" on="1"/>
      </contour>
    </TTGlyph>
    <TTGlyph name="exclamdown" xMin="0" yMin="0" xMax="295" yMax="716">
      <contour>
        <pt x="295" y="43" on="1"/>
        <pt x="295" y="0" on="1"/>
        <pt x="0" y="0" on="1"/>
        <pt x="0" y="43" on="1"/>
        <pt x="77" y="43" on="1"/>
        <pt x="77" y="148" on="1"/>
        <pt x="107" y="509" on="1"/>
        <pt x="187" y="509" on="1"/>
        <pt x="216" y="148" on="1"/>
        <pt x="216" y="43" on="1"/>
      </contour>
      <contour>
        <pt x="117" y="567" on="0"/>
        <pt x="73" y="611" on="0"/>
        <pt x="73" y="672" on="0"/>
        <pt x="117" y="716" on="0"/>
        <pt x="178" y="716" on="0"/>
        <pt x="222" y="672" on="0"/>
        <pt x="222" y="611" on="0"/>
        <pt x="178" y="567" on="0"/>
      </contour>
    </TTGlyph>
    <TTGlyph name="f" xMin="0" yMin="0" xMax="604" yMax="699">
      <contour>
        <pt x="604" y="43" on="1"/>
        <pt x="604" y="0" on="1"/>
        <pt x="0" y="0" on="1"/>
        <pt x="0" y="43" on="1"/>
        <pt x="97" y="43" on="1"/>
        <pt x="97" y="699" on="1"/>
        <pt x="563" y="699" on="1"/>
        <pt x="562" y="589" on="1"/>
        <pt x="215" y="589" on="1"/>
        <pt x="215" y="397" on="1"/>
        <pt x="525" y="397" on="1"/>
        <pt x="525" y="288" on="1"/>
        <pt x="215" y="288" on="1"/>
        <pt x="215" y="43" on="1"/>
      </contour>
    </TTGlyph>
    <TTGlyph name="five" xMin="0" yMin="0" xMax="579" yMax="700">
      <contour>
        <pt x="579" y="43" on="1"/>
        <pt x="579" y="0" on="1"/>
        <pt x="0" y="0" on="1"/>
        <pt x="0" y="43" on="1"/>
        <pt x="115" y="43" on="1"/>
        <pt x="76" y="66" on="0"/>
        <pt x="50" y="96" on="1"/>
        <pt x="113" y="182" on="1"/>
        <pt x="121" y="174" on="0"/>
        <pt x="148" y="152" on="0"/>
        <pt x="232" y="115" on="0"/>
        <pt x="332" y="115" on="0"/>
        <pt x="414" y="175" on="0"/>
        <pt x="414" y="290" on="0"/>
        <pt x="327" y="353" on="0"/>
        <pt x="194" y="353" on="0"/>
        <pt x="134" y="320" on="1"/>
        <pt x="84" y="374" on="1"/>
        <pt x="84" y="700" on="1"/>
        <pt x="486" y="700" on="1"/>
        <pt x="486" y="593" on="1"/>
        <pt x="191" y="593" on="1"/>
        <pt x="191" y="431" on="1"/>
        <pt x="235" y="455" on="0"/>
        <pt x="291" y="455" on="1"/>
        <pt x="389" y="455" on="0"/>
        <pt x="531" y="337" on="0"/>
        <pt x="531" y="235" on="1"/>
        <pt x="531" y="174" on="0"/>
        <pt x="474" y="74" on="0"/>
        <pt x="424" y="43" on="1"/>
      </contour>
    </TTGlyph>
    <TTGlyph name="four" xMin="0" yMin="0" xMax="572" yMax="699">
      <contour>
        <pt x="572" y="43" on="1"/>
        <pt x="572" y="0" on="1"/>
        <pt x="0" y="0" on="1"/>
        <pt x="0" y="43" on="1"/>
        <pt x="337" y="43" on="1"/>
        <pt x="337" y="176" on="1"/>
        <pt x="37" y="176" on="1"/>
        <pt x="37" y="280" on="1"/>
        <pt x="294" y="699" on="1"/>
        <pt x="423" y="699" on="1"/>
        <pt x="170" y="283" on="1"/>
        <pt x="337" y="283" on="1"/>
        <pt x="337" y="411" on="1"/>
        <pt x="449" y="411" on="1"/>
        <pt x="449" y="283" on="1"/>
        <pt x="533" y="283" on="1"/>
        <pt x="533" y="176" on="1"/>
        <pt x="449" y="176" on="1"/>
        <pt x="449" y="43" on="1"/>
      </contour>
    </TTGlyph>
    <TTGlyph name="g" xMin="0" yMin="0" xMax="757" yMax="716">
      <contour>
        <pt x="757" y="43" on="1"/>
        <pt x="757" y="0" on="1"/>
        <pt x="0" y="0" on="1"/>
        <pt x="0" y="43" on="1"/>
        <pt x="242" y="43" on="1"/>
        <pt x="155" y="87" on="0"/>
        <pt x="52" y="257" on="0"/>
        <pt x="52" y="364" on="1"/>
        <pt x="52" y="517" on="0"/>
        <pt x="264" y="716" on="0"/>
        <pt x="567" y="716" on="0"/>
        <pt x="667" y="628" on="1"/>
        <pt x="604" y="538" on="1"/>
        <pt x="563" y="573" on="0"/>
        <pt x="480" y="600" on="0"/>
        <pt x="425" y="600" on="1"/>
        <pt x="318" y="600" on="0"/>
        <pt x="175" y="472" on="0"/>
        <pt x="175" y="250" on="0"/>
        <pt x="315" y="115" on="0"/>
        <pt x="514" y="115" on="0"/>
        <pt x="581" y="158" on="1"/>
        <pt x="581" y="350" on="1"/>
        <pt x="699" y="350" on="1"/>
        <pt x="699" y="111" on="1"/>
        <pt x="662" y="70" on="0"/>
        <pt x="609" y="43" on="1"/>
      </contour>
    </TTGlyph>
    <TTGlyph name="germandbls" xMin="0" yMin="0" xMax="651" yMax="757">
      <contour>
        <pt x="651" y="43" on="1"/>
        <pt x="651" y="0" on="1"/>
        <pt x="0" y="0" on="1"/>
        <pt x="0" y="43" on="1"/>
        <pt x="81" y="43" on="1"/>
        <pt x="81" y="466" on="1"/>
        <pt x="81" y="582" on="0"/>
        <pt x="116" y="642" on="1"/>
        <pt x="132" y="670" on="0"/>
        <pt x="158" y="698" on="1"/>
        <pt x="211" y="757" on="0"/>
        <pt x="326" y="757" on="1"/>
        <pt x="394" y="757" on="0"/>
        <pt x="492" y="717" on="0"/>
        <pt x="516" y="684" on="1"/>
        <pt x="561" y="624" on="0"/>
        <pt x="561" y="554" on="1"/>
        <pt x="561" y="451" on="0"/>
        <pt x="457" y="386" on="1"/>
        <pt x="531" y="378" on="0"/>
        <pt x="605" y="274" on="0"/>
        <pt x="605" y="206" on="1"/>
        <pt x="605" y="97" on="0"/>
        <pt x="521" y="43" on="1"/>
      </contour>
      <contour>
        <pt x="377" y="426" on="0"/>
        <pt x="447" y="495" on="0"/>
        <pt x="447" y="587" on="0"/>
        <pt x="393" y="656" on="0"/>
        <pt x="336" y="656" on="1"/>
        <pt x="259" y="656" on="0"/>
        <pt x="199" y="564" on="0"/>
        <pt x="199" y="466" on="1"/>
        <pt x="199" y="43" on="1"/>
        <pt x="309" y="43" on="1"/>
        <pt x="309" y="98" on="1"/>
        <pt x="331" y="98" on="1"/>
        <pt x="406" y="98" on="0"/>
        <pt x="487" y="147" on="0"/>
        <pt x="487" y="266" on="0"/>
        <pt x="407" y="323" on="0"/>
        <pt x="340" y="323" on="1"/>
        <pt x="317" y="323" on="0"/>
        <pt x="305" y="322" on="1"/>
        <pt x="305" y="415" on="1"/>
      </contour>
    </TTGlyph>
    <TTGlyph name="grave" xMin="316" yMin="600" xMax="540" yMax="745">
      <contour>
        <pt x="540" y="600" on="1"/>
        <pt x="438" y="600" on="1"/>
        <pt x="316" y="696" on="1"/>
        <pt x="434" y="745" on="1"/>
      </contour>
    </TTGlyph>
    <TTGlyph name="greater" xMin="0" yMin="0" xMax="592" yMax="678">
      <contour>
        <pt x="0" y="0" on="1"/>
        <pt x="0" y="43" on="1"/>
        <pt x="245" y="43" on="1"/>
        <pt x="245" y="195" on="1"/>
        <pt x="76" y="117" on="1"/>
        <pt x="76" y="231" on="1"/>
        <pt x="428" y="394" on="1"/>
        <pt x="428" y="405" on="1"/>
        <pt x="76" y="564" on="1"/>
        <pt x="76" y="678" on="1"/>
        <pt x="547" y="460" on="1"/>
        <pt x="547" y="334" on="1"/>
        <pt x="292" y="216" on="1"/>
        <pt x="292" y="43" on="1"/>
        <pt x="592" y="43" on="1"/>
        <pt x="592" y="0" on="1"/>
      </contour>
    </TTGlyph>
    <TTGlyph name="greaterequal" xMin="0" yMin="-52" xMax="615" yMax="678">
      <contour>
        <pt x="615" y="43" on="1"/>
        <pt x="615" y="0" on="1"/>
        <pt x="548" y="0" on="1"/>
        <pt x="548" y="-52" on="1"/>
        <pt x="76" y="-52" on="1"/>
        <pt x="76" y="0" on="1"/>
        <pt x="0" y="0" on="1"/>
        <pt x="0" y="43" on="1"/>
        <pt x="210" y="43" on="1"/>
        <pt x="210" y="178" on="1"/>
        <pt x="77" y="117" on="1"/>
        <pt x="77" y="231" on="1"/>
        <pt x="429" y="394" on="1"/>
        <pt x="429" y="405" on="1"/>
        <pt x="77" y="564" on="1"/>
        <pt x="77" y="678" on="1"/>
        <pt x="548" y="460" on="1"/>
        <pt x="548" y="334" on="1"/>
        <pt x="257" y="200" on="1"/>
        <pt x="257" y="43" on="1"/>
      </contour>
    </TTGlyph>
    <TTGlyph name="guillemotleft" xMin="0" yMin="0" xMax="597" yMax="395">
      <contour>
        <pt x="597" y="43" on="1"/>
        <pt x="597" y="0" on="1"/>
        <pt x="0" y="0" on="1"/>
        <pt x="0" y="43" on="1"/>
        <pt x="175" y="43" on="1"/>
        <pt x="56" y="219" on="1"/>
        <pt x="175" y="395" on="1"/>
        <pt x="283" y="395" on="1"/>
        <pt x="168" y="219" on="1"/>
        <pt x="283" y="43" on="1"/>
        <pt x="373" y="43" on="1"/>
        <pt x="254" y="219" on="1"/>
        <pt x="373" y="395" on="1"/>
        <pt x="481" y="395" on="1"/>
        <pt x="366" y="219" on="1"/>
        <pt x="481" y="43" on="1"/>
      </contour>
    </TTGlyph>
    <TTGlyph name="guillemotright" xMin="-50" yMin="0" xMax="547" yMax="395">
      <contour>
        <pt x="-50" y="0" on="1"/>
        <pt x="-50" y="43" on="1"/>
        <pt x="66" y="43" on="1"/>
        <pt x="181" y="219" on="1"/>
        <pt x="66" y="395" on="1"/>
        <pt x="174" y="395" on="1"/>
        <pt x="293" y="219" on="1"/>
        <pt x="174" y="43" on="1"/>
        <pt x="264" y="43" on="1"/>
        <pt x="379" y="219" on="1"/>
        <pt x="264" y="395" on="1"/>
        <pt x="372" y="395" on="1"/>
        <pt x="491" y="219" on="1"/>
        <pt x="372" y="43" on="1"/>
        <pt x="547" y="43" on="1"/>
        <pt x="547" y="0" on="1"/>
      </contour>
    </TTGlyph>
    <TTGlyph name="guilsinglleft" xMin="0" yMin="0" xMax="399" yMax="395">
      <contour>
        <pt x="399" y="43" on="1"/>
        <pt x="399" y="0" on="1"/>
        <pt x="0" y="0" on="1"/>
        <pt x="0" y="43" on="1"/>
        <pt x="175" y="43" on="1"/>
        <pt x="56" y="219" on="1"/>
        <pt x="175" y="395" on="1"/>
        <pt x="283" y="395" on="1"/>
        <pt x="168" y="219" on="1"/>
        <pt x="283" y="43" on="1"/>
      </contour>
    </TTGlyph>
    <TTGlyph name="guilsinglright" xMin="-50" yMin="0" xMax="349" yMax="395">
      <contour>
        <pt x="-50" y="0" on="1"/>
        <pt x="-50" y="43" on="1"/>
        <pt x="66" y="43" on="1"/>
        <pt x="181" y="219" on="1"/>
        <pt x="66" y="395" on="1"/>
        <pt x="174" y="395" on="1"/>
        <pt x="293" y="219" on="1"/>
        <pt x="174" y="43" on="1"/>
        <pt x="349" y="43" on="1"/>
        <pt x="349" y="0" on="1"/>
      </contour>
    </TTGlyph>
    <TTGlyph name="h" xMin="0" yMin="0" xMax="777" yMax="699">
      <contour>
        <pt x="777" y="43" on="1"/>
        <pt x="680" y="43" on="1"/>
        <pt x="680" y="699" on="1"/>
        <pt x="562" y="699" on="1"/>
        <pt x="562" y="396" on="1"/>
        <pt x="215" y="396" on="1"/>
        <pt x="215" y="699" on="1"/>
        <pt x="97" y="699" on="1"/>
        <pt x="97" y="0" on="1"/>
        <pt x="215" y="0" on="1"/>
        <pt x="215" y="286" on="1"/>
        <pt x="562" y="286" on="1"/>
        <pt x="562" y="0" on="1"/>
        <pt x="777" y="0" on="1"/>
      </contour>
      <contour>
        <pt x="97" y="43" on="1"/>
        <pt x="97" y="0" on="1"/>
        <pt x="0" y="0" on="1"/>
        <pt x="0" y="43" on="1"/>
      </contour>
    </TTGlyph>
    <TTGlyph name="hungarumlaut" xMin="52" yMin="601" xMax="470" yMax="746">
      <contour>
        <pt x="154" y="601" on="1"/>
        <pt x="52" y="601" on="1"/>
        <pt x="158" y="746" on="1"/>
        <pt x="276" y="697" on="1"/>
      </contour>
      <contour>
        <pt x="348" y="601" on="1"/>
        <pt x="246" y="601" on="1"/>
        <pt x="352" y="746" on="1"/>
        <pt x="470" y="697" on="1"/>
      </contour>
    </TTGlyph>
    <TTGlyph name="hyphen" xMin="0" yMin="0" xMax="476" yMax="351">
      <contour>
        <pt x="72" y="246" on="1"/>
        <pt x="72" y="351" on="1"/>
        <pt x="404" y="351" on="1"/>
        <pt x="404" y="246" on="1"/>
        <pt x="261" y="246" on="1"/>
        <pt x="261" y="43" on="1"/>
        <pt x="476" y="43" on="1"/>
        <pt x="476" y="0" on="1"/>
        <pt x="0" y="0" on="1"/>
        <pt x="0" y="43" on="1"/>
        <pt x="214" y="43" on="1"/>
        <pt x="214" y="246" on="1"/>
      </contour>
    </TTGlyph>
    <TTGlyph name="i" xMin="0" yMin="0" xMax="312" yMax="699">
      <contour>
        <pt x="97" y="43" on="1"/>
        <pt x="97" y="699" on="1"/>
        <pt x="215" y="699" on="1"/>
        <pt x="215" y="43" on="1"/>
        <pt x="312" y="43" on="1"/>
        <pt x="312" y="0" on="1"/>
        <pt x="0" y="0" on="1"/>
        <pt x="0" y="43" on="1"/>
      </contour>
    </TTGlyph>
    <TTGlyph name="iacute" xMin="0" yMin="0" xMax="327" yMax="902">
      <contour>
        <pt x="97" y="43" on="1"/>
        <pt x="97" y="699" on="1"/>
        <pt x="215" y="699" on="1"/>
        <pt x="215" y="43" on="1"/>
        <pt x="312" y="43" on="1"/>
        <pt x="312" y="0" on="1"/>
        <pt x="0" y="0" on="1"/>
        <pt x="0" y="43" on="1"/>
      </contour>
      <contour>
        <pt x="205" y="757" on="1"/>
        <pt x="103" y="757" on="1"/>
        <pt x="209" y="902" on="1"/>
        <pt x="327" y="853" on="1"/>
      </contour>
    </TTGlyph>
    <TTGlyph name="icircumflex" xMin="-7" yMin="0" xMax="341" yMax="891">
      <contour>
        <pt x="97" y="43" on="1"/>
        <pt x="97" y="699" on="1"/>
        <pt x="215" y="699" on="1"/>
        <pt x="215" y="43" on="1"/>
        <pt x="312" y="43" on="1"/>
        <pt x="312" y="0" on="1"/>
        <pt x="0" y="0" on="1"/>
        <pt x="0" y="43" on="1"/>
      </contour>
      <contour>
        <pt x="115" y="891" on="1"/>
        <pt x="219" y="891" on="1"/>
        <pt x="341" y="757" on="1"/>
        <pt x="244" y="757" on="1"/>
        <pt x="167" y="813" on="1"/>
        <pt x="90" y="757" on="1"/>
        <pt x="-7" y="757" on="1"/>
      </contour>
    </TTGlyph>
    <TTGlyph name="idieresis" xMin="0" yMin="0" xMax="312" yMax="876">
      <contour>
        <pt x="97" y="43" on="1"/>
        <pt x="97" y="699" on="1"/>
        <pt x="215" y="699" on="1"/>
        <pt x="215" y="43" on="1"/>
        <pt x="312" y="43" on="1"/>
        <pt x="312" y="0" on="1"/>
        <pt x="0" y="0" on="1"/>
        <pt x="0" y="43" on="1"/>
      </contour>
      <contour>
        <pt x="38" y="753" on="0"/>
        <pt x="3" y="789" on="0"/>
        <pt x="3" y="840" on="0"/>
        <pt x="38" y="876" on="0"/>
        <pt x="90" y="876" on="0"/>
        <pt x="126" y="841" on="0"/>
        <pt x="126" y="790" on="0"/>
        <pt x="90" y="753" on="0"/>
      </contour>
      <contour>
        <pt x="224" y="753" on="0"/>
        <pt x="188" y="789" on="0"/>
        <pt x="188" y="840" on="0"/>
        <pt x="224" y="876" on="0"/>
        <pt x="275" y="876" on="0"/>
        <pt x="311" y="841" on="0"/>
        <pt x="311" y="790" on="0"/>
        <pt x="274" y="753" on="0"/>
      </contour>
    </TTGlyph>
    <TTGlyph name="igrave" xMin="-15" yMin="0" xMax="312" yMax="902">
      <contour>
        <pt x="97" y="43" on="1"/>
        <pt x="97" y="699" on="1"/>
        <pt x="215" y="699" on="1"/>
        <pt x="215" y="43" on="1"/>
        <pt x="312" y="43" on="1"/>
        <pt x="312" y="0" on="1"/>
        <pt x="0" y="0" on="1"/>
        <pt x="0" y="43" on="1"/>
      </contour>
      <contour>
        <pt x="209" y="757" on="1"/>
        <pt x="107" y="757" on="1"/>
        <pt x="-15" y="853" on="1"/>
        <pt x="103" y="902" on="1"/>
      </contour>
    </TTGlyph>
    <TTGlyph name="itilde" xMin="-12" yMin="0" xMax="320" yMax="887">
      <contour>
        <pt x="97" y="43" on="1"/>
        <pt x="97" y="699" on="1"/>
        <pt x="215" y="699" on="1"/>
        <pt x="215" y="43" on="1"/>
        <pt x="312" y="43" on="1"/>
        <pt x="312" y="0" on="1"/>
        <pt x="0" y="0" on="1"/>
        <pt x="0" y="43" on="1"/>
      </contour>
      <contour>
        <pt x="228" y="754" on="1"/>
        <pt x="202" y="754" on="0"/>
        <pt x="109" y="801" on="0"/>
        <pt x="96" y="801" on="1"/>
        <pt x="63" y="801" on="0"/>
        <pt x="62" y="757" on="1"/>
        <pt x="-12" y="757" on="1"/>
        <pt x="-12" y="815" on="0"/>
        <pt x="35" y="887" on="0"/>
        <pt x="77" y="887" on="1"/>
        <pt x="104" y="887" on="0"/>
        <pt x="200" y="840" on="0"/>
        <pt x="215" y="840" on="1"/>
        <pt x="245" y="840" on="0"/>
        <pt x="245" y="884" on="1"/>
        <pt x="320" y="884" on="1"/>
        <pt x="317" y="754" on="0"/>
      </contour>
    </TTGlyph>
    <TTGlyph name="j" xMin="0" yMin="0" xMax="551" yMax="699">
      <contour>
        <pt x="551" y="43" on="1"/>
        <pt x="551" y="0" on="1"/>
        <pt x="0" y="0" on="1"/>
        <pt x="0" y="43" on="1"/>
        <pt x="110" y="43" on="1"/>
        <pt x="66" y="63" on="0"/>
        <pt x="31" y="100" on="1"/>
        <pt x="98" y="193" on="1"/>
        <pt x="166" y="128" on="0"/>
        <pt x="231" y="128" on="1"/>
        <pt x="277" y="128" on="0"/>
        <pt x="342" y="190" on="0"/>
        <pt x="342" y="252" on="1"/>
        <pt x="342" y="593" on="1"/>
        <pt x="120" y="593" on="1"/>
        <pt x="120" y="699" on="1"/>
        <pt x="460" y="699" on="1"/>
        <pt x="460" y="258" on="1"/>
        <pt x="460" y="102" on="0"/>
        <pt x="357" y="43" on="1"/>
      </contour>
    </TTGlyph>
    <TTGlyph name="jcircumflex" xMin="0" yMin="0" xMax="551" yMax="891">
      <contour>
        <pt x="551" y="43" on="1"/>
        <pt x="551" y="0" on="1"/>
        <pt x="0" y="0" on="1"/>
        <pt x="0" y="43" on="1"/>
        <pt x="110" y="43" on="1"/>
        <pt x="66" y="63" on="0"/>
        <pt x="31" y="100" on="1"/>
        <pt x="98" y="193" on="1"/>
        <pt x="166" y="128" on="0"/>
        <pt x="231" y="128" on="1"/>
        <pt x="277" y="128" on="0"/>
        <pt x="342" y="190" on="0"/>
        <pt x="342" y="252" on="1"/>
        <pt x="342" y="593" on="1"/>
        <pt x="120" y="593" on="1"/>
        <pt x="120" y="699" on="1"/>
        <pt x="460" y="699" on="1"/>
        <pt x="460" y="258" on="1"/>
        <pt x="460" y="102" on="0"/>
        <pt x="357" y="43" on="1"/>
      </contour>
      <contour>
        <pt x="240" y="891" on="1"/>
        <pt x="344" y="891" on="1"/>
        <pt x="466" y="757" on="1"/>
        <pt x="369" y="757" on="1"/>
        <pt x="292" y="813" on="1"/>
        <pt x="215" y="757" on="1"/>
        <pt x="118" y="757" on="1"/>
      </contour>
    </TTGlyph>
    <TTGlyph name="k" xMin="0" yMin="0" xMax="755" yMax="699">
      <contour>
        <pt x="97" y="43" on="1"/>
        <pt x="97" y="699" on="1"/>
        <pt x="215" y="699" on="1"/>
        <pt x="215" y="358" on="1"/>
        <pt x="535" y="699" on="1"/>
        <pt x="685" y="699" on="1"/>
        <pt x="404" y="393" on="1"/>
        <pt x="658" y="42" on="1"/>
        <pt x="658" y="43" on="1"/>
        <pt x="755" y="43" on="1"/>
        <pt x="755" y="0" on="1"/>
        <pt x="549" y="0" on="1"/>
        <pt x="317" y="306" on="1"/>
        <pt x="215" y="196" on="1"/>
        <pt x="215" y="0" on="1"/>
        <pt x="0" y="0" on="1"/>
        <pt x="0" y="43" on="1"/>
      </contour>
    </TTGlyph>
    <TTGlyph name="l" xMin="0" yMin="0" xMax="631" yMax="699">
      <contour>
        <pt x="631" y="43" on="1"/>
        <pt x="631" y="0" on="1"/>
        <pt x="0" y="0" on="1"/>
        <pt x="0" y="43" on="1"/>
        <pt x="97" y="43" on="1"/>
        <pt x="97" y="699" on="1"/>
        <pt x="215" y="699" on="1"/>
        <pt x="215" y="112" on="1"/>
        <pt x="534" y="112" on="1"/>
        <pt x="534" y="43" on="1"/>
      </contour>
    </TTGlyph>
    <TTGlyph name="less" xMin="0" yMin="0" xMax="592" yMax="678">
      <contour>
        <pt x="347" y="43" on="1"/>
        <pt x="592" y="43" on="1"/>
        <pt x="592" y="0" on="1"/>
        <pt x="0" y="0" on="1"/>
        <pt x="0" y="43" on="1"/>
        <pt x="300" y="43" on="1"/>
        <pt x="300" y="216" on="1"/>
        <pt x="45" y="334" on="1"/>
        <pt x="45" y="460" on="1"/>
        <pt x="516" y="678" on="1"/>
        <pt x="516" y="564" on="1"/>
        <pt x="164" y="405" on="1"/>
        <pt x="164" y="394" on="1"/>
        <pt x="516" y="231" on="1"/>
        <pt x="516" y="117" on="1"/>
        <pt x="347" y="195" on="1"/>
      </contour>
    </TTGlyph>
    <TTGlyph name="lessequal" xMin="0" yMin="-52" xMax="615" yMax="678">
      <contour>
        <pt x="405" y="43" on="1"/>
        <pt x="615" y="43" on="1"/>
        <pt x="615" y="0" on="1"/>
        <pt x="539" y="0" on="1"/>
        <pt x="539" y="-52" on="1"/>
        <pt x="67" y="-52" on="1"/>
        <pt x="67" y="0" on="1"/>
        <pt x="0" y="0" on="1"/>
        <pt x="0" y="43" on="1"/>
        <pt x="358" y="43" on="1"/>
        <pt x="358" y="200" on="1"/>
        <pt x="67" y="334" on="1"/>
        <pt x="67" y="460" on="1"/>
        <pt x="538" y="678" on="1"/>
        <pt x="538" y="564" on="1"/>
        <pt x="186" y="405" on="1"/>
        <pt x="186" y="394" on="1"/>
        <pt x="538" y="231" on="1"/>
        <pt x="538" y="117" on="1"/>
        <pt x="405" y="178" on="1"/>
      </contour>
    </TTGlyph>
    <TTGlyph name="logicalnot" xMin="67" yMin="88" xMax="736" yMax="445">
      <contour>
        <pt x="67" y="445" on="1"/>
        <pt x="736" y="445" on="1"/>
        <pt x="736" y="88" on="1"/>
        <pt x="654" y="88" on="1"/>
        <pt x="654" y="357" on="1"/>
        <pt x="67" y="357" on="1"/>
      </contour>
    </TTGlyph>
    <TTGlyph name="lslash" xMin="12" yMin="0" xMax="643" yMax="699">
      <contour>
        <pt x="109" y="699" on="1"/>
        <pt x="227" y="699" on="1"/>
        <pt x="227" y="362" on="1"/>
        <pt x="446" y="430" on="1"/>
        <pt x="446" y="325" on="1"/>
        <pt x="227" y="257" on="1"/>
        <pt x="227" y="112" on="1"/>
        <pt x="546" y="112" on="1"/>
        <pt x="546" y="43" on="1"/>
        <pt x="643" y="43" on="1"/>
        <pt x="643" y="0" on="1"/>
        <pt x="12" y="0" on="1"/>
        <pt x="12" y="43" on="1"/>
        <pt x="109" y="43" on="1"/>
        <pt x="109" y="220" on="1"/>
        <pt x="30" y="196" on="1"/>
        <pt x="30" y="301" on="1"/>
        <pt x="109" y="325" on="1"/>
      </contour>
    </TTGlyph>
    <TTGlyph name="m" xMin="0" yMin="0" xMax="983" yMax="699">
      <contour>
        <pt x="983" y="43" on="1"/>
        <pt x="983" y="0" on="1"/>
        <pt x="768" y="0" on="1"/>
        <pt x="768" y="546" on="1"/>
        <pt x="524" y="61" on="1"/>
        <pt x="458" y="61" on="1"/>
        <pt x="215" y="546" on="1"/>
        <pt x="215" y="0" on="1"/>
        <pt x="0" y="0" on="1"/>
        <pt x="0" y="43" on="1"/>
        <pt x="97" y="43" on="1"/>
        <pt x="97" y="699" on="1"/>
        <pt x="281" y="699" on="1"/>
        <pt x="492" y="260" on="1"/>
        <pt x="703" y="699" on="1"/>
        <pt x="886" y="699" on="1"/>
        <pt x="886" y="43" on="1"/>
      </contour>
    </TTGlyph>
    <TTGlyph name="macron" xMin="59" yMin="600" xMax="366" yMax="687">
      <contour>
        <pt x="366" y="687" on="1"/>
        <pt x="366" y="600" on="1"/>
        <pt x="59" y="600" on="1"/>
        <pt x="59" y="687" on="1"/>
      </contour>
    </TTGlyph>
    <TTGlyph name="minus" xMin="0" yMin="0" xMax="568" yMax="430">
      <contour>
        <pt x="48" y="430" on="1"/>
        <pt x="520" y="430" on="1"/>
        <pt x="520" y="336" on="1"/>
        <pt x="308" y="336" on="1"/>
        <pt x="308" y="43" on="1"/>
        <pt x="568" y="43" on="1"/>
        <pt x="568" y="0" on="1"/>
        <pt x="0" y="0" on="1"/>
        <pt x="0" y="43" on="1"/>
        <pt x="261" y="43" on="1"/>
        <pt x="261" y="336" on="1"/>
        <pt x="48" y="336" on="1"/>
      </contour>
    </TTGlyph>
    <TTGlyph name="multiply" xMin="0" yMin="0" xMax="669" yMax="614">
      <contour>
        <pt x="669" y="43" on="1"/>
        <pt x="669" y="0" on="1"/>
        <pt x="0" y="0" on="1"/>
        <pt x="0" y="43" on="1"/>
        <pt x="311" y="43" on="1"/>
        <pt x="311" y="293" on="1"/>
        <pt x="164" y="146" on="1"/>
        <pt x="100" y="210" on="1"/>
        <pt x="271" y="381" on="1"/>
        <pt x="101" y="550" on="1"/>
        <pt x="165" y="614" on="1"/>
        <pt x="335" y="443" on="1"/>
        <pt x="505" y="614" on="1"/>
        <pt x="568" y="550" on="1"/>
        <pt x="399" y="381" on="1"/>
        <pt x="569" y="210" on="1"/>
        <pt x="506" y="146" on="1"/>
        <pt x="358" y="294" on="1"/>
        <pt x="358" y="43" on="1"/>
      </contour>
    </TTGlyph>
    <TTGlyph name="n" xMin="0" yMin="0" xMax="836" yMax="699">
      <contour>
        <pt x="97" y="43" on="1"/>
        <pt x="97" y="699" on="1"/>
        <pt x="215" y="699" on="1"/>
        <pt x="621" y="177" on="1"/>
        <pt x="621" y="699" on="1"/>
        <pt x="739" y="699" on="1"/>
        <pt x="739" y="43" on="1"/>
        <pt x="836" y="43" on="1"/>
        <pt x="836" y="0" on="1"/>
        <pt x="611" y="0" on="1"/>
        <pt x="215" y="510" on="1"/>
        <pt x="215" y="0" on="1"/>
        <pt x="0" y="0" on="1"/>
        <pt x="0" y="43" on="1"/>
      </contour>
    </TTGlyph>
    <TTGlyph name="nacute" xMin="0" yMin="0" xMax="836" yMax="932">
      <contour>
        <pt x="97" y="43" on="1"/>
        <pt x="97" y="699" on="1"/>
        <pt x="215" y="699" on="1"/>
        <pt x="621" y="177" on="1"/>
        <pt x="621" y="699" on="1"/>
        <pt x="739" y="699" on="1"/>
        <pt x="739" y="43" on="1"/>
        <pt x="836" y="43" on="1"/>
        <pt x="836" y="0" on="1"/>
        <pt x="611" y="0" on="1"/>
        <pt x="215" y="510" on="1"/>
        <pt x="215" y="0" on="1"/>
        <pt x="0" y="0" on="1"/>
        <pt x="0" y="43" on="1"/>
      </contour>
      <contour>
        <pt x="471" y="787" on="1"/>
        <pt x="369" y="787" on="1"/>
        <pt x="475" y="932" on="1"/>
        <pt x="593" y="883" on="1"/>
      </contour>
    </TTGlyph>
    <TTGlyph name="nine" xMin="0" yMin="0" xMax="619" yMax="712">
      <contour>
        <pt x="619" y="43" on="1"/>
        <pt x="619" y="0" on="1"/>
        <pt x="0" y="0" on="1"/>
        <pt x="0" y="43" on="1"/>
        <pt x="104" y="43" on="1"/>
        <pt x="91" y="51" on="0"/>
        <pt x="77" y="63" on="1"/>
        <pt x="136" y="150" on="1"/>
        <pt x="159" y="130" on="0"/>
        <pt x="236" y="98" on="0"/>
        <pt x="266" y="98" on="1"/>
        <pt x="359" y="98" on="0"/>
        <pt x="447" y="224" on="0"/>
        <pt x="448" y="331" on="1"/>
        <pt x="423" y="303" on="0"/>
        <pt x="329" y="254" on="0"/>
        <pt x="272" y="254" on="1"/>
        <pt x="178" y="254" on="0"/>
        <pt x="51" y="379" on="0"/>
        <pt x="51" y="586" on="0"/>
        <pt x="188" y="712" on="0"/>
        <pt x="292" y="712" on="1"/>
        <pt x="460" y="712" on="0"/>
        <pt x="524" y="562" on="1"/>
        <pt x="560" y="476" on="0"/>
        <pt x="560" y="356" on="1"/>
        <pt x="560" y="134" on="0"/>
        <pt x="439" y="43" on="1"/>
      </contour>
      <contour>
        <pt x="348" y="358" on="0"/>
        <pt x="429" y="425" on="0"/>
        <pt x="429" y="532" on="0"/>
        <pt x="351" y="609" on="0"/>
        <pt x="234" y="609" on="0"/>
        <pt x="158" y="540" on="0"/>
        <pt x="158" y="432" on="0"/>
        <pt x="227" y="358" on="0"/>
      </contour>
    </TTGlyph>
    <TTGlyph name="ntilde" xMin="0" yMin="0" xMax="836" yMax="887">
      <contour>
        <pt x="97" y="43" on="1"/>
        <pt x="97" y="699" on="1"/>
        <pt x="215" y="699" on="1"/>
        <pt x="621" y="177" on="1"/>
        <pt x="621" y="699" on="1"/>
        <pt x="739" y="699" on="1"/>
        <pt x="739" y="43" on="1"/>
        <pt x="836" y="43" on="1"/>
        <pt x="836" y="0" on="1"/>
        <pt x="611" y="0" on="1"/>
        <pt x="215" y="510" on="1"/>
        <pt x="215" y="0" on="1"/>
        <pt x="0" y="0" on="1"/>
        <pt x="0" y="43" on="1"/>
      </contour>
      <contour>
        <pt x="489" y="754" on="1"/>
        <pt x="463" y="754" on="0"/>
        <pt x="370" y="801" on="0"/>
        <pt x="357" y="801" on="1"/>
        <pt x="324" y="801" on="0"/>
        <pt x="323" y="757" on="1"/>
        <pt x="249" y="757" on="1"/>
        <pt x="249" y="815" on="0"/>
        <pt x="296" y="887" on="0"/>
        <pt x="338" y="887" on="1"/>
        <pt x="365" y="887" on="0"/>
        <pt x="461" y="840" on="0"/>
        <pt x="476" y="840" on="1"/>
        <pt x="506" y="840" on="0"/>
        <pt x="506" y="884" on="1"/>
        <pt x="581" y="884" on="1"/>
        <pt x="578" y="754" on="0"/>
      </contour>
    </TTGlyph>
    <TTGlyph name="numbersign" xMin="-54" yMin="0" xMax="735" yMax="716">
      <contour>
        <pt x="735" y="43" on="1"/>
        <pt x="735" y="0" on="1"/>
        <pt x="-54" y="0" on="1"/>
        <pt x="-54" y="43" on="1"/>
        <pt x="125" y="43" on="1"/>
        <pt x="146" y="160" on="1"/>
        <pt x="43" y="160" on="1"/>
        <pt x="65" y="270" on="1"/>
        <pt x="165" y="270" on="1"/>
        <pt x="194" y="436" on="1"/>
        <pt x="80" y="436" on="1"/>
        <pt x="102" y="546" on="1"/>
        <pt x="213" y="546" on="1"/>
        <pt x="242" y="716" on="1"/>
        <pt x="353" y="716" on="1"/>
        <pt x="324" y="546" on="1"/>
        <pt x="471" y="546" on="1"/>
        <pt x="500" y="716" on="1"/>
        <pt x="612" y="716" on="1"/>
        <pt x="581" y="546" on="1"/>
        <pt x="693" y="546" on="1"/>
        <pt x="671" y="436" on="1"/>
        <pt x="563" y="436" on="1"/>
        <pt x="534" y="270" on="1"/>
        <pt x="657" y="270" on="1"/>
        <pt x="635" y="160" on="1"/>
        <pt x="516" y="160" on="1"/>
        <pt x="495" y="43" on="1"/>
      </contour>
      <contour>
        <pt x="453" y="436" on="1"/>
        <pt x="306" y="436" on="1"/>
        <pt x="276" y="270" on="1"/>
        <pt x="423" y="270" on="1"/>
      </contour>
      <contour>
        <pt x="258" y="160" on="1"/>
        <pt x="237" y="43" on="1"/>
        <pt x="384" y="43" on="1"/>
        <pt x="405" y="160" on="1"/>
      </contour>
    </TTGlyph>
    <TTGlyph name="o" xMin="0" yMin="0" xMax="840" yMax="716">
      <contour>
        <pt x="840" y="43" on="1"/>
        <pt x="840" y="0" on="1"/>
        <pt x="0" y="0" on="1"/>
        <pt x="0" y="43" on="1"/>
        <pt x="229" y="43" on="1"/>
        <pt x="147" y="90" on="0"/>
        <pt x="52" y="254" on="0"/>
        <pt x="52" y="355" on="1"/>
        <pt x="52" y="509" on="0"/>
        <pt x="264" y="716" on="0"/>
        <pt x="576" y="716" on="0"/>
        <pt x="788" y="509" on="0"/>
        <pt x="788" y="355" on="1"/>
        <pt x="788" y="255" on="0"/>
        <pt x="693" y="89" on="0"/>
        <pt x="611" y="43" on="1"/>
      </contour>
      <contour>
        <pt x="524" y="608" on="0"/>
        <pt x="316" y="608" on="0"/>
        <pt x="173" y="460" on="0"/>
        <pt x="173" y="249" on="0"/>
        <pt x="316" y="101" on="0"/>
        <pt x="524" y="101" on="0"/>
        <pt x="667" y="249" on="0"/>
        <pt x="667" y="460" on="0"/>
      </contour>
    </TTGlyph>
    <TTGlyph name="oacute" xMin="0" yMin="0" xMax="840" yMax="902">
      <contour>
        <pt x="840" y="43" on="1"/>
        <pt x="840" y="0" on="1"/>
        <pt x="0" y="0" on="1"/>
        <pt x="0" y="43" on="1"/>
        <pt x="229" y="43" on="1"/>
        <pt x="147" y="90" on="0"/>
        <pt x="52" y="254" on="0"/>
        <pt x="52" y="355" on="1"/>
        <pt x="52" y="509" on="0"/>
        <pt x="264" y="716" on="0"/>
        <pt x="576" y="716" on="0"/>
        <pt x="788" y="509" on="0"/>
        <pt x="788" y="355" on="1"/>
        <pt x="788" y="255" on="0"/>
        <pt x="693" y="89" on="0"/>
        <pt x="611" y="43" on="1"/>
      </contour>
      <contour>
        <pt x="524" y="608" on="0"/>
        <pt x="316" y="608" on="0"/>
        <pt x="173" y="460" on="0"/>
        <pt x="173" y="249" on="0"/>
        <pt x="316" y="101" on="0"/>
        <pt x="524" y="101" on="0"/>
        <pt x="667" y="249" on="0"/>
        <pt x="667" y="460" on="0"/>
      </contour>
      <contour>
        <pt x="438" y="757" on="1"/>
        <pt x="336" y="757" on="1"/>
        <pt x="442" y="902" on="1"/>
        <pt x="560" y="853" on="1"/>
      </contour>
    </TTGlyph>
    <TTGlyph name="ocircumflex" xMin="0" yMin="0" xMax="840" yMax="891">
      <contour>
        <pt x="840" y="43" on="1"/>
        <pt x="840" y="0" on="1"/>
        <pt x="0" y="0" on="1"/>
        <pt x="0" y="43" on="1"/>
        <pt x="229" y="43" on="1"/>
        <pt x="147" y="90" on="0"/>
        <pt x="52" y="254" on="0"/>
        <pt x="52" y="355" on="1"/>
        <pt x="52" y="509" on="0"/>
        <pt x="264" y="716" on="0"/>
        <pt x="576" y="716" on="0"/>
        <pt x="788" y="509" on="0"/>
        <pt x="788" y="355" on="1"/>
        <pt x="788" y="255" on="0"/>
        <pt x="693" y="89" on="0"/>
        <pt x="611" y="43" on="1"/>
      </contour>
      <contour>
        <pt x="524" y="608" on="0"/>
        <pt x="316" y="608" on="0"/>
        <pt x="173" y="460" on="0"/>
        <pt x="173" y="249" on="0"/>
        <pt x="316" y="101" on="0"/>
        <pt x="524" y="101" on="0"/>
        <pt x="667" y="249" on="0"/>
        <pt x="667" y="460" on="0"/>
      </contour>
      <contour>
        <pt x="366" y="891" on="1"/>
        <pt x="470" y="891" on="1"/>
        <pt x="592" y="757" on="1"/>
        <pt x="495" y="757" on="1"/>
        <pt x="418" y="813" on="1"/>
        <pt x="341" y="757" on="1"/>
        <pt x="244" y="757" on="1"/>
      </contour>
    </TTGlyph>
    <TTGlyph name="odieresis" xMin="0" yMin="0" xMax="840" yMax="876">
      <contour>
        <pt x="840" y="43" on="1"/>
        <pt x="840" y="0" on="1"/>
        <pt x="0" y="0" on="1"/>
        <pt x="0" y="43" on="1"/>
        <pt x="229" y="43" on="1"/>
        <pt x="147" y="90" on="0"/>
        <pt x="52" y="254" on="0"/>
        <pt x="52" y="355" on="1"/>
        <pt x="52" y="509" on="0"/>
        <pt x="264" y="716" on="0"/>
        <pt x="576" y="716" on="0"/>
        <pt x="788" y="509" on="0"/>
        <pt x="788" y="355" on="1"/>
        <pt x="788" y="255" on="0"/>
        <pt x="693" y="89" on="0"/>
        <pt x="611" y="43" on="1"/>
      </contour>
      <contour>
        <pt x="524" y="608" on="0"/>
        <pt x="316" y="608" on="0"/>
        <pt x="173" y="460" on="0"/>
        <pt x="173" y="249" on="0"/>
        <pt x="316" y="101" on="0"/>
        <pt x="524" y="101" on="0"/>
        <pt x="667" y="249" on="0"/>
        <pt x="667" y="460" on="0"/>
      </contour>
      <contour>
        <pt x="296" y="753" on="0"/>
        <pt x="261" y="789" on="0"/>
        <pt x="261" y="840" on="0"/>
        <pt x="296" y="876" on="0"/>
        <pt x="348" y="876" on="0"/>
        <pt x="384" y="841" on="0"/>
        <pt x="384" y="790" on="0"/>
        <pt x="348" y="753" on="0"/>
      </contour>
      <contour>
        <pt x="482" y="753" on="0"/>
        <pt x="446" y="789" on="0"/>
        <pt x="446" y="840" on="0"/>
        <pt x="482" y="876" on="0"/>
        <pt x="533" y="876" on="0"/>
        <pt x="569" y="841" on="0"/>
        <pt x="569" y="790" on="0"/>
        <pt x="532" y="753" on="0"/>
      </contour>
    </TTGlyph>
    <TTGlyph name="oe" xMin="0" yMin="0" xMax="1109" yMax="699">
      <contour>
        <pt x="53" y="350" on="1"/>
        <pt x="53" y="499" on="0"/>
        <pt x="258" y="699" on="0"/>
        <pt x="409" y="699" on="1"/>
        <pt x="1000" y="699" on="1"/>
        <pt x="1000" y="588" on="1"/>
        <pt x="627" y="588" on="1"/>
        <pt x="627" y="403" on="1"/>
        <pt x="962" y="403" on="1"/>
        <pt x="962" y="298" on="1"/>
        <pt x="627" y="298" on="1"/>
        <pt x="627" y="111" on="1"/>
        <pt x="1012" y="111" on="1"/>
        <pt x="1012" y="43" on="1"/>
        <pt x="1109" y="43" on="1"/>
        <pt x="1109" y="0" on="1"/>
        <pt x="0" y="0" on="1"/>
        <pt x="0" y="43" on="1"/>
        <pt x="233" y="43" on="1"/>
        <pt x="150" y="87" on="0"/>
        <pt x="53" y="249" on="0"/>
      </contour>
      <contour>
        <pt x="181" y="452" on="0"/>
        <pt x="181" y="248" on="0"/>
        <pt x="320" y="103" on="0"/>
        <pt x="420" y="103" on="1"/>
        <pt x="509" y="103" on="1"/>
        <pt x="509" y="596" on="1"/>
        <pt x="420" y="596" on="1"/>
        <pt x="319" y="596" on="0"/>
      </contour>
    </TTGlyph>
    <TTGlyph name="ogonek" xMin="18" yMin="-212" xMax="197" yMax="-8">
      <contour>
        <pt x="109" y="-49" on="1"/>
        <pt x="86" y="-87" on="0"/>
        <pt x="86" y="-146" on="0"/>
        <pt x="136" y="-146" on="0"/>
        <pt x="149" y="-122" on="1"/>
        <pt x="197" y="-156" on="1"/>
        <pt x="163" y="-212" on="0"/>
        <pt x="106" y="-212" on="1"/>
        <pt x="70" y="-212" on="0"/>
        <pt x="18" y="-164" on="0"/>
        <pt x="18" y="-84" on="0"/>
        <pt x="50" y="-38" on="1"/>
        <pt x="71" y="-8" on="1"/>
        <pt x="134" y="-8" on="1"/>
      </contour>
    </TTGlyph>
    <TTGlyph name="ograve" xMin="0" yMin="0" xMax="840" yMax="902">
      <contour>
        <pt x="840" y="43" on="1"/>
        <pt x="840" y="0" on="1"/>
        <pt x="0" y="0" on="1"/>
        <pt x="0" y="43" on="1"/>
        <pt x="229" y="43" on="1"/>
        <pt x="147" y="90" on="0"/>
        <pt x="52" y="254" on="0"/>
        <pt x="52" y="355" on="1"/>
        <pt x="52" y="509" on="0"/>
        <pt x="264" y="716" on="0"/>
        <pt x="576" y="716" on="0"/>
        <pt x="788" y="509" on="0"/>
        <pt x="788" y="355" on="1"/>
        <pt x="788" y="255" on="0"/>
        <pt x="693" y="89" on="0"/>
        <pt x="611" y="43" on="1"/>
      </contour>
      <contour>
        <pt x="524" y="608" on="0"/>
        <pt x="316" y="608" on="0"/>
        <pt x="173" y="460" on="0"/>
        <pt x="173" y="249" on="0"/>
        <pt x="316" y="101" on="0"/>
        <pt x="524" y="101" on="0"/>
        <pt x="667" y="249" on="0"/>
        <pt x="667" y="460" on="0"/>
      </contour>
      <contour>
        <pt x="496" y="757" on="1"/>
        <pt x="394" y="757" on="1"/>
        <pt x="272" y="853" on="1"/>
        <pt x="390" y="902" on="1"/>
      </contour>
    </TTGlyph>
    <TTGlyph name="one" xMin="0" yMin="0" xMax="381" yMax="699">
      <contour>
        <pt x="381" y="43" on="1"/>
        <pt x="381" y="0" on="1"/>
        <pt x="0" y="0" on="1"/>
        <pt x="0" y="43" on="1"/>
        <pt x="171" y="43" on="1"/>
        <pt x="171" y="594" on="1"/>
        <pt x="29" y="594" on="1"/>
        <pt x="29" y="699" on="1"/>
        <pt x="283" y="699" on="1"/>
        <pt x="283" y="43" on="1"/>
      </contour>
    </TTGlyph>
    <TTGlyph name="oslash" xMin="0" yMin="0" xMax="840" yMax="716">
      <contour>
        <pt x="840" y="43" on="1"/>
        <pt x="840" y="0" on="1"/>
        <pt x="0" y="0" on="1"/>
        <pt x="0" y="43" on="1"/>
        <pt x="229" y="43" on="1"/>
        <pt x="147" y="90" on="0"/>
        <pt x="52" y="254" on="0"/>
        <pt x="52" y="355" on="1"/>
        <pt x="52" y="509" on="0"/>
        <pt x="264" y="716" on="0"/>
        <pt x="576" y="716" on="0"/>
        <pt x="788" y="509" on="0"/>
        <pt x="788" y="355" on="1"/>
        <pt x="788" y="255" on="0"/>
        <pt x="693" y="89" on="0"/>
        <pt x="611" y="43" on="1"/>
      </contour>
      <contour>
        <pt x="524" y="608" on="0"/>
        <pt x="316" y="608" on="0"/>
        <pt x="173" y="460" on="0"/>
        <pt x="173" y="249" on="0"/>
        <pt x="316" y="101" on="0"/>
        <pt x="524" y="101" on="0"/>
        <pt x="667" y="249" on="0"/>
        <pt x="667" y="460" on="0"/>
      </contour>
    </TTGlyph>
    <TTGlyph name="otilde" xMin="0" yMin="0" xMax="840" yMax="887">
      <contour>
        <pt x="840" y="43" on="1"/>
        <pt x="840" y="0" on="1"/>
        <pt x="0" y="0" on="1"/>
        <pt x="0" y="43" on="1"/>
        <pt x="229" y="43" on="1"/>
        <pt x="147" y="90" on="0"/>
        <pt x="52" y="254" on="0"/>
        <pt x="52" y="355" on="1"/>
        <pt x="52" y="509" on="0"/>
        <pt x="264" y="716" on="0"/>
        <pt x="576" y="716" on="0"/>
        <pt x="788" y="509" on="0"/>
        <pt x="788" y="355" on="1"/>
        <pt x="788" y="255" on="0"/>
        <pt x="693" y="89" on="0"/>
        <pt x="611" y="43" on="1"/>
      </contour>
      <contour>
        <pt x="524" y="608" on="0"/>
        <pt x="316" y="608" on="0"/>
        <pt x="173" y="460" on="0"/>
        <pt x="173" y="249" on="0"/>
        <pt x="316" y="101" on="0"/>
        <pt x="524" y="101" on="0"/>
        <pt x="667" y="249" on="0"/>
        <pt x="667" y="460" on="0"/>
      </contour>
      <contour>
        <pt x="492" y="754" on="1"/>
        <pt x="466" y="754" on="0"/>
        <pt x="373" y="801" on="0"/>
        <pt x="360" y="801" on="1"/>
        <pt x="327" y="801" on="0"/>
        <pt x="326" y="757" on="1"/>
        <pt x="252" y="757" on="1"/>
        <pt x="252" y="815" on="0"/>
        <pt x="299" y="887" on="0"/>
        <pt x="341" y="887" on="1"/>
        <pt x="368" y="887" on="0"/>
        <pt x="464" y="840" on="0"/>
        <pt x="479" y="840" on="1"/>
        <pt x="509" y="840" on="0"/>
        <pt x="509" y="884" on="1"/>
        <pt x="584" y="884" on="1"/>
        <pt x="581" y="754" on="0"/>
      </contour>
    </TTGlyph>
    <TTGlyph name="p" xMin="0" yMin="0" xMax="684" yMax="699">
      <contour>
        <pt x="684" y="43" on="1"/>
        <pt x="684" y="0" on="1"/>
        <pt x="0" y="0" on="1"/>
        <pt x="0" y="43" on="1"/>
        <pt x="97" y="43" on="1"/>
        <pt x="97" y="699" on="1"/>
        <pt x="337" y="699" on="1"/>
        <pt x="496" y="699" on="0"/>
        <pt x="642" y="577" on="0"/>
        <pt x="642" y="323" on="0"/>
        <pt x="493" y="205" on="0"/>
        <pt x="339" y="205" on="1"/>
        <pt x="215" y="205" on="1"/>
        <pt x="215" y="43" on="1"/>
      </contour>
      <contour>
        <pt x="450" y="312" on="0"/>
        <pt x="521" y="387" on="0"/>
        <pt x="521" y="532" on="0"/>
        <pt x="431" y="592" on="0"/>
        <pt x="335" y="592" on="1"/>
        <pt x="215" y="592" on="1"/>
        <pt x="215" y="312" on="1"/>
        <pt x="352" y="312" on="1"/>
      </contour>
    </TTGlyph>
    <TTGlyph name="paragraph" xMin="0" yMin="0" xMax="671" yMax="757">
      <contour>
        <pt x="671" y="43" on="1"/>
        <pt x="671" y="0" on="1"/>
        <pt x="0" y="0" on="1"/>
        <pt x="0" y="43" on="1"/>
        <pt x="277" y="43" on="1"/>
        <pt x="277" y="367" on="1"/>
        <pt x="253" y="364" on="0"/>
        <pt x="231" y="364" on="1"/>
        <pt x="176" y="364" on="0"/>
        <pt x="94" y="402" on="0"/>
        <pt x="74" y="432" on="1"/>
        <pt x="35" y="490" on="0"/>
        <pt x="35" y="556" on="1"/>
        <pt x="35" y="641" on="0"/>
        <pt x="153" y="757" on="0"/>
        <pt x="273" y="757" on="1"/>
        <pt x="572" y="757" on="1"/>
        <pt x="572" y="43" on="1"/>
      </contour>
      <contour>
        <pt x="367" y="662" on="1"/>
        <pt x="367" y="43" on="1"/>
        <pt x="479" y="43" on="1"/>
        <pt x="479" y="662" on="1"/>
      </contour>
    </TTGlyph>
    <TTGlyph name="parenleft" xMin="0" yMin="0" xMax="383" yMax="757">
      <contour>
        <pt x="383" y="43" on="1"/>
        <pt x="383" y="0" on="1"/>
        <pt x="0" y="0" on="1"/>
        <pt x="0" y="43" on="1"/>
        <pt x="149" y="43" on="1"/>
        <pt x="108" y="108" on="0"/>
        <pt x="50" y="289" on="0"/>
        <pt x="50" y="484" on="0"/>
        <pt x="131" y="699" on="0"/>
        <pt x="180" y="757" on="1"/>
        <pt x="299" y="757" on="1"/>
        <pt x="241" y="688" on="0"/>
        <pt x="161" y="476" on="0"/>
        <pt x="161" y="294" on="0"/>
        <pt x="220" y="113" on="0"/>
        <pt x="267" y="43" on="1"/>
      </contour>
    </TTGlyph>
    <TTGlyph name="parenright" xMin="-51" yMin="0" xMax="332" yMax="757">
      <contour>
        <pt x="-51" y="0" on="1"/>
        <pt x="-51" y="43" on="1"/>
        <pt x="65" y="43" on="1"/>
        <pt x="111" y="114" on="0"/>
        <pt x="171" y="295" on="0"/>
        <pt x="171" y="476" on="0"/>
        <pt x="91" y="688" on="0"/>
        <pt x="33" y="757" on="1"/>
        <pt x="152" y="757" on="1"/>
        <pt x="201" y="699" on="0"/>
        <pt x="282" y="484" on="0"/>
        <pt x="282" y="289" on="0"/>
        <pt x="224" y="108" on="0"/>
        <pt x="183" y="43" on="1"/>
        <pt x="332" y="43" on="1"/>
        <pt x="332" y="0" on="1"/>
      </contour>
    </TTGlyph>
    <TTGlyph name="percent" xMin="-28" yMin="0" xMax="800" yMax="716">
      <contour>
        <pt x="-28" y="0" on="1"/>
        <pt x="-28" y="43" on="1"/>
        <pt x="100" y="43" on="1"/>
        <pt x="581" y="699" on="1"/>
        <pt x="710" y="699" on="1"/>
        <pt x="229" y="43" on="1"/>
        <pt x="489" y="43" on="1"/>
        <pt x="441" y="89" on="0"/>
        <pt x="441" y="227" on="0"/>
        <pt x="528" y="321" on="0"/>
        <pt x="657" y="321" on="0"/>
        <pt x="743" y="228" on="0"/>
        <pt x="743" y="89" on="0"/>
        <pt x="694" y="43" on="1"/>
        <pt x="800" y="43" on="1"/>
        <pt x="800" y="0" on="1"/>
      </contour>
      <contour>
        <pt x="346" y="623" on="0"/>
        <pt x="346" y="491" on="0"/>
        <pt x="259" y="397" on="0"/>
        <pt x="130" y="397" on="0"/>
        <pt x="44" y="490" on="0"/>
        <pt x="44" y="622" on="0"/>
        <pt x="131" y="716" on="0"/>
        <pt x="260" y="716" on="0"/>
      </contour>
      <contour>
        <pt x="252" y="525" on="0"/>
        <pt x="252" y="585" on="0"/>
        <pt x="218" y="626" on="0"/>
        <pt x="169" y="626" on="0"/>
        <pt x="137" y="585" on="0"/>
        <pt x="137" y="525" on="0"/>
        <pt x="171" y="484" on="0"/>
        <pt x="220" y="484" on="0"/>
      </contour>
      <contour>
        <pt x="651" y="128" on="0"/>
        <pt x="651" y="188" on="0"/>
        <pt x="617" y="229" on="0"/>
        <pt x="568" y="229" on="0"/>
        <pt x="536" y="188" on="0"/>
        <pt x="536" y="128" on="0"/>
        <pt x="570" y="87" on="0"/>
        <pt x="619" y="87" on="0"/>
      </contour>
    </TTGlyph>
    <TTGlyph name="period" xMin="0" yMin="0" xMax="279" yMax="171">
      <contour>
        <pt x="279" y="43" on="1"/>
        <pt x="279" y="0" on="1"/>
        <pt x="0" y="0" on="1"/>
        <pt x="0" y="43" on="1"/>
        <pt x="87" y="43" on="1"/>
        <pt x="65" y="63" on="0"/>
        <pt x="65" y="128" on="0"/>
        <pt x="108" y="171" on="0"/>
        <pt x="170" y="171" on="0"/>
        <pt x="214" y="128" on="0"/>
        <pt x="214" y="64" on="0"/>
        <pt x="191" y="43" on="1"/>
      </contour>
    </TTGlyph>
    <TTGlyph name="periodcentered" xMin="0" yMin="0" xMax="291" yMax="393">
      <contour>
        <pt x="71" y="288" on="0"/>
        <pt x="71" y="350" on="0"/>
        <pt x="114" y="393" on="0"/>
        <pt x="176" y="393" on="0"/>
        <pt x="220" y="350" on="0"/>
        <pt x="220" y="288" on="0"/>
        <pt x="176" y="244" on="0"/>
        <pt x="114" y="244" on="0"/>
      </contour>
      <contour>
        <pt x="291" y="43" on="1"/>
        <pt x="291" y="0" on="1"/>
        <pt x="0" y="0" on="1"/>
        <pt x="0" y="43" on="1"/>
      </contour>
    </TTGlyph>
    <TTGlyph name="perthousand" xMin="-28" yMin="0" xMax="1187" yMax="716">
      <contour>
        <pt x="-28" y="0" on="1"/>
        <pt x="-28" y="43" on="1"/>
        <pt x="100" y="43" on="1"/>
        <pt x="581" y="699" on="1"/>
        <pt x="710" y="699" on="1"/>
        <pt x="229" y="43" on="1"/>
        <pt x="489" y="43" on="1"/>
        <pt x="441" y="89" on="0"/>
        <pt x="441" y="227" on="0"/>
        <pt x="528" y="321" on="0"/>
        <pt x="657" y="321" on="0"/>
        <pt x="743" y="228" on="0"/>
        <pt x="743" y="89" on="0"/>
        <pt x="694" y="43" on="1"/>
        <pt x="876" y="43" on="1"/>
        <pt x="828" y="89" on="0"/>
        <pt x="828" y="227" on="0"/>
        <pt x="915" y="321" on="0"/>
        <pt x="1044" y="321" on="0"/>
        <pt x="1130" y="228" on="0"/>
        <pt x="1130" y="89" on="0"/>
        <pt x="1081" y="43" on="1"/>
        <pt x="1187" y="43" on="1"/>
        <pt x="1187" y="0" on="1"/>
      </contour>
      <contour>
        <pt x="346" y="623" on="0"/>
        <pt x="346" y="491" on="0"/>
        <pt x="259" y="397" on="0"/>
        <pt x="130" y="397" on="0"/>
        <pt x="44" y="490" on="0"/>
        <pt x="44" y="622" on="0"/>
        <pt x="131" y="716" on="0"/>
        <pt x="260" y="716" on="0"/>
      </contour>
      <contour>
        <pt x="1038" y="128" on="0"/>
        <pt x="1038" y="188" on="0"/>
        <pt x="1004" y="229" on="0"/>
        <pt x="955" y="229" on="0"/>
        <pt x="923" y="188" on="0"/>
        <pt x="923" y="128" on="0"/>
        <pt x="957" y="87" on="0"/>
        <pt x="1006" y="87" on="0"/>
      </contour>
      <contour>
        <pt x="252" y="525" on="0"/>
        <pt x="252" y="585" on="0"/>
        <pt x="218" y="626" on="0"/>
        <pt x="169" y="626" on="0"/>
        <pt x="137" y="585" on="0"/>
        <pt x="137" y="525" on="0"/>
        <pt x="171" y="484" on="0"/>
        <pt x="220" y="484" on="0"/>
      </contour>
      <contour>
        <pt x="651" y="128" on="0"/>
        <pt x="651" y="188" on="0"/>
        <pt x="617" y="229" on="0"/>
        <pt x="568" y="229" on="0"/>
        <pt x="536" y="188" on="0"/>
        <pt x="536" y="128" on="0"/>
        <pt x="570" y="87" on="0"/>
        <pt x="619" y="87" on="0"/>
      </contour>
    </TTGlyph>
    <TTGlyph name="plus" xMin="0" yMin="0" xMax="568" yMax="618">
      <contour>
        <pt x="48" y="430" on="1"/>
        <pt x="239" y="430" on="1"/>
        <pt x="239" y="618" on="1"/>
        <pt x="329" y="618" on="1"/>
        <pt x="329" y="430" on="1"/>
        <pt x="520" y="430" on="1"/>
        <pt x="520" y="336" on="1"/>
        <pt x="329" y="336" on="1"/>
        <pt x="329" y="146" on="1"/>
        <pt x="308" y="146" on="1"/>
        <pt x="308" y="43" on="1"/>
        <pt x="568" y="43" on="1"/>
        <pt x="568" y="0" on="1"/>
        <pt x="0" y="0" on="1"/>
        <pt x="0" y="43" on="1"/>
        <pt x="261" y="43" on="1"/>
        <pt x="261" y="146" on="1"/>
        <pt x="239" y="146" on="1"/>
        <pt x="239" y="336" on="1"/>
        <pt x="48" y="336" on="1"/>
      </contour>
    </TTGlyph>
    <TTGlyph name="plusminus" xMin="0" yMin="0" xMax="568" yMax="662">
      <contour>
        <pt x="48" y="524" on="1"/>
        <pt x="239" y="524" on="1"/>
        <pt x="239" y="662" on="1"/>
        <pt x="329" y="662" on="1"/>
        <pt x="329" y="524" on="1"/>
        <pt x="520" y="524" on="1"/>
        <pt x="520" y="430" on="1"/>
        <pt x="329" y="430" on="1"/>
        <pt x="329" y="290" on="1"/>
        <pt x="308" y="290" on="1"/>
        <pt x="308" y="237" on="1"/>
        <pt x="520" y="237" on="1"/>
        <pt x="520" y="148" on="1"/>
        <pt x="308" y="148" on="1"/>
        <pt x="308" y="43" on="1"/>
        <pt x="568" y="43" on="1"/>
        <pt x="568" y="0" on="1"/>
        <pt x="0" y="0" on="1"/>
        <pt x="0" y="43" on="1"/>
        <pt x="261" y="43" on="1"/>
        <pt x="261" y="148" on="1"/>
        <pt x="48" y="148" on="1"/>
        <pt x="48" y="237" on="1"/>
        <pt x="261" y="237" on="1"/>
        <pt x="261" y="290" on="1"/>
        <pt x="239" y="290" on="1"/>
        <pt x="239" y="430" on="1"/>
        <pt x="48" y="430" on="1"/>
      </contour>
    </TTGlyph>
    <TTGlyph name="q" xMin="0" yMin="-122" xMax="840" yMax="716">
      <contour>
        <pt x="840" y="43" on="1"/>
        <pt x="840" y="0" on="1"/>
        <pt x="479" y="0" on="1"/>
        <pt x="479" y="-122" on="1"/>
        <pt x="361" y="-122" on="1"/>
        <pt x="361" y="0" on="1"/>
        <pt x="0" y="0" on="1"/>
        <pt x="0" y="43" on="1"/>
        <pt x="228" y="43" on="1"/>
        <pt x="147" y="91" on="0"/>
        <pt x="52" y="254" on="0"/>
        <pt x="52" y="355" on="1"/>
        <pt x="52" y="509" on="0"/>
        <pt x="264" y="716" on="0"/>
        <pt x="576" y="716" on="0"/>
        <pt x="788" y="509" on="0"/>
        <pt x="788" y="355" on="1"/>
        <pt x="788" y="255" on="0"/>
        <pt x="693" y="90" on="0"/>
        <pt x="611" y="43" on="1"/>
      </contour>
      <contour>
        <pt x="361" y="220" on="1"/>
        <pt x="479" y="220" on="1"/>
        <pt x="479" y="108" on="1"/>
        <pt x="562" y="128" on="0"/>
        <pt x="667" y="265" on="0"/>
        <pt x="667" y="460" on="0"/>
        <pt x="524" y="608" on="0"/>
        <pt x="316" y="608" on="0"/>
        <pt x="173" y="460" on="0"/>
        <pt x="173" y="265" on="0"/>
        <pt x="278" y="128" on="0"/>
        <pt x="361" y="108" on="1"/>
      </contour>
    </TTGlyph>
    <TTGlyph name="question" xMin="0" yMin="0" xMax="508" yMax="716">
      <contour>
        <pt x="302" y="219" on="1"/>
        <pt x="189" y="219" on="1"/>
        <pt x="189" y="280" on="1"/>
        <pt x="189" y="320" on="0"/>
        <pt x="208" y="359" on="0"/>
        <pt x="240" y="391" on="1"/>
        <pt x="313" y="464" on="1"/>
        <pt x="336" y="489" on="0"/>
        <pt x="336" y="563" on="0"/>
        <pt x="288" y="612" on="0"/>
        <pt x="212" y="612" on="0"/>
        <pt x="161" y="565" on="0"/>
        <pt x="157" y="526" on="1"/>
        <pt x="36" y="526" on="1"/>
        <pt x="46" y="615" on="0"/>
        <pt x="165" y="716" on="0"/>
        <pt x="343" y="716" on="0"/>
        <pt x="455" y="619" on="0"/>
        <pt x="455" y="532" on="1"/>
        <pt x="455" y="472" on="0"/>
        <pt x="422" y="432" on="1"/>
        <pt x="403" y="408" on="0"/>
        <pt x="383" y="388" on="0"/>
        <pt x="350" y="357" on="0"/>
        <pt x="327" y="334" on="0"/>
        <pt x="320" y="326" on="1"/>
        <pt x="302" y="304" on="0"/>
        <pt x="302" y="264" on="1"/>
      </contour>
      <contour>
        <pt x="508" y="43" on="1"/>
        <pt x="508" y="0" on="1"/>
        <pt x="0" y="0" on="1"/>
        <pt x="0" y="43" on="1"/>
        <pt x="199" y="43" on="1"/>
        <pt x="170" y="65" on="0"/>
        <pt x="170" y="131" on="0"/>
        <pt x="215" y="175" on="0"/>
        <pt x="278" y="175" on="0"/>
        <pt x="324" y="132" on="0"/>
        <pt x="324" y="66" on="0"/>
        <pt x="294" y="43" on="1"/>
      </contour>
    </TTGlyph>
    <TTGlyph name="questiondown" xMin="0" yMin="0" xMax="508" yMax="716">
      <contour>
        <pt x="0" y="0" on="1"/>
        <pt x="0" y="43" on="1"/>
        <pt x="163" y="43" on="1"/>
        <pt x="112" y="63" on="0"/>
        <pt x="53" y="149" on="0"/>
        <pt x="53" y="211" on="1"/>
        <pt x="53" y="271" on="0"/>
        <pt x="86" y="311" on="1"/>
        <pt x="105" y="335" on="0"/>
        <pt x="125" y="355" on="0"/>
        <pt x="158" y="386" on="0"/>
        <pt x="181" y="409" on="0"/>
        <pt x="188" y="418" on="1"/>
        <pt x="206" y="439" on="0"/>
        <pt x="206" y="479" on="1"/>
        <pt x="206" y="524" on="1"/>
        <pt x="319" y="524" on="1"/>
        <pt x="319" y="463" on="1"/>
        <pt x="319" y="423" on="0"/>
        <pt x="300" y="384" on="0"/>
        <pt x="268" y="352" on="1"/>
        <pt x="195" y="279" on="1"/>
        <pt x="172" y="254" on="0"/>
        <pt x="172" y="180" on="0"/>
        <pt x="220" y="131" on="0"/>
        <pt x="296" y="131" on="0"/>
        <pt x="347" y="178" on="0"/>
        <pt x="351" y="217" on="1"/>
        <pt x="472" y="217" on="1"/>
        <pt x="457" y="86" on="0"/>
        <pt x="344" y="43" on="1"/>
        <pt x="508" y="43" on="1"/>
        <pt x="508" y="0" on="1"/>
      </contour>
      <contour>
        <pt x="292" y="716" on="0"/>
        <pt x="338" y="673" on="0"/>
        <pt x="338" y="612" on="0"/>
        <pt x="293" y="568" on="0"/>
        <pt x="230" y="568" on="0"/>
        <pt x="184" y="611" on="0"/>
        <pt x="184" y="672" on="0"/>
        <pt x="229" y="716" on="0"/>
      </contour>
    </TTGlyph>
    <TTGlyph name="quotedbl" xMin="0" yMin="0" xMax="374" yMax="699">
      <contour>
        <pt x="374" y="43" on="1"/>
        <pt x="374" y="0" on="1"/>
        <pt x="0" y="0" on="1"/>
        <pt x="0" y="43" on="1"/>
        <pt x="155" y="43" on="1"/>
        <pt x="155" y="453" on="1"/>
        <pt x="77" y="453" on="1"/>
        <pt x="77" y="699" on="1"/>
        <pt x="155" y="699" on="1"/>
        <pt x="155" y="481" on="1"/>
        <pt x="219" y="481" on="1"/>
        <pt x="219" y="699" on="1"/>
        <pt x="297" y="699" on="1"/>
        <pt x="297" y="453" on="1"/>
        <pt x="219" y="453" on="1"/>
        <pt x="219" y="43" on="1"/>
      </contour>
    </TTGlyph>
    <TTGlyph name="quotedblbase" xMin="0" yMin="-80" xMax="387" yMax="89">
      <contour>
        <pt x="0" y="0" on="1"/>
        <pt x="0" y="43" on="1"/>
        <pt x="81" y="43" on="1"/>
        <pt x="96" y="89" on="1"/>
        <pt x="176" y="89" on="1"/>
        <pt x="161" y="43" on="1"/>
        <pt x="212" y="43" on="1"/>
        <pt x="227" y="89" on="1"/>
        <pt x="307" y="89" on="1"/>
        <pt x="292" y="43" on="1"/>
        <pt x="387" y="43" on="1"/>
        <pt x="387" y="0" on="1"/>
        <pt x="279" y="0" on="1"/>
        <pt x="254" y="-80" on="1"/>
        <pt x="174" y="-80" on="1"/>
        <pt x="199" y="0" on="1"/>
        <pt x="148" y="0" on="1"/>
        <pt x="123" y="-80" on="1"/>
        <pt x="43" y="-80" on="1"/>
        <pt x="68" y="0" on="1"/>
      </contour>
    </TTGlyph>
    <TTGlyph name="quotedblleft" xMin="0" yMin="0" xMax="397" yMax="699">
      <contour>
        <pt x="397" y="43" on="1"/>
        <pt x="397" y="0" on="1"/>
        <pt x="0" y="0" on="1"/>
        <pt x="0" y="43" on="1"/>
        <pt x="80" y="43" on="1"/>
        <pt x="80" y="530" on="1"/>
        <pt x="62" y="530" on="1"/>
        <pt x="115" y="699" on="1"/>
        <pt x="195" y="699" on="1"/>
        <pt x="142" y="530" on="1"/>
        <pt x="127" y="530" on="1"/>
        <pt x="127" y="43" on="1"/>
        <pt x="231" y="43" on="1"/>
        <pt x="231" y="530" on="1"/>
        <pt x="214" y="530" on="1"/>
        <pt x="267" y="699" on="1"/>
        <pt x="347" y="699" on="1"/>
        <pt x="294" y="530" on="1"/>
        <pt x="278" y="530" on="1"/>
        <pt x="278" y="43" on="1"/>
      </contour>
    </TTGlyph>
    <TTGlyph name="quotedblright" xMin="0" yMin="0" xMax="397" yMax="699">
      <contour>
        <pt x="397" y="43" on="1"/>
        <pt x="397" y="0" on="1"/>
        <pt x="0" y="0" on="1"/>
        <pt x="0" y="43" on="1"/>
        <pt x="80" y="43" on="1"/>
        <pt x="80" y="530" on="1"/>
        <pt x="62" y="530" on="1"/>
        <pt x="115" y="699" on="1"/>
        <pt x="195" y="699" on="1"/>
        <pt x="142" y="530" on="1"/>
        <pt x="127" y="530" on="1"/>
        <pt x="127" y="43" on="1"/>
        <pt x="231" y="43" on="1"/>
        <pt x="231" y="530" on="1"/>
        <pt x="214" y="530" on="1"/>
        <pt x="267" y="699" on="1"/>
        <pt x="347" y="699" on="1"/>
        <pt x="294" y="530" on="1"/>
        <pt x="278" y="530" on="1"/>
        <pt x="278" y="43" on="1"/>
      </contour>
    </TTGlyph>
    <TTGlyph name="quoteleft" xMin="0" yMin="0" xMax="246" yMax="699">
      <contour>
        <pt x="246" y="43" on="1"/>
        <pt x="246" y="0" on="1"/>
        <pt x="0" y="0" on="1"/>
        <pt x="0" y="43" on="1"/>
        <pt x="80" y="43" on="1"/>
        <pt x="80" y="530" on="1"/>
        <pt x="62" y="530" on="1"/>
        <pt x="115" y="699" on="1"/>
        <pt x="195" y="699" on="1"/>
        <pt x="142" y="530" on="1"/>
        <pt x="127" y="530" on="1"/>
        <pt x="127" y="43" on="1"/>
      </contour>
    </TTGlyph>
    <TTGlyph name="quoteright" xMin="0" yMin="0" xMax="246" yMax="699">
      <contour>
        <pt x="246" y="43" on="1"/>
        <pt x="246" y="0" on="1"/>
        <pt x="0" y="0" on="1"/>
        <pt x="0" y="43" on="1"/>
        <pt x="80" y="43" on="1"/>
        <pt x="80" y="530" on="1"/>
        <pt x="62" y="530" on="1"/>
        <pt x="115" y="699" on="1"/>
        <pt x="195" y="699" on="1"/>
        <pt x="142" y="530" on="1"/>
        <pt x="127" y="530" on="1"/>
        <pt x="127" y="43" on="1"/>
      </contour>
    </TTGlyph>
    <TTGlyph name="quotesinglbase" xMin="-15" yMin="-80" xMax="256" yMax="89">
      <contour>
        <pt x="-15" y="0" on="1"/>
        <pt x="-15" y="43" on="1"/>
        <pt x="81" y="43" on="1"/>
        <pt x="96" y="89" on="1"/>
        <pt x="176" y="89" on="1"/>
        <pt x="161" y="43" on="1"/>
        <pt x="256" y="43" on="1"/>
        <pt x="256" y="0" on="1"/>
        <pt x="148" y="0" on="1"/>
        <pt x="123" y="-80" on="1"/>
        <pt x="43" y="-80" on="1"/>
        <pt x="68" y="0" on="1"/>
      </contour>
    </TTGlyph>
    <TTGlyph name="quotesingle" xMin="0" yMin="0" xMax="232" yMax="699">
      <contour>
        <pt x="77" y="453" on="1"/>
        <pt x="77" y="699" on="1"/>
        <pt x="155" y="699" on="1"/>
        <pt x="155" y="453" on="1"/>
        <pt x="139" y="453" on="1"/>
        <pt x="139" y="43" on="1"/>
        <pt x="232" y="43" on="1"/>
        <pt x="232" y="0" on="1"/>
        <pt x="0" y="0" on="1"/>
        <pt x="0" y="43" on="1"/>
        <pt x="92" y="43" on="1"/>
        <pt x="92" y="453" on="1"/>
      </contour>
    </TTGlyph>
    <TTGlyph name="r" xMin="0" yMin="0" xMax="753" yMax="699">
      <contour>
        <pt x="753" y="43" on="1"/>
        <pt x="753" y="0" on="1"/>
        <pt x="537" y="0" on="1"/>
        <pt x="370" y="235" on="1"/>
        <pt x="215" y="235" on="1"/>
        <pt x="215" y="0" on="1"/>
        <pt x="0" y="0" on="1"/>
        <pt x="0" y="43" on="1"/>
        <pt x="97" y="43" on="1"/>
        <pt x="97" y="699" on="1"/>
        <pt x="357" y="699" on="1"/>
        <pt x="517" y="699" on="0"/>
        <pt x="655" y="591" on="0"/>
        <pt x="655" y="472" on="1"/>
        <pt x="655" y="299" on="0"/>
        <pt x="504" y="254" on="1"/>
        <pt x="656" y="43" on="1"/>
      </contour>
      <contour>
        <pt x="462" y="342" on="0"/>
        <pt x="534" y="404" on="0"/>
        <pt x="534" y="541" on="0"/>
        <pt x="460" y="592" on="0"/>
        <pt x="365" y="592" on="1"/>
        <pt x="215" y="592" on="1"/>
        <pt x="215" y="342" on="1"/>
        <pt x="362" y="342" on="1"/>
      </contour>
    </TTGlyph>
    <TTGlyph name="racute" xMin="0" yMin="0" xMax="753" yMax="932">
      <contour>
        <pt x="753" y="43" on="1"/>
        <pt x="753" y="0" on="1"/>
        <pt x="537" y="0" on="1"/>
        <pt x="370" y="235" on="1"/>
        <pt x="215" y="235" on="1"/>
        <pt x="215" y="0" on="1"/>
        <pt x="0" y="0" on="1"/>
        <pt x="0" y="43" on="1"/>
        <pt x="97" y="43" on="1"/>
        <pt x="97" y="699" on="1"/>
        <pt x="357" y="699" on="1"/>
        <pt x="517" y="699" on="0"/>
        <pt x="655" y="591" on="0"/>
        <pt x="655" y="472" on="1"/>
        <pt x="655" y="299" on="0"/>
        <pt x="504" y="254" on="1"/>
        <pt x="656" y="43" on="1"/>
      </contour>
      <contour>
        <pt x="462" y="342" on="0"/>
        <pt x="534" y="404" on="0"/>
        <pt x="534" y="541" on="0"/>
        <pt x="460" y="592" on="0"/>
        <pt x="365" y="592" on="1"/>
        <pt x="215" y="592" on="1"/>
        <pt x="215" y="342" on="1"/>
        <pt x="362" y="342" on="1"/>
      </contour>
      <contour>
        <pt x="372" y="787" on="1"/>
        <pt x="270" y="787" on="1"/>
        <pt x="376" y="932" on="1"/>
        <pt x="494" y="883" on="1"/>
      </contour>
    </TTGlyph>
    <TTGlyph name="rcaron" xMin="0" yMin="0" xMax="753" yMax="894">
      <contour>
        <pt x="370" y="235" on="1"/>
        <pt x="215" y="235" on="1"/>
        <pt x="215" y="0" on="1"/>
        <pt x="0" y="0" on="1"/>
        <pt x="0" y="43" on="1"/>
        <pt x="97" y="43" on="1"/>
        <pt x="97" y="699" on="1"/>
        <pt x="357" y="699" on="1"/>
        <pt x="517" y="699" on="0"/>
        <pt x="655" y="591" on="0"/>
        <pt x="655" y="472" on="1"/>
        <pt x="655" y="299" on="0"/>
        <pt x="504" y="254" on="1"/>
        <pt x="656" y="43" on="1"/>
        <pt x="753" y="43" on="1"/>
        <pt x="753" y="0" on="1"/>
        <pt x="537" y="0" on="1"/>
      </contour>
      <contour>
        <pt x="462" y="342" on="0"/>
        <pt x="534" y="404" on="0"/>
        <pt x="534" y="541" on="0"/>
        <pt x="460" y="592" on="0"/>
        <pt x="365" y="592" on="1"/>
        <pt x="215" y="592" on="1"/>
        <pt x="215" y="342" on="1"/>
        <pt x="362" y="342" on="1"/>
      </contour>
      <contour>
        <pt x="396" y="760" on="1"/>
        <pt x="292" y="760" on="1"/>
        <pt x="170" y="894" on="1"/>
        <pt x="267" y="894" on="1"/>
        <pt x="344" y="838" on="1"/>
        <pt x="421" y="894" on="1"/>
        <pt x="518" y="894" on="1"/>
      </contour>
    </TTGlyph>
    <TTGlyph name="rcommaaccent" xMin="0" yMin="-250" xMax="753" yMax="699">
      <contour>
        <pt x="753" y="43" on="1"/>
        <pt x="753" y="0" on="1"/>
        <pt x="537" y="0" on="1"/>
        <pt x="370" y="235" on="1"/>
        <pt x="358" y="235" on="1"/>
        <pt x="358" y="-55" on="1"/>
        <pt x="437" y="-55" on="1"/>
        <pt x="357" y="-250" on="1"/>
        <pt x="261" y="-250" on="1"/>
        <pt x="311" y="-100" on="1"/>
        <pt x="311" y="235" on="1"/>
        <pt x="215" y="235" on="1"/>
        <pt x="215" y="0" on="1"/>
        <pt x="0" y="0" on="1"/>
        <pt x="0" y="43" on="1"/>
        <pt x="97" y="43" on="1"/>
        <pt x="97" y="699" on="1"/>
        <pt x="357" y="699" on="1"/>
        <pt x="517" y="699" on="0"/>
        <pt x="655" y="591" on="0"/>
        <pt x="655" y="472" on="1"/>
        <pt x="655" y="299" on="0"/>
        <pt x="504" y="254" on="1"/>
        <pt x="656" y="43" on="1"/>
      </contour>
      <contour>
        <pt x="462" y="342" on="0"/>
        <pt x="534" y="404" on="0"/>
        <pt x="534" y="541" on="0"/>
        <pt x="460" y="592" on="0"/>
        <pt x="365" y="592" on="1"/>
        <pt x="215" y="592" on="1"/>
        <pt x="215" y="342" on="1"/>
        <pt x="362" y="342" on="1"/>
      </contour>
    </TTGlyph>
    <TTGlyph name="registered" xMin="0" yMin="0" xMax="832" yMax="712">
      <contour>
        <pt x="832" y="43" on="1"/>
        <pt x="832" y="0" on="1"/>
        <pt x="0" y="0" on="1"/>
        <pt x="0" y="43" on="1"/>
        <pt x="223" y="43" on="1"/>
        <pt x="145" y="92" on="0"/>
        <pt x="54" y="254" on="0"/>
        <pt x="54" y="349" on="1"/>
        <pt x="54" y="498" on="0"/>
        <pt x="266" y="712" on="0"/>
        <pt x="566" y="712" on="0"/>
        <pt x="778" y="500" on="0"/>
        <pt x="778" y="351" on="1"/>
        <pt x="778" y="256" on="0"/>
        <pt x="685" y="92" on="0"/>
        <pt x="607" y="43" on="1"/>
      </contour>
      <contour>
        <pt x="533" y="70" on="0"/>
        <pt x="695" y="234" on="0"/>
        <pt x="695" y="465" on="0"/>
        <pt x="534" y="628" on="0"/>
        <pt x="301" y="628" on="0"/>
        <pt x="139" y="464" on="0"/>
        <pt x="139" y="233" on="0"/>
        <pt x="300" y="70" on="0"/>
      </contour>
      <contour>
        <pt x="591" y="420" on="1"/>
        <pt x="591" y="323" on="0"/>
        <pt x="506" y="298" on="1"/>
        <pt x="610" y="157" on="1"/>
        <pt x="526" y="157" on="1"/>
        <pt x="432" y="288" on="1"/>
        <pt x="346" y="288" on="1"/>
        <pt x="346" y="157" on="1"/>
        <pt x="278" y="157" on="1"/>
        <pt x="278" y="548" on="1"/>
        <pt x="425" y="548" on="1"/>
        <pt x="514" y="548" on="0"/>
        <pt x="591" y="487" on="0"/>
      </contour>
      <contour>
        <pt x="483" y="348" on="0"/>
        <pt x="524" y="382" on="0"/>
        <pt x="524" y="459" on="0"/>
        <pt x="482" y="489" on="0"/>
        <pt x="429" y="489" on="1"/>
        <pt x="346" y="489" on="1"/>
        <pt x="346" y="348" on="1"/>
        <pt x="427" y="348" on="1"/>
      </contour>
    </TTGlyph>
    <TTGlyph name="ring" xMin="80" yMin="583" xMax="297" yMax="792">
      <contour>
        <pt x="297" y="729" on="0"/>
        <pt x="297" y="645" on="0"/>
        <pt x="231" y="583" on="0"/>
        <pt x="145" y="583" on="0"/>
        <pt x="80" y="645" on="0"/>
        <pt x="80" y="729" on="0"/>
        <pt x="145" y="792" on="0"/>
        <pt x="231" y="792" on="0"/>
      </contour>
      <contour>
        <pt x="213" y="632" on="0"/>
        <pt x="243" y="663" on="0"/>
        <pt x="243" y="712" on="0"/>
        <pt x="213" y="743" on="0"/>
        <pt x="164" y="743" on="0"/>
        <pt x="133" y="712" on="0"/>
        <pt x="133" y="663" on="0"/>
        <pt x="164" y="632" on="0"/>
      </contour>
    </TTGlyph>
    <TTGlyph name="s" xMin="0" yMin="0" xMax="630" yMax="716">
      <contour>
        <pt x="630" y="43" on="1"/>
        <pt x="630" y="0" on="1"/>
        <pt x="0" y="0" on="1"/>
        <pt x="0" y="43" on="1"/>
        <pt x="128" y="43" on="1"/>
        <pt x="80" y="68" on="0"/>
        <pt x="40" y="105" on="1"/>
        <pt x="114" y="194" on="1"/>
        <pt x="220" y="102" on="0"/>
        <pt x="334" y="102" on="1"/>
        <pt x="391" y="102" on="0"/>
        <pt x="458" y="151" on="0"/>
        <pt x="458" y="232" on="0"/>
        <pt x="395" y="277" on="0"/>
        <pt x="241" y="314" on="0"/>
        <pt x="161" y="345" on="0"/>
        <pt x="130" y="370" on="1"/>
        <pt x="68" y="417" on="0"/>
        <pt x="68" y="611" on="0"/>
        <pt x="209" y="716" on="0"/>
        <pt x="313" y="716" on="1"/>
        <pt x="380" y="716" on="0"/>
        <pt x="512" y="672" on="0"/>
        <pt x="560" y="632" on="1"/>
        <pt x="497" y="543" on="1"/>
        <pt x="466" y="571" on="0"/>
        <pt x="360" y="607" on="0"/>
        <pt x="257" y="607" on="0"/>
        <pt x="191" y="565" on="0"/>
        <pt x="191" y="480" on="0"/>
        <pt x="257" y="435" on="0"/>
        <pt x="472" y="383" on="0"/>
        <pt x="581" y="289" on="0"/>
        <pt x="581" y="204" on="1"/>
        <pt x="581" y="101" on="0"/>
        <pt x="505" y="43" on="1"/>
      </contour>
    </TTGlyph>
    <TTGlyph name="scaron" xMin="0" yMin="0" xMax="633" yMax="894">
      <contour>
        <pt x="633" y="43" on="1"/>
        <pt x="633" y="0" on="1"/>
        <pt x="0" y="0" on="1"/>
        <pt x="0" y="43" on="1"/>
        <pt x="129" y="43" on="1"/>
        <pt x="78" y="69" on="0"/>
        <pt x="40" y="106" on="1"/>
        <pt x="115" y="195" on="1"/>
        <pt x="221" y="103" on="0"/>
        <pt x="336" y="103" on="1"/>
        <pt x="393" y="103" on="0"/>
        <pt x="461" y="152" on="0"/>
        <pt x="461" y="233" on="0"/>
        <pt x="397" y="279" on="0"/>
        <pt x="181" y="331" on="0"/>
        <pt x="68" y="421" on="0"/>
        <pt x="68" y="615" on="0"/>
        <pt x="210" y="720" on="0"/>
        <pt x="315" y="720" on="1"/>
        <pt x="382" y="720" on="0"/>
        <pt x="515" y="676" on="0"/>
        <pt x="563" y="636" on="1"/>
        <pt x="500" y="546" on="1"/>
        <pt x="469" y="574" on="0"/>
        <pt x="362" y="610" on="0"/>
        <pt x="258" y="610" on="0"/>
        <pt x="192" y="568" on="0"/>
        <pt x="192" y="483" on="0"/>
        <pt x="259" y="437" on="0"/>
        <pt x="475" y="385" on="0"/>
        <pt x="584" y="290" on="0"/>
        <pt x="584" y="205" on="1"/>
        <pt x="584" y="103" on="0"/>
        <pt x="508" y="43" on="1"/>
      </contour>
      <contour>
        <pt x="368" y="760" on="1"/>
        <pt x="264" y="760" on="1"/>
        <pt x="142" y="894" on="1"/>
        <pt x="239" y="894" on="1"/>
        <pt x="316" y="838" on="1"/>
        <pt x="393" y="894" on="1"/>
        <pt x="490" y="894" on="1"/>
      </contour>
    </TTGlyph>
    <TTGlyph name="section" xMin="0" yMin="-138" xMax="611" yMax="742">
      <contour>
        <pt x="611" y="43" on="1"/>
        <pt x="611" y="0" on="1"/>
        <pt x="524" y="0" on="1"/>
        <pt x="512" y="-60" on="0"/>
        <pt x="399" y="-138" on="0"/>
        <pt x="312" y="-138" on="1"/>
        <pt x="169" y="-138" on="0"/>
        <pt x="59" y="-40" on="1"/>
        <pt x="92" y="0" on="1"/>
        <pt x="0" y="0" on="1"/>
        <pt x="0" y="43" on="1"/>
        <pt x="418" y="43" on="1"/>
        <pt x="409" y="66" on="0"/>
        <pt x="342" y="101" on="0"/>
        <pt x="160" y="154" on="0"/>
        <pt x="51" y="235" on="0"/>
        <pt x="51" y="313" on="1"/>
        <pt x="51" y="361" on="0"/>
        <pt x="117" y="441" on="0"/>
        <pt x="176" y="452" on="1"/>
        <pt x="95" y="484" on="0"/>
        <pt x="95" y="644" on="0"/>
        <pt x="212" y="742" on="0"/>
        <pt x="303" y="742" on="1"/>
        <pt x="368" y="742" on="0"/>
        <pt x="466" y="710" on="0"/>
        <pt x="517" y="673" on="1"/>
        <pt x="460" y="593" on="1"/>
        <pt x="386" y="648" on="0"/>
        <pt x="301" y="648" on="1"/>
        <pt x="255" y="648" on="0"/>
        <pt x="202" y="606" on="0"/>
        <pt x="202" y="539" on="0"/>
        <pt x="260" y="499" on="0"/>
        <pt x="465" y="450" on="0"/>
        <pt x="567" y="372" on="0"/>
        <pt x="567" y="299" on="1"/>
        <pt x="567" y="249" on="0"/>
        <pt x="503" y="168" on="0"/>
        <pt x="435" y="152" on="1"/>
        <pt x="476" y="137" on="0"/>
        <pt x="522" y="76" on="0"/>
        <pt x="526" y="43" on="1"/>
      </contour>
      <contour>
        <pt x="145" y="317" on="1"/>
        <pt x="145" y="270" on="0"/>
        <pt x="262" y="208" on="0"/>
        <pt x="353" y="208" on="1"/>
        <pt x="405" y="208" on="0"/>
        <pt x="474" y="252" on="0"/>
        <pt x="474" y="317" on="0"/>
        <pt x="428" y="359" on="0"/>
        <pt x="392" y="370" on="1"/>
        <pt x="320" y="391" on="0"/>
        <pt x="209" y="391" on="0"/>
        <pt x="145" y="352" on="0"/>
      </contour>
      <contour>
        <pt x="170" y="0" on="1"/>
        <pt x="241" y="-45" on="0"/>
        <pt x="402" y="-45" on="0"/>
        <pt x="418" y="0" on="1"/>
      </contour>
    </TTGlyph>
    <TTGlyph name="semicolon" xMin="0" yMin="-75" xMax="280" yMax="386">
      <contour>
        <pt x="280" y="43" on="1"/>
        <pt x="280" y="0" on="1"/>
        <pt x="173" y="0" on="1"/>
        <pt x="127" y="-75" on="1"/>
        <pt x="69" y="-75" on="1"/>
        <pt x="95" y="0" on="1"/>
        <pt x="0" y="0" on="1"/>
        <pt x="0" y="43" on="1"/>
        <pt x="87" y="43" on="1"/>
        <pt x="65" y="65" on="0"/>
        <pt x="65" y="128" on="0"/>
        <pt x="109" y="171" on="0"/>
        <pt x="170" y="171" on="0"/>
        <pt x="215" y="128" on="0"/>
        <pt x="215" y="73" on="0"/>
        <pt x="199" y="43" on="1"/>
      </contour>
      <contour>
        <pt x="65" y="281" on="0"/>
        <pt x="65" y="343" on="0"/>
        <pt x="108" y="386" on="0"/>
        <pt x="170" y="386" on="0"/>
        <pt x="214" y="343" on="0"/>
        <pt x="214" y="281" on="0"/>
        <pt x="170" y="237" on="0"/>
        <pt x="108" y="237" on="0"/>
      </contour>
    </TTGlyph>
    <TTGlyph name="seven" xMin="0" yMin="0" xMax="566" yMax="699">
      <contour>
        <pt x="566" y="43" on="1"/>
        <pt x="566" y="0" on="1"/>
        <pt x="0" y="0" on="1"/>
        <pt x="0" y="43" on="1"/>
        <pt x="133" y="43" on="1"/>
        <pt x="401" y="592" on="1"/>
        <pt x="153" y="592" on="1"/>
        <pt x="153" y="498" on="1"/>
        <pt x="46" y="498" on="1"/>
        <pt x="46" y="699" on="1"/>
        <pt x="538" y="699" on="1"/>
        <pt x="538" y="594" on="1"/>
        <pt x="263" y="43" on="1"/>
      </contour>
    </TTGlyph>
    <TTGlyph name="six" xMin="0" yMin="0" xMax="620" yMax="712">
      <contour>
        <pt x="620" y="43" on="1"/>
        <pt x="620" y="0" on="1"/>
        <pt x="0" y="0" on="1"/>
        <pt x="0" y="43" on="1"/>
        <pt x="169" y="43" on="1"/>
        <pt x="60" y="130" on="0"/>
        <pt x="60" y="348" on="1"/>
        <pt x="60" y="444" on="0"/>
        <pt x="106" y="588" on="0"/>
        <pt x="146" y="630" on="1"/>
        <pt x="224" y="712" on="0"/>
        <pt x="451" y="712" on="0"/>
        <pt x="543" y="641" on="1"/>
        <pt x="484" y="554" on="1"/>
        <pt x="461" y="574" on="0"/>
        <pt x="384" y="606" on="0"/>
        <pt x="354" y="606" on="1"/>
        <pt x="261" y="606" on="0"/>
        <pt x="173" y="480" on="0"/>
        <pt x="172" y="373" on="1"/>
        <pt x="197" y="401" on="0"/>
        <pt x="291" y="450" on="0"/>
        <pt x="348" y="450" on="1"/>
        <pt x="442" y="450" on="0"/>
        <pt x="569" y="325" on="0"/>
        <pt x="569" y="107" on="0"/>
        <pt x="487" y="43" on="1"/>
      </contour>
      <contour>
        <pt x="272" y="346" on="0"/>
        <pt x="191" y="279" on="0"/>
        <pt x="191" y="172" on="0"/>
        <pt x="269" y="95" on="0"/>
        <pt x="387" y="95" on="0"/>
        <pt x="465" y="164" on="0"/>
        <pt x="465" y="271" on="0"/>
        <pt x="393" y="346" on="0"/>
      </contour>
    </TTGlyph>
    <TTGlyph name="slash" xMin="0" yMin="0" xMax="587" yMax="757">
      <contour>
        <pt x="587" y="43" on="1"/>
        <pt x="587" y="0" on="1"/>
        <pt x="0" y="0" on="1"/>
        <pt x="0" y="43" on="1"/>
        <pt x="103" y="43" on="1"/>
        <pt x="436" y="757" on="1"/>
        <pt x="536" y="757" on="1"/>
        <pt x="203" y="43" on="1"/>
      </contour>
    </TTGlyph>
    <TTGlyph name="space" xMin="0" yMin="0" xMax="274" yMax="43">
      <contour>
        <pt x="274" y="43" on="1"/>
        <pt x="274" y="0" on="1"/>
        <pt x="0" y="0" on="1"/>
        <pt x="0" y="43" on="1"/>
      </contour>
    </TTGlyph>
</ttFont>
